{"glyphs":{"0":{"ha":856,"x_min":0,"x_max":0,"o":"m 788 546 b 676 1011 788 794 754 925 b 428 1108 617 1075 532 1108 b 178 1011 324 1108 236 1075 b 67 546 100 925 67 794 b 178 81 67 297 100 167 b 428 -17 236 17 324 -17 b 676 81 532 -17 617 17 b 788 546 754 167 788 297 z m 631 546 b 568 182 631 339 614 239 b 428 118 533 140 489 118 b 286 182 367 118 321 140 b 222 546 240 239 222 339 b 286 910 222 753 240 853 b 428 974 321 951 367 974 b 568 910 489 974 533 951 b 631 546 614 853 631 753 z "},"1":{"ha":856,"x_min":0,"x_max":0,"o":"m 592 1 l 592 1090 l 458 1090 l 179 964 l 179 811 l 435 925 l 435 1 z "},"2":{"ha":856,"x_min":0,"x_max":0,"o":"m 758 782 b 425 1108 758 963 639 1108 b 90 782 211 1108 90 963 l 90 751 l 247 751 l 247 781 b 425 972 247 896 314 972 b 603 781 529 972 603 893 b 528 606 603 717 582 667 l 106 124 l 106 1 l 774 1 l 774 136 l 314 136 l 654 524 b 758 782 735 615 757 676 z "},"3":{"ha":856,"x_min":0,"x_max":0,"o":"m 618 315 b 425 119 618 189 535 119 b 231 318 313 119 231 190 l 231 326 l 72 326 l 72 310 b 425 -17 72 108 221 -17 b 775 306 629 -17 775 108 b 578 581 775 451 697 546 b 743 821 679 613 743 708 b 425 1108 743 985 626 1108 b 106 821 224 1108 106 985 l 106 797 l 263 797 l 263 808 b 425 972 263 908 326 972 b 588 808 519 972 588 908 b 428 646 588 713 525 646 l 315 646 l 315 513 l 428 513 b 618 315 539 513 618 439 z "},"4":{"ha":856,"x_min":0,"x_max":0,"o":"m 226 368 l 513 846 l 513 368 z m 794 368 l 669 368 l 669 1090 l 496 1090 l 63 368 l 63 232 l 513 232 l 513 1 l 669 1 l 669 232 l 794 232 z "},"5":{"ha":856,"x_min":0,"x_max":0,"o":"m 432 572 b 617 346 547 572 617 494 b 432 117 617 197 547 117 b 247 293 329 117 260 178 l 92 293 b 432 -17 106 100 236 -17 b 774 343 643 -17 774 115 b 465 707 774 585 642 707 b 286 622 383 707 315 672 l 303 954 l 714 954 l 714 1090 l 157 1090 l 129 485 l 285 485 b 432 572 313 539 364 572 z "},"6":{"ha":856,"x_min":0,"x_max":0,"o":"m 244 596 b 436 972 250 854 300 972 b 599 836 528 972 583 924 l 758 836 b 438 1108 733 1017 613 1108 b 83 485 188 1108 83 940 b 157 131 83 332 100 201 b 433 -17 217 35 311 -17 b 782 346 635 -17 782 121 b 454 707 782 569 649 707 b 244 596 351 707 278 661 z m 243 346 b 433 571 243 486 317 571 b 626 346 551 571 626 486 b 433 119 626 203 551 119 b 243 346 317 119 243 203 z "},"7":{"ha":856,"x_min":0,"x_max":0,"o":"m 94 954 l 601 954 l 231 1 l 396 1 l 761 968 l 761 1090 l 94 1090 z "},"8":{"ha":856,"x_min":0,"x_max":0,"o":"m 428 513 b 638 314 550 513 638 436 b 428 117 638 192 550 117 b 217 314 304 117 217 192 b 428 513 217 436 304 513 z m 428 -17 b 794 306 643 -17 794 106 b 596 579 794 444 718 539 b 761 821 697 615 761 711 b 428 1108 761 986 638 1108 b 93 821 217 1108 93 986 b 258 579 93 711 157 615 b 61 306 138 539 61 444 b 428 -17 61 106 211 -17 z m 428 644 b 249 810 319 644 249 710 b 428 974 249 908 319 974 b 604 810 533 974 604 908 b 428 644 604 710 533 644 z "},"9":{"ha":856,"x_min":0,"x_max":0,"o":"m 608 494 b 418 119 604 236 553 119 b 257 254 326 119 271 167 l 96 254 b 417 -17 119 75 242 -17 b 769 606 664 -17 769 147 b 697 960 769 758 754 888 b 419 1108 639 1057 543 1108 b 71 746 221 1108 71 971 b 400 385 71 521 206 385 b 608 494 503 385 576 429 z m 613 746 b 419 519 613 604 536 519 b 228 746 303 519 228 604 b 419 972 228 888 303 972 b 613 746 536 972 613 888 z "}," ":{"ha":404,"x_min":0,"x_max":0,"o":""},"!":{"ha":433,"x_min":0,"x_max":0,"o":"m 294 1090 l 139 1090 l 139 900 l 154 303 l 279 303 l 294 900 z m 296 164 l 138 164 l 138 1 l 296 1 z "},"\"":{"ha":636,"x_min":0,"x_max":0,"o":"m 500 779 l 500 1090 l 360 1090 l 360 779 z m 275 779 l 275 1090 l 135 1090 l 135 779 z "},"#":{"ha":1018,"x_min":0,"x_max":0,"o":"m 501 1 l 642 1 l 706 297 l 918 297 l 918 421 l 731 421 l 788 671 l 971 671 l 971 794 l 813 794 l 878 1090 l 738 1090 l 672 794 l 451 794 l 517 1090 l 376 1090 l 310 794 l 100 794 l 100 671 l 285 671 l 229 421 l 47 421 l 47 297 l 204 297 l 140 1 l 279 1 l 344 297 l 565 297 z m 425 671 l 646 671 l 590 421 l 369 421 z "},"$":{"ha":879,"x_min":0,"x_max":0,"o":"m 822 303 b 493 624 822 489 703 585 l 493 960 b 619 806 575 938 619 881 l 619 789 l 782 789 l 782 806 b 493 1103 782 953 682 1079 l 493 1225 l 381 1225 l 381 1106 b 69 806 176 1090 69 958 b 347 504 69 636 175 540 b 381 497 358 501 369 500 l 381 128 b 231 299 286 147 231 213 l 231 325 l 69 325 l 69 303 b 381 -12 69 132 183 8 l 381 -133 l 493 -133 l 493 -14 b 822 303 700 3 822 129 z m 660 299 b 493 125 660 207 599 140 l 493 475 b 660 299 610 450 660 389 z m 231 806 b 381 964 231 889 283 950 l 381 644 b 231 806 279 668 231 717 z "},"%":{"ha":1232,"x_min":0,"x_max":0,"o":"m 458 1 l 904 1090 l 774 1090 l 326 1 z m 529 815 b 303 1108 529 1010 446 1108 b 76 815 154 1108 76 1006 b 303 521 76 622 153 521 b 529 815 447 521 529 618 z m 397 815 b 303 632 397 679 368 632 b 207 815 235 632 207 679 b 303 997 207 949 236 997 b 397 815 367 997 397 949 z m 704 276 b 929 -17 704 79 786 -17 b 1154 276 1074 -17 1154 83 b 929 571 1154 467 1074 571 b 704 276 786 571 704 471 z m 833 276 b 929 458 833 413 864 458 b 1025 276 994 458 1025 408 b 929 94 1025 139 993 94 b 833 276 865 94 833 135 z "},"&":{"ha":999,"x_min":0,"x_max":0,"o":"m 907 542 l 750 542 b 713 325 746 457 735 385 l 388 683 b 307 854 326 750 307 796 b 435 974 307 929 356 974 b 563 854 514 974 563 929 l 563 822 l 719 822 l 719 858 b 435 1108 719 1014 601 1108 b 150 853 267 1108 150 1013 b 258 611 150 763 186 683 b 69 300 129 533 69 428 b 431 -17 69 108 210 -17 b 731 90 557 -17 660 22 l 811 1 l 1006 1 l 824 200 b 907 542 874 289 901 404 z m 432 118 b 225 303 318 118 225 181 b 344 515 225 385 261 460 l 633 197 b 432 118 588 142 515 118 z "},"'":{"ha":363,"x_min":0,"x_max":0,"o":"m 251 779 l 251 1090 l 111 1090 l 111 779 z "},"(":{"ha":485,"x_min":0,"x_max":0,"o":"m 111 540 b 456 -165 111 -53 224 -165 l 456 -31 b 264 540 325 -31 264 40 b 456 1111 264 1039 325 1111 l 456 1244 b 111 540 224 1244 111 1132 z "},")":{"ha":486,"x_min":0,"x_max":0,"o":"m 375 540 b 28 1244 375 1132 261 1244 l 28 1111 b 221 540 160 1111 221 1039 b 28 -31 221 40 160 -31 l 28 -165 b 375 540 261 -165 375 -53 z "},"*":{"ha":769,"x_min":0,"x_max":0,"o":"m 49 621 l 275 508 l 49 396 l 119 275 l 329 414 l 314 163 l 454 163 l 439 414 l 649 275 l 719 396 l 492 508 l 719 621 l 649 743 l 439 601 l 454 856 l 314 856 l 329 601 l 119 743 z "},"+":{"ha":814,"x_min":0,"x_max":0,"o":"m 69 444 l 336 444 l 336 161 l 478 161 l 478 444 l 744 444 l 744 572 l 478 572 l 478 856 l 336 856 l 336 572 l 69 572 z "},",":{"ha":428,"x_min":0,"x_max":0,"o":"m 122 -178 b 299 -12 235 -169 299 -112 l 299 185 l 128 185 l 128 1 l 213 1 b 122 -101 213 -65 183 -99 z "},"-":{"ha":614,"x_min":0,"x_max":0,"o":"m 69 440 l 544 440 l 544 575 l 69 575 z "},".":{"ha":428,"x_min":0,"x_max":0,"o":"m 300 186 l 128 186 l 128 1 l 300 1 z "},"/":{"ha":660,"x_min":0,"x_max":0,"o":"m 660 1219 l 508 1219 l -1 -143 l 151 -143 z "},":":{"ha":428,"x_min":0,"x_max":0,"o":"m 300 779 l 128 779 l 128 594 l 300 594 z m 300 186 l 128 186 l 128 1 l 300 1 z "},";":{"ha":428,"x_min":0,"x_max":0,"o":"m 299 779 l 128 779 l 128 594 l 299 594 z m 122 -178 b 299 -12 235 -169 299 -112 l 299 185 l 128 185 l 128 1 l 213 1 b 122 -101 213 -65 183 -99 z "},"<":{"ha":808,"x_min":0,"x_max":0,"o":"m 79 446 l 729 157 l 729 299 l 242 508 l 729 717 l 729 860 l 79 571 z "},"=":{"ha":814,"x_min":0,"x_max":0,"o":"m 69 308 l 744 308 l 744 435 l 69 435 z m 69 581 l 744 581 l 744 708 l 69 708 z "},">":{"ha":808,"x_min":0,"x_max":0,"o":"m 729 571 l 79 860 l 79 717 l 565 508 l 79 299 l 79 157 l 729 446 z "},"?":{"ha":797,"x_min":0,"x_max":0,"o":"m 714 801 b 394 1108 714 978 599 1108 b 76 801 192 1108 76 979 l 76 796 l 229 796 b 394 972 229 910 297 972 b 560 797 492 972 560 910 b 450 600 560 719 533 672 b 311 329 339 503 311 442 l 311 283 l 464 283 l 464 318 b 576 524 464 400 489 444 b 714 801 668 606 714 681 z m 465 164 l 308 164 l 308 1 l 465 1 z "},"@":{"ha":1142,"x_min":0,"x_max":0,"o":"m 96 407 b 569 -293 96 -122 247 -293 b 790 -242 649 -293 726 -274 l 749 -129 b 569 -172 701 -156 633 -172 b 235 407 332 -172 235 -62 b 569 988 235 871 326 988 b 897 626 779 988 875 896 b 697 732 869 690 806 732 b 411 374 525 732 411 608 b 724 14 411 156 514 14 b 1043 401 928 14 1043 151 l 1043 407 b 569 1108 1043 918 908 1108 b 96 407 232 1108 96 918 z m 907 374 b 732 140 907 217 851 140 b 557 374 613 140 557 217 b 732 604 557 528 613 604 b 907 374 851 604 907 528 z "},"A":{"ha":946,"x_min":0,"x_max":0,"o":"m 931 1 l 567 1090 l 376 1090 l 14 1 l 181 1 l 257 243 l 688 243 l 764 1 z m 643 383 l 300 383 l 472 931 z "},"B":{"ha":917,"x_min":0,"x_max":0,"o":"m 258 631 l 258 950 l 467 950 b 672 790 601 950 672 906 b 467 631 672 675 601 631 z m 526 1 b 864 308 754 1 864 108 b 668 568 864 442 793 542 b 833 801 769 597 833 678 b 500 1090 833 990 721 1090 l 97 1090 l 97 1 z m 703 317 b 490 142 703 194 639 142 l 258 142 l 258 492 l 490 492 b 703 317 639 492 703 439 z "},"C":{"ha":967,"x_min":0,"x_max":0,"o":"m 231 546 b 493 967 231 804 286 967 b 743 728 647 967 733 875 l 904 728 b 493 1108 892 953 744 1108 b 69 546 150 1108 69 836 b 493 -17 69 254 149 -17 b 904 363 744 -17 892 138 l 743 363 b 493 124 733 215 647 124 b 231 546 288 124 231 283 z "},"D":{"ha":971,"x_min":0,"x_max":0,"o":"m 740 546 b 668 221 740 382 717 288 b 472 142 628 165 564 142 l 258 142 l 258 950 l 472 950 b 668 871 564 950 628 926 b 740 546 717 804 740 710 z m 901 546 b 806 954 901 697 888 843 b 488 1090 740 1044 636 1090 l 97 1090 l 97 1 l 488 1 b 806 138 636 1 740 47 b 901 546 888 249 901 394 z "},"E":{"ha":810,"x_min":0,"x_max":0,"o":"m 97 1 l 750 1 l 750 142 l 258 142 l 258 489 l 686 489 l 686 629 l 258 629 l 258 950 l 742 950 l 742 1090 l 97 1090 z "},"F":{"ha":776,"x_min":0,"x_max":0,"o":"m 97 1 l 258 1 l 258 474 l 686 474 l 686 614 l 258 614 l 258 950 l 733 950 l 733 1090 l 97 1090 z "},"G":{"ha":992,"x_min":0,"x_max":0,"o":"m 69 546 b 482 -17 69 258 154 -17 b 760 139 619 -17 721 50 l 785 1 l 903 1 l 903 569 l 500 569 l 500 431 l 744 431 l 744 390 b 493 124 744 228 649 124 b 231 546 315 124 231 235 b 493 967 231 804 283 967 b 743 728 647 967 733 875 l 904 728 b 493 1108 892 953 744 1108 b 69 546 151 1108 69 840 z "},"H":{"ha":949,"x_min":0,"x_max":0,"o":"m 690 1 l 851 1 l 851 1090 l 690 1090 l 690 629 l 258 629 l 258 1090 l 97 1090 l 97 1 l 258 1 l 258 489 l 690 489 z "},"I":{"ha":354,"x_min":0,"x_max":0,"o":"m 258 1090 l 97 1090 l 97 1 l 258 1 z "},"J":{"ha":810,"x_min":0,"x_max":0,"o":"m 374 124 b 190 344 263 124 193 186 l 28 344 l 28 335 b 371 -17 28 108 157 -17 b 717 335 588 -17 717 108 l 717 1090 l 556 1090 l 556 357 b 374 124 556 189 483 124 z "},"K":{"ha":896,"x_min":0,"x_max":0,"o":"m 854 1090 l 675 1090 l 374 629 l 258 629 l 258 1090 l 97 1090 l 97 1 l 258 1 l 258 489 l 374 489 l 719 1 l 903 1 l 501 558 z "},"L":{"ha":771,"x_min":0,"x_max":0,"o":"m 97 1 l 750 1 l 750 142 l 258 142 l 258 1090 l 97 1090 z "},"M":{"ha":1275,"x_min":0,"x_max":0,"o":"m 715 1 l 1018 763 l 1018 1 l 1179 1 l 1179 1090 l 1000 1090 l 638 185 l 275 1090 l 97 1090 l 97 1 l 257 1 l 257 763 l 561 1 z "},"N":{"ha":964,"x_min":0,"x_max":0,"o":"m 867 1 l 867 1090 l 706 1090 l 706 288 l 261 1090 l 96 1090 l 96 1 l 257 1 l 257 803 l 701 1 z "},"O":{"ha":985,"x_min":0,"x_max":0,"o":"m 493 -17 b 915 546 832 -17 915 253 b 493 1108 915 838 831 1108 b 69 546 150 1108 69 836 b 493 -17 69 254 149 -17 z m 493 124 b 231 546 288 124 231 283 b 493 967 231 804 286 967 b 754 546 697 967 754 804 b 493 124 754 282 696 124 z "},"P":{"ha":906,"x_min":0,"x_max":0,"o":"m 258 550 l 258 950 l 500 950 b 703 750 635 950 703 876 b 500 550 703 624 635 550 z m 521 410 b 864 750 738 410 864 533 b 521 1090 864 964 738 1090 l 97 1090 l 97 1 l 258 1 l 258 410 z "},"Q":{"ha":992,"x_min":0,"x_max":0,"o":"m 493 -17 b 757 67 607 -17 693 14 l 881 -39 l 972 61 l 840 171 b 915 546 897 274 915 406 b 493 1108 915 839 831 1108 b 69 546 151 1108 69 840 b 493 -17 69 247 153 -17 z m 493 124 b 231 546 288 124 231 283 b 493 967 231 804 286 967 b 754 546 697 967 754 804 b 718 276 754 436 744 346 l 586 390 l 496 289 l 640 165 b 493 124 604 138 554 124 z "},"R":{"ha":936,"x_min":0,"x_max":0,"o":"m 693 97 b 710 1 696 58 701 26 l 874 1 b 854 119 864 31 857 71 l 844 253 b 676 485 835 396 785 465 b 864 763 801 521 864 618 b 521 1090 864 969 747 1090 l 97 1090 l 97 1 l 258 1 l 258 413 l 482 413 b 686 228 629 413 678 361 z m 258 553 l 258 950 l 496 950 b 703 751 625 950 703 892 b 496 553 703 611 625 553 z "},"S":{"ha":879,"x_min":0,"x_max":0,"o":"m 822 303 b 539 614 822 472 721 575 l 399 643 b 232 806 286 667 232 714 b 425 968 232 901 300 968 b 619 806 551 968 619 901 l 619 789 l 782 789 l 782 806 b 425 1108 782 971 660 1108 b 69 806 193 1108 69 971 b 347 506 69 636 175 542 l 488 476 b 660 300 606 451 660 389 b 446 122 660 194 581 122 b 232 300 313 122 232 194 l 232 325 l 69 325 l 69 303 b 446 -17 69 117 211 -17 b 822 303 682 -17 822 117 z "},"T":{"ha":817,"x_min":0,"x_max":0,"o":"m 21 950 l 328 950 l 328 1 l 489 1 l 489 950 l 796 950 l 796 1090 l 21 1090 z "},"U":{"ha":982,"x_min":0,"x_max":0,"o":"m 492 124 b 251 426 322 124 251 229 l 251 1090 l 90 1090 l 90 406 b 492 -17 90 150 221 -17 b 892 406 763 -17 892 150 l 892 1090 l 731 1090 l 731 426 b 492 124 731 229 660 124 z "},"V":{"ha":946,"x_min":0,"x_max":0,"o":"m 472 197 l 182 1090 l 14 1090 l 378 1 l 568 1 l 932 1090 l 764 1090 z "},"W":{"ha":1460,"x_min":0,"x_max":0,"o":"m 647 1090 l 414 215 l 188 1090 l 21 1090 l 310 1 l 506 1 l 729 831 l 951 1 l 1147 1 l 1438 1090 l 1271 1090 l 1044 215 l 811 1090 z "},"X":{"ha":931,"x_min":0,"x_max":0,"o":"m 907 1 l 564 561 l 885 1090 l 710 1090 l 464 678 l 219 1090 l 44 1090 l 363 561 l 22 1 l 197 1 l 464 444 l 731 1 z "},"Y":{"ha":929,"x_min":0,"x_max":0,"o":"m 464 579 l 190 1090 l 22 1090 l 383 431 l 383 1 l 546 1 l 546 431 l 907 1090 l 738 1090 z "},"Z":{"ha":819,"x_min":0,"x_max":0,"o":"m 56 128 l 56 1 l 764 1 l 764 142 l 250 142 l 757 964 l 757 1090 l 71 1090 l 71 950 l 563 950 z "},"[":{"ha":501,"x_min":0,"x_max":0,"o":"m 111 -143 l 446 -143 l 446 -11 l 264 -11 l 264 1088 l 446 1088 l 446 1219 l 111 1219 z "},"\\":{"ha":1333,"x_min":0,"x_max":0,"o":"m 585 1090 l 749 1090 l 857 597 l 1021 597 l 1125 1090 l 1292 1090 l 1179 597 l 1306 597 l 1306 508 l 1158 508 l 1043 1 l 847 1 l 738 508 l 596 508 l 485 1 l 289 1 l 174 508 l 28 508 l 28 597 l 154 597 l 42 1090 l 208 1090 l 313 597 l 476 597 z m 876 508 l 940 215 l 1003 508 z m 718 597 l 667 831 l 615 597 z m 331 508 l 393 215 l 457 508 z "},"]":{"ha":501,"x_min":0,"x_max":0,"o":"m 390 1219 l 56 1219 l 56 1088 l 239 1088 l 239 -11 l 56 -11 l 56 -143 l 390 -143 z "},"^":{"ha":656,"x_min":0,"x_max":0,"o":"m 626 729 l 394 1090 l 260 1090 l 28 729 l 179 729 l 326 963 l 475 729 z "},"_":{"ha":778,"x_min":0,"x_max":0,"o":"m 0 -260 l 778 -260 l 778 -161 l 0 -161 z "},"`":{"ha":542,"x_min":0,"x_max":0,"o":"m 297 886 l 433 886 l 282 1138 l 108 1138 z "},"a":{"ha":803,"x_min":0,"x_max":0,"o":"m 567 85 b 582 1 567 51 572 22 l 739 1 b 721 108 728 28 721 69 l 721 504 b 399 797 721 682 615 797 b 82 549 200 797 93 703 l 236 549 b 399 671 247 628 299 671 b 567 504 511 671 567 610 l 567 378 b 347 478 539 442 454 478 b 53 231 167 478 53 388 b 347 -17 53 72 167 -17 b 567 85 463 -17 542 24 z m 386 107 b 206 231 268 107 206 149 b 386 354 206 311 268 354 b 568 231 506 354 568 311 b 386 107 568 149 506 107 z "},"b":{"ha":829,"x_min":0,"x_max":0,"o":"m 236 1090 l 83 1090 l 83 1 l 236 1 l 236 122 b 458 -17 267 38 347 -17 b 769 390 650 -17 769 111 b 458 797 769 669 650 797 b 236 658 347 797 267 743 z m 236 390 b 426 669 236 561 283 669 b 617 390 569 669 617 561 b 426 111 617 218 569 111 b 236 390 283 111 236 218 z "},"c":{"ha":786,"x_min":0,"x_max":0,"o":"m 58 390 b 403 -17 58 131 172 -17 b 735 257 594 -17 715 81 l 579 257 b 403 110 569 165 507 110 b 213 390 260 110 213 218 b 403 671 213 563 260 671 b 579 524 507 671 569 615 l 735 524 b 403 797 715 700 594 797 b 58 390 172 797 58 650 z "},"d":{"ha":829,"x_min":0,"x_max":0,"o":"m 592 658 b 369 797 563 743 481 797 b 58 390 178 797 58 669 b 369 -17 58 111 178 -17 b 592 122 481 -17 563 38 l 592 1 l 746 1 l 746 1090 l 592 1090 z m 592 390 b 403 111 592 218 544 111 b 211 390 258 111 211 218 b 403 669 211 561 258 669 b 592 390 544 669 592 561 z "},"e":{"ha":804,"x_min":0,"x_max":0,"o":"m 744 343 b 746 390 746 358 746 374 b 403 797 746 649 632 797 b 58 390 172 797 58 649 b 406 -17 58 131 172 -17 b 729 235 592 -17 704 78 l 572 235 b 406 111 561 158 503 111 b 213 343 275 111 218 197 z m 403 669 b 590 460 525 669 579 590 l 214 460 b 403 669 225 590 278 669 z "},"f":{"ha":532,"x_min":0,"x_max":0,"o":"m 504 975 l 504 1094 b 410 1101 472 1100 442 1101 b 154 871 228 1101 154 1040 l 154 779 l 43 779 l 43 653 l 154 653 l 154 1 l 307 1 l 307 653 l 504 653 l 504 779 l 307 779 l 307 864 b 431 975 307 946 335 975 z "},"g":{"ha":829,"x_min":0,"x_max":0,"o":"m 592 779 l 592 658 b 369 797 563 743 481 797 b 58 390 178 797 58 669 b 369 -17 58 111 178 -17 b 592 122 481 -17 563 38 l 592 -40 b 417 -237 592 -167 538 -237 b 253 -121 322 -237 264 -197 l 96 -121 b 417 -360 117 -269 231 -360 b 746 -28 650 -360 746 -215 l 746 779 z m 592 390 b 403 111 592 218 546 111 b 211 390 258 111 211 218 b 403 669 211 561 258 669 b 592 390 546 669 592 561 z "},"h":{"ha":821,"x_min":0,"x_max":0,"o":"m 740 488 b 469 797 740 686 643 797 b 236 649 351 797 272 739 l 236 1090 l 85 1090 l 85 1 l 236 1 l 236 422 b 432 671 236 583 321 671 b 586 476 532 671 586 611 l 586 1 l 740 1 z "},"i":{"ha":333,"x_min":0,"x_max":0,"o":"m 243 1 l 243 779 l 89 779 l 89 1 z m 243 926 l 243 1090 l 89 1090 l 89 926 z "},"j":{"ha":354,"x_min":0,"x_max":0,"o":"m 264 779 l 110 779 l 110 -96 b 7 -208 110 -176 75 -208 l -44 -208 l -44 -333 b 21 -337 -28 -336 3 -337 b 264 -103 182 -337 264 -258 z m 264 926 l 264 1090 l 110 1090 l 110 926 z "},"k":{"ha":742,"x_min":0,"x_max":0,"o":"m 236 1 l 236 346 l 313 346 l 558 1 l 735 1 l 440 406 l 699 779 l 528 779 l 315 468 l 236 468 l 236 1090 l 83 1090 l 83 1 z "},"l":{"ha":333,"x_min":0,"x_max":0,"o":"m 243 1 l 243 1090 l 90 1090 l 90 1 z "},"m":{"ha":1275,"x_min":0,"x_max":0,"o":"m 717 422 b 901 671 717 585 793 671 b 1042 504 993 671 1042 617 l 1042 1 l 1196 1 l 1196 499 b 936 797 1196 688 1103 797 b 692 642 818 797 735 747 b 458 797 658 740 574 797 b 236 651 343 797 271 740 l 236 779 l 85 779 l 85 1 l 236 1 l 236 424 b 422 671 236 588 314 671 b 563 504 515 671 563 617 l 563 1 l 717 1 z "},"n":{"ha":821,"x_min":0,"x_max":0,"o":"m 740 488 b 469 797 740 686 643 797 b 236 649 351 797 272 739 l 236 779 l 85 779 l 85 1 l 236 1 l 236 422 b 432 671 236 583 321 671 b 586 476 532 671 586 611 l 586 1 l 740 1 z "},"o":{"ha":804,"x_min":0,"x_max":0,"o":"m 403 110 b 213 390 260 110 213 218 b 403 671 213 563 260 671 b 593 390 546 671 593 563 b 403 110 593 218 546 110 z m 403 797 b 58 390 172 797 58 650 b 403 -17 58 131 172 -17 b 746 390 632 -17 746 131 b 403 797 746 650 632 797 z "},"p":{"ha":829,"x_min":0,"x_max":0,"o":"m 236 779 l 85 779 l 85 -337 l 236 -337 l 236 122 b 460 -17 267 38 349 -17 b 771 390 651 -17 771 111 b 460 797 771 669 651 797 b 236 658 349 797 267 743 z m 428 110 b 236 390 283 110 236 218 b 428 671 236 563 283 671 b 617 390 569 671 617 563 b 428 110 617 218 569 110 z "},"q":{"ha":829,"x_min":0,"x_max":0,"o":"m 593 658 b 371 797 563 743 481 797 b 58 390 179 797 58 669 b 371 -17 58 111 179 -17 b 593 122 481 -17 563 38 l 593 -337 l 746 -337 l 746 779 l 593 779 z m 403 110 b 213 390 260 110 213 218 b 403 671 213 563 260 671 b 593 390 546 671 593 563 b 403 110 593 218 546 110 z "},"r":{"ha":536,"x_min":0,"x_max":0,"o":"m 447 669 b 513 667 475 669 500 668 l 515 792 b 451 797 501 796 475 797 b 236 649 332 797 269 747 l 236 779 l 85 779 l 85 1 l 236 1 l 236 400 b 447 669 236 578 317 669 z "},"s":{"ha":729,"x_min":0,"x_max":0,"o":"m 356 797 b 65 569 172 797 65 703 b 310 343 65 440 142 372 b 522 214 450 314 522 304 b 368 106 522 149 460 106 b 213 218 275 106 213 147 l 213 240 l 60 240 l 60 218 b 368 -17 60 82 182 -17 b 675 218 556 -17 675 85 b 431 456 675 353 599 425 b 217 572 286 486 217 488 b 356 675 217 628 264 675 b 493 571 446 675 493 628 l 493 551 l 646 551 l 646 569 b 356 797 646 706 538 797 z "},"t":{"ha":558,"x_min":0,"x_max":0,"o":"m 300 653 l 511 653 l 511 779 l 300 779 l 300 1000 l 147 1000 l 147 779 l 35 779 l 35 653 l 147 653 l 147 210 b 407 -10 147 43 225 -10 b 511 -6 440 -10 486 -10 l 511 117 l 433 117 b 300 238 336 117 300 140 z "},"u":{"ha":821,"x_min":0,"x_max":0,"o":"m 81 293 b 350 -17 81 94 178 -17 b 583 132 468 -17 547 42 l 583 1 l 736 1 l 736 779 l 583 779 l 583 358 b 388 110 583 197 500 110 b 233 304 288 110 233 169 l 233 779 l 81 779 z "},"v":{"ha":790,"x_min":0,"x_max":0,"o":"m 607 779 l 394 169 l 182 779 l 21 779 l 306 1 l 483 1 l 768 779 z "},"w":{"ha":1242,"x_min":0,"x_max":0,"o":"m 543 779 l 357 181 l 179 779 l 21 779 l 272 1 l 438 1 l 621 606 l 804 1 l 968 1 l 1221 779 l 1063 779 l 883 181 l 699 779 z "},"x":{"ha":736,"x_min":0,"x_max":0,"o":"m 722 1 l 460 400 l 707 779 l 540 779 l 367 506 l 196 779 l 26 779 l 275 400 l 11 1 l 178 1 l 367 293 l 557 1 z "},"y":{"ha":792,"x_min":0,"x_max":0,"o":"m 276 -124 b 167 -211 251 -194 217 -211 l 115 -211 l 115 -336 b 179 -337 133 -337 158 -337 b 415 -171 294 -337 364 -308 l 769 779 l 610 779 l 399 190 l 182 779 l 22 779 l 321 -1 z "},"z":{"ha":692,"x_min":0,"x_max":0,"o":"m 631 779 l 64 779 l 64 653 l 440 653 l 51 115 l 51 1 l 642 1 l 642 128 l 242 128 l 631 665 z "},"{":{"ha":528,"x_min":0,"x_max":0,"o":"m 56 471 l 85 471 b 179 363 149 471 179 429 l 179 96 b 424 -143 179 -72 261 -143 l 472 -143 l 472 -10 l 440 -10 b 332 117 367 -10 332 36 l 332 381 b 225 538 332 458 300 517 b 332 694 300 558 332 617 l 332 960 b 440 1086 332 1043 365 1086 l 472 1086 l 472 1219 l 424 1219 b 179 981 261 1219 179 1147 l 179 711 b 85 604 179 646 150 604 l 56 604 z "},"|":{"ha":431,"x_min":0,"x_max":0,"o":"m 139 -143 l 292 -143 l 292 1219 l 139 1219 z "},"}":{"ha":528,"x_min":0,"x_max":0,"o":"m 472 604 l 440 604 b 347 711 375 604 347 646 l 347 981 b 104 1219 347 1147 267 1219 l 56 1219 l 56 1086 l 86 1086 b 193 960 158 1086 193 1040 l 193 694 b 301 538 193 617 228 558 b 193 381 229 518 193 457 l 193 117 b 86 -10 193 33 161 -10 l 56 -10 l 56 -143 l 104 -143 b 347 96 267 -143 347 -72 l 347 363 b 440 471 347 429 376 471 l 472 471 z "},"~":{"ha":808,"x_min":0,"x_max":0,"o":"m 533 390 b 729 619 664 390 728 486 l 585 619 b 515 519 582 550 558 519 b 275 628 440 519 417 628 b 81 400 144 628 82 533 l 225 400 b 293 499 226 469 250 499 b 533 390 368 499 392 390 z "},"　":{"ha":1333,"x_min":0,"x_max":0,"o":""},"ㅤ":{"ha":1333,"x_min":0,"x_max":0,"o":""},"…":{"ha":1333,"x_min":0,"x_max":0,"o":"m 1154 683 l 1154 497 l 990 497 l 990 683 z m 342 683 l 342 497 l 178 497 l 178 683 z m 747 683 l 747 497 l 583 497 l 583 683 z "},"¨":{"ha":833,"x_min":0,"x_max":0,"o":"m 338 1093 l 338 906 l 174 906 l 174 1093 z m 657 1093 l 657 906 l 493 906 l 493 1093 z "},"〃":{"ha":1333,"x_min":0,"x_max":0,"o":"m 515 921 l 653 867 l 382 228 l 288 265 z m 907 915 l 1044 861 l 774 222 l 679 260 z "},"＼":{"ha":1333,"x_min":0,"x_max":0,"o":"m 1289 31 l 1200 -62 l 44 1056 l 135 1149 z "},"‘":{"ha":408,"x_min":0,"x_max":0,"o":"m 297 1211 l 297 1135 b 207 1028 228 1132 207 1097 l 290 1028 l 290 842 l 119 842 l 119 1038 b 297 1211 119 1140 181 1204 z "},"’":{"ha":408,"x_min":0,"x_max":0,"o":"m 110 842 l 110 918 b 200 1025 179 921 200 956 l 117 1025 l 117 1211 l 288 1211 l 288 1015 b 110 842 288 913 226 849 z "},"“":{"ha":660,"x_min":0,"x_max":0,"o":"m 550 1211 l 550 1135 b 460 1028 481 1132 460 1097 l 543 1028 l 543 842 l 372 842 l 372 1038 b 550 1211 372 1140 433 1204 z m 294 1211 l 294 1135 b 204 1028 225 1132 204 1097 l 288 1028 l 288 842 l 117 842 l 117 1038 b 294 1211 117 1140 178 1204 z "},"”":{"ha":660,"x_min":0,"x_max":0,"o":"m 110 842 l 110 918 b 200 1025 179 921 200 956 l 117 1025 l 117 1211 l 288 1211 l 288 1015 b 110 842 288 913 226 849 z m 365 842 l 365 918 b 456 1025 435 921 456 956 l 372 1025 l 372 1211 l 543 1211 l 543 1015 b 365 842 543 913 482 849 z "},"±":{"ha":814,"x_min":0,"x_max":0,"o":"m 68 564 l 68 689 l 336 689 l 336 965 l 478 965 l 478 689 l 746 689 l 746 564 l 478 564 l 478 289 l 336 289 l 336 564 z m 68 68 l 68 194 l 746 194 l 746 68 z "},"×":{"ha":814,"x_min":0,"x_max":0,"o":"m 622 193 l 406 414 l 190 193 l 96 285 l 314 507 l 96 729 l 190 822 l 406 601 l 622 822 l 717 729 l 500 507 l 717 285 z "},"÷":{"ha":814,"x_min":0,"x_max":0,"o":"m 68 444 l 68 571 l 746 571 l 746 444 z m 486 860 l 486 683 l 328 683 l 328 860 z m 486 332 l 486 156 l 328 156 l 328 332 z "},"≠":{"ha":814,"x_min":0,"x_max":0,"o":"m 68 585 l 68 711 l 467 711 l 574 899 l 685 899 l 578 711 l 746 711 l 746 585 l 506 585 l 418 431 l 746 431 l 746 304 l 347 304 l 240 118 l 129 118 l 235 304 l 68 304 l 68 431 l 307 431 l 394 585 z "},"≤":{"ha":814,"x_min":0,"x_max":0,"o":"m 67 69 l 67 194 l 746 194 l 746 69 z m 733 972 l 733 829 l 251 626 l 733 422 l 733 281 l 79 563 l 79 689 z "},"≥":{"ha":814,"x_min":0,"x_max":0,"o":"m 746 194 l 746 69 l 67 69 l 67 194 z m 79 281 l 79 422 l 561 626 l 79 829 l 79 972 l 733 689 l 733 563 z "},"∞":{"ha":1333,"x_min":0,"x_max":0,"o":"m 586 517 b 410 636 532 606 472 636 b 286 517 340 636 286 593 b 410 396 286 439 340 396 b 586 517 472 396 532 426 z m 744 517 b 922 396 799 426 858 396 b 1046 517 990 396 1046 439 b 922 636 1046 593 990 636 b 744 517 858 636 799 606 z m 665 438 b 403 279 597 329 501 279 b 150 517 247 279 150 371 b 403 753 150 661 247 753 b 665 594 501 753 597 703 b 928 753 733 703 829 753 b 1182 517 1083 753 1182 661 b 928 279 1182 371 1083 279 b 665 438 829 279 733 329 z "},"∴":{"ha":1333,"x_min":0,"x_max":0,"o":"m 1101 322 l 1101 136 l 938 136 l 938 322 z m 393 322 l 393 136 l 229 136 l 229 322 z m 747 975 l 747 789 l 583 789 l 583 975 z "},"°":{"ha":556,"x_min":0,"x_max":0,"o":"m 489 893 b 276 681 489 769 408 681 b 65 893 146 681 65 769 b 276 1106 65 1015 146 1106 b 489 893 408 1106 489 1015 z m 376 893 b 276 1000 376 958 335 1000 b 178 893 219 1000 178 958 b 276 785 178 826 219 785 b 376 893 335 785 376 826 z "},"′":{"ha":303,"x_min":0,"x_max":0,"o":"m 160 743 l 36 743 l 113 1093 l 267 1093 z "},"″":{"ha":535,"x_min":0,"x_max":0,"o":"m 160 743 l 36 743 l 113 1093 l 267 1093 z m 392 743 l 269 743 l 346 1093 l 499 1093 z "},"℃":{"ha":1333,"x_min":0,"x_max":0,"o":"m 461 907 b 257 708 461 794 379 708 b 53 907 135 708 53 794 b 257 1106 53 1018 135 1106 b 461 907 379 1106 461 1018 z m 350 907 b 257 1000 350 964 311 1000 b 164 907 203 1000 164 964 b 257 813 164 849 203 813 b 350 907 311 813 350 849 z m 888 -19 b 633 61 779 -19 696 10 b 476 546 519 156 476 329 b 622 1018 476 753 518 921 b 888 1111 686 1078 772 1111 b 1288 728 1131 1111 1275 956 l 1126 728 b 888 971 1117 876 1036 971 b 732 914 821 971 769 951 b 639 546 664 846 639 719 b 735 175 639 367 667 242 b 888 121 772 139 822 121 b 1126 363 1036 121 1117 214 l 1288 363 b 888 -19 1275 133 1131 -19 z "},"Å":{"ha":1333,"x_min":0,"x_max":0,"o":"m 782 1028 l 1128 0 l 960 0 l 883 240 l 449 240 l 372 0 l 204 0 l 551 1028 b 461 1192 496 1061 461 1121 b 665 1388 461 1303 544 1388 b 871 1192 788 1388 871 1303 b 782 1028 871 1121 838 1063 z m 492 379 l 839 379 l 667 929 z m 758 1192 b 665 1282 758 1247 721 1282 b 574 1192 613 1282 574 1247 b 665 1101 574 1136 613 1101 b 758 1192 721 1101 758 1136 z "},"￠":{"ha":1333,"x_min":0,"x_max":0,"o":"m 326 389 b 619 794 326 626 422 772 l 619 919 l 721 919 l 721 794 b 1006 522 888 779 989 682 l 851 522 b 721 667 842 599 796 651 l 721 110 b 851 256 796 125 842 176 l 1006 256 b 721 -17 989 94 888 -1 l 721 -139 l 619 -139 l 619 -17 b 326 389 422 4 326 151 z m 479 389 b 619 113 479 235 517 136 l 619 665 b 479 389 517 642 479 542 z "},"￡":{"ha":1333,"x_min":0,"x_max":0,"o":"m 324 557 l 403 557 b 358 797 381 625 358 696 b 678 1111 358 969 467 1111 b 996 797 889 1111 996 969 l 996 769 l 838 769 l 838 796 b 678 971 838 900 782 971 b 518 796 569 971 518 901 b 560 557 518 686 540 624 l 833 557 l 833 442 l 579 442 b 581 404 579 429 581 417 b 479 136 581 290 546 203 l 1008 136 l 1008 0 l 328 0 l 328 124 b 426 399 390 194 426 293 b 424 442 426 414 425 428 l 324 442 z "},"￥":{"ha":1333,"x_min":0,"x_max":0,"o":"m 358 575 l 532 575 l 221 1093 l 393 1093 l 665 617 l 938 1093 l 1111 1093 l 799 575 l 972 575 l 972 485 l 750 485 l 747 474 l 747 399 l 972 399 l 972 308 l 747 308 l 747 0 l 585 0 l 585 308 l 358 308 l 358 399 l 585 399 l 585 474 l 582 485 l 358 485 z "},"♂":{"ha":1333,"x_min":0,"x_max":0,"o":"m 283 706 l 667 1222 l 1050 706 l 958 638 l 728 961 l 728 567 b 1007 232 890 540 1007 403 b 667 -103 1007 46 856 -103 b 326 232 476 -103 326 46 b 606 567 326 403 443 540 l 606 961 l 375 639 z m 457 232 b 667 11 457 108 544 11 b 876 232 789 11 876 108 b 667 457 876 358 789 457 b 457 232 544 457 457 358 z "},"♀":{"ha":1333,"x_min":0,"x_max":0,"o":"m 279 772 b 667 1158 279 988 451 1158 b 1054 772 883 1158 1054 988 b 728 389 1054 574 906 414 l 728 232 l 911 232 l 911 122 l 728 122 l 728 -79 l 604 -79 l 604 122 l 422 122 l 422 232 l 604 232 l 604 389 b 279 772 421 415 279 574 z m 410 772 b 667 500 410 622 519 500 b 924 772 814 500 924 622 b 667 1044 924 924 814 1044 b 410 772 519 1044 410 924 z "},"∠":{"ha":1333,"x_min":0,"x_max":0,"o":"m 1108 936 l 367 207 l 1192 207 l 1192 85 l 140 85 l 140 164 l 1013 1021 z "},"⊥":{"ha":1333,"x_min":0,"x_max":0,"o":"m 738 206 l 1190 206 l 1190 83 l 142 83 l 142 206 l 596 206 l 596 1056 l 738 1056 z "},"⌒":{"ha":1333,"x_min":0,"x_max":0,"o":"m 38 926 b 667 1193 193 1089 407 1193 b 1297 926 928 1193 1140 1088 l 1228 831 b 667 1064 1083 974 897 1064 b 107 829 438 1064 249 974 z "},"∂":{"ha":1333,"x_min":0,"x_max":0,"o":"m 533 838 l 372 838 b 713 1111 415 1014 539 1111 b 1028 676 922 1111 1028 985 b 619 -19 1028 203 910 -19 b 304 315 432 -19 304 103 b 656 708 304 560 451 708 b 868 596 761 708 839 664 b 872 700 871 633 872 668 b 704 978 872 896 817 978 b 533 838 617 978 556 926 z m 635 114 b 847 375 763 114 847 217 b 675 575 847 501 783 575 b 460 310 532 575 460 456 b 635 114 460 185 525 114 z "},"∇":{"ha":1333,"x_min":0,"x_max":0,"o":"m 760 0 l 574 0 l 204 1093 l 1128 1093 z m 667 163 l 917 954 l 415 954 z "},"≡":{"ha":814,"x_min":0,"x_max":0,"o":"m 68 696 l 68 822 l 746 822 l 746 696 z m 68 194 l 68 321 l 746 321 l 746 194 z m 68 444 l 68 571 l 746 571 l 746 444 z "},"≒":{"ha":814,"x_min":0,"x_max":0,"o":"m 68 571 l 68 697 l 746 697 l 746 571 z m 68 318 l 68 444 l 746 444 l 746 318 z m 653 208 l 653 24 l 488 24 l 488 208 z m 328 990 l 328 807 l 163 807 l 163 990 z "},"§":{"ha":1333,"x_min":0,"x_max":0,"o":"m 658 1015 b 519 892 574 1015 519 968 b 665 750 519 819 561 774 b 981 457 868 703 981 632 b 851 246 981 367 938 290 b 965 39 932 197 965 133 b 674 -206 965 -107 851 -206 b 381 38 496 -206 381 -107 l 381 50 l 535 50 l 535 40 b 674 -83 535 -33 594 -83 b 813 40 757 -83 813 -36 b 656 182 813 114 764 154 b 351 472 457 233 351 296 b 478 685 351 563 394 639 b 365 893 397 732 365 797 b 658 1139 365 1039 479 1139 b 950 894 836 1139 950 1039 l 950 882 l 796 882 l 796 892 b 658 1015 796 964 735 1015 z m 504 482 b 729 300 504 371 560 342 b 826 449 797 331 826 386 b 601 629 826 553 771 594 b 504 482 533 600 504 544 z "},"※":{"ha":1333,"x_min":0,"x_max":0,"o":"m 1183 976 l 751 543 l 1183 111 l 1100 26 l 667 460 l 235 26 l 150 111 l 583 543 l 150 976 l 235 1061 l 667 628 l 1100 1061 z m 783 967 b 665 849 783 901 732 849 b 547 967 600 849 547 901 b 665 1085 547 1033 600 1085 b 783 967 732 1085 783 1033 z m 783 125 b 665 7 783 58 732 7 b 547 125 600 7 547 58 b 665 243 547 190 600 243 b 783 125 732 243 783 190 z m 1203 543 b 1085 425 1203 478 1150 425 b 967 543 1018 425 967 478 b 1085 661 967 610 1018 661 b 1203 543 1150 661 1203 610 z m 365 543 b 247 425 365 478 313 425 b 129 543 182 425 129 478 b 247 661 129 610 182 661 b 365 543 313 661 365 610 z "},"☆":{"ha":1333,"x_min":0,"x_max":0,"o":"m 500 746 l 644 1190 l 688 1190 l 832 746 l 1282 746 l 1292 706 l 926 438 l 1106 -33 l 1074 -60 l 667 250 l 257 -60 l 224 -35 l 406 438 l 40 706 l 51 746 z m 571 650 l 240 660 l 524 475 l 376 138 l 667 367 l 956 132 l 804 479 l 1086 665 l 764 656 l 667 975 z "},"★":{"ha":1333,"x_min":0,"x_max":0,"o":"m 500 746 l 651 1190 l 682 1190 l 832 746 l 1282 746 l 1290 717 l 926 438 l 1103 -40 l 1081 -60 l 667 250 l 251 -60 l 226 -42 l 406 438 l 42 717 l 50 746 z "},"○":{"ha":1333,"x_min":0,"x_max":0,"o":"m 1278 540 b 667 -71 1278 200 1008 -71 b 54 540 322 -71 54 200 b 667 1153 54 881 325 1153 b 1278 540 1006 1153 1278 879 z m 174 540 b 667 39 174 264 388 39 b 1161 540 947 39 1161 264 b 667 1042 1161 818 947 1042 b 174 540 388 1042 174 818 z "},"●":{"ha":1333,"x_min":0,"x_max":0,"o":"m 1278 540 b 667 -71 1278 200 1008 -71 b 54 540 322 -71 54 200 b 667 1153 54 881 325 1153 b 1278 540 1006 1153 1278 879 z "},"◎":{"ha":1333,"x_min":0,"x_max":0,"o":"m 257 540 b 667 951 257 772 439 951 b 1075 540 894 951 1075 772 b 667 131 1075 308 894 131 b 257 540 439 131 257 308 z m 975 540 b 667 860 975 728 847 860 b 358 540 486 860 358 728 b 667 221 358 353 486 221 b 975 540 847 221 975 353 z m 161 540 b 667 24 161 254 379 24 b 1174 540 954 24 1174 254 b 667 1057 1174 826 954 1057 b 161 540 379 1057 161 826 z m 1278 540 b 667 -71 1278 200 1010 -71 b 54 540 319 -71 54 200 b 667 1153 54 882 324 1153 b 1278 540 1008 1153 1278 881 z "},"◇":{"ha":1333,"x_min":0,"x_max":0,"o":"m 667 1208 l 1306 540 l 667 -126 l 28 540 z m 667 1051 l 178 540 l 667 31 l 1153 540 z "},"◆":{"ha":1333,"x_min":0,"x_max":0,"o":"m 667 1208 l 1306 540 l 667 -126 l 28 540 z "},"□":{"ha":1333,"x_min":0,"x_max":0,"o":"m 1193 22 l 139 22 l 139 1067 l 1193 1067 z m 258 132 l 1074 132 l 1074 957 l 258 957 z "},"■":{"ha":1333,"x_min":0,"x_max":0,"o":"m 1193 22 l 139 22 l 139 1067 l 1193 1067 z "},"△":{"ha":1333,"x_min":0,"x_max":0,"o":"m 667 1119 l 1296 28 l 36 28 z m 667 903 l 228 133 l 1104 133 z "},"▲":{"ha":1333,"x_min":0,"x_max":0,"o":"m 667 1119 l 1296 28 l 36 28 z "},"▽":{"ha":1333,"x_min":0,"x_max":0,"o":"m 1296 1064 l 667 -28 l 36 1064 z m 228 958 l 667 189 l 1104 958 z "},"▼":{"ha":1333,"x_min":0,"x_max":0,"o":"m 1296 1064 l 667 -28 l 36 1064 z "},"→":{"ha":1333,"x_min":0,"x_max":0,"o":"m 50 450 l 50 583 l 968 583 l 968 747 l 1282 518 l 968 286 l 968 450 z "},"←":{"ha":1333,"x_min":0,"x_max":0,"o":"m 1282 583 l 1282 450 l 363 450 l 363 286 l 50 518 l 363 747 l 363 583 z "},"↑":{"ha":1333,"x_min":0,"x_max":0,"o":"m 732 -61 l 599 -61 l 599 858 l 435 858 l 667 1171 l 896 858 l 732 858 z "},"↓":{"ha":1333,"x_min":0,"x_max":0,"o":"m 599 1171 l 732 1171 l 732 253 l 896 253 l 667 -61 l 435 253 l 599 253 z "},"↔":{"ha":1333,"x_min":0,"x_max":0,"o":"m 363 450 l 363 286 l 50 518 l 363 747 l 363 583 l 969 583 l 969 747 l 1282 518 l 969 286 l 969 450 z "},"√":{"ha":1333,"x_min":0,"x_max":0,"o":"m 853 1042 l 497 -172 l 329 -172 l 47 411 l 218 411 l 399 21 l 729 1171 l 1272 1171 l 1272 1042 z "},"∽":{"ha":1333,"x_min":0,"x_max":0,"o":"m 715 474 b 403 279 628 346 522 279 b 150 517 247 279 150 371 b 403 753 150 661 247 753 b 519 728 443 753 482 744 l 476 624 b 410 636 454 632 432 636 b 286 517 340 636 286 593 b 410 396 286 439 340 396 b 618 556 474 396 551 457 b 928 753 703 682 808 753 b 1182 517 1083 753 1182 661 b 928 279 1182 371 1083 279 b 794 313 882 279 836 290 l 847 413 b 922 396 872 400 896 396 b 1046 517 990 396 1046 439 b 922 636 1046 593 990 636 b 715 474 854 636 786 578 z "},"∝":{"ha":1333,"x_min":0,"x_max":0,"o":"m 586 517 b 410 636 532 606 472 636 b 286 517 340 636 286 593 b 410 396 286 439 340 396 b 586 517 472 396 532 426 z m 1007 424 l 1081 319 b 928 279 1040 293 989 279 b 665 438 829 279 733 329 b 403 279 597 329 501 279 b 150 517 247 279 150 371 b 403 753 150 661 247 753 b 665 594 501 753 597 703 b 928 754 733 703 829 754 b 1060 725 979 754 1024 743 l 997 615 b 922 636 976 628 950 636 b 744 517 858 636 799 606 b 922 396 799 426 858 396 b 1007 424 954 396 985 406 z "},"∵":{"ha":1333,"x_min":0,"x_max":0,"o":"m 1101 975 l 1101 789 l 938 789 l 938 975 z m 393 975 l 393 789 l 229 789 l 229 975 z m 747 322 l 747 136 l 583 136 l 583 322 z "},"∫":{"ha":1333,"x_min":0,"x_max":0,"o":"m 389 -44 l 464 -44 b 589 69 560 -44 589 -17 l 589 985 b 847 1217 589 1154 663 1217 b 943 1210 879 1217 911 1215 l 943 1090 l 868 1090 b 743 976 772 1090 743 1061 l 743 61 b 485 -169 743 -108 669 -169 b 389 -164 453 -169 419 -168 z "},"∬":{"ha":1333,"x_min":0,"x_max":0,"o":"m 167 -44 l 242 -44 b 367 69 338 -44 367 -17 l 367 985 b 625 1217 367 1154 440 1217 b 721 1210 657 1217 689 1215 l 721 1090 l 646 1090 b 521 976 550 1090 521 1061 l 521 61 b 263 -169 521 -108 447 -169 b 167 -164 231 -169 197 -168 z m 611 -44 l 686 -44 b 811 69 782 -44 811 -17 l 811 985 b 1069 1217 811 1154 885 1217 b 1165 1210 1101 1217 1133 1215 l 1165 1090 l 1090 1090 b 965 976 994 1090 965 1061 l 965 61 b 707 -169 965 -108 892 -169 b 611 -164 675 -169 642 -168 z "},"∈":{"ha":1333,"x_min":0,"x_max":0,"o":"m 1169 474 l 286 474 b 685 222 308 318 429 222 l 1169 222 l 1169 89 l 682 89 b 133 539 360 89 133 225 b 682 989 133 851 360 989 l 1169 989 l 1169 854 l 685 854 b 286 607 432 854 310 760 l 1169 607 z "},"∋":{"ha":1333,"x_min":0,"x_max":0,"o":"m 1046 474 l 161 474 l 161 607 l 1044 607 b 646 854 1022 760 899 854 l 161 854 l 161 989 l 649 989 b 1197 539 971 989 1197 851 b 649 89 1197 225 971 89 l 161 89 l 161 222 l 646 222 b 1046 474 901 222 1024 318 z "},"⊆":{"ha":1333,"x_min":0,"x_max":0,"o":"m 164 125 l 1175 125 l 1175 -3 l 164 -3 z m 275 699 b 631 451 275 531 386 451 l 1165 451 l 1165 319 l 628 319 b 129 699 328 319 129 433 b 628 1076 129 964 328 1076 l 1165 1076 l 1165 944 l 631 944 b 275 699 386 944 275 865 z "},"⊇":{"ha":1333,"x_min":0,"x_max":0,"o":"m 157 125 l 1168 125 l 1168 -3 l 157 -3 z m 1057 699 b 701 944 1057 865 946 944 l 167 944 l 167 1076 l 704 1076 b 1203 699 1004 1076 1203 964 b 704 319 1203 433 1004 319 l 167 319 l 167 451 l 701 451 b 1057 699 946 451 1057 531 z "},"⊂":{"ha":1333,"x_min":0,"x_max":0,"o":"m 281 539 b 686 222 281 350 394 222 l 1169 222 l 1169 89 l 683 89 b 135 539 361 89 135 226 b 683 989 135 851 361 989 l 1169 989 l 1169 854 l 686 854 b 281 539 394 854 281 728 z "},"⊃":{"ha":1333,"x_min":0,"x_max":0,"o":"m 1051 539 b 646 854 1051 728 938 854 l 161 854 l 161 989 l 649 989 b 1197 539 971 989 1197 851 b 649 89 1197 226 971 89 l 161 89 l 161 222 l 646 222 b 1051 539 938 222 1051 350 z "},"∪":{"ha":1333,"x_min":0,"x_max":0,"o":"m 665 114 b 968 544 847 114 968 246 l 968 1029 l 1115 1029 l 1115 542 b 665 -7 1115 219 978 -7 b 215 542 353 -7 215 219 l 215 1029 l 364 1029 l 364 544 b 665 114 364 246 485 114 z "},"∩":{"ha":1333,"x_min":0,"x_max":0,"o":"m 665 938 b 364 507 485 938 364 806 l 364 22 l 215 22 l 215 510 b 665 1058 215 832 353 1058 b 1115 510 978 1058 1115 832 l 1115 22 l 968 22 l 968 507 b 665 938 968 806 847 938 z "},"∧":{"ha":1333,"x_min":0,"x_max":0,"o":"m 140 58 l 638 1075 l 694 1075 l 1192 58 l 1065 -4 l 665 836 l 268 -4 z "},"∨":{"ha":1333,"x_min":0,"x_max":0,"o":"m 638 -15 l 140 1001 l 269 1064 l 665 224 l 1065 1064 l 1192 1001 l 694 -15 z "},"￢":{"ha":1333,"x_min":0,"x_max":0,"o":"m 182 600 l 182 732 l 1149 732 l 1149 257 l 997 257 l 997 600 z "},"⇒":{"ha":1333,"x_min":0,"x_max":0,"o":"m 56 421 l 993 421 l 1107 514 l 997 599 l 56 599 l 56 710 l 854 710 l 707 825 l 779 911 l 1276 514 l 781 103 l 707 190 l 857 311 l 56 311 z "},"⇔":{"ha":1333,"x_min":0,"x_max":0,"o":"m 914 311 l 417 311 l 554 189 l 481 104 l 26 514 l 482 910 l 554 826 l 419 710 l 911 710 l 778 826 l 850 910 l 1306 514 l 851 104 l 778 189 z m 1039 599 l 292 599 l 193 514 l 296 421 l 1036 421 l 1139 514 z "},"∀":{"ha":1333,"x_min":0,"x_max":0,"o":"m 760 0 l 574 0 l 204 1093 l 372 1093 l 450 851 l 883 851 l 960 1093 l 1128 1093 z m 492 713 l 667 163 l 840 713 z "},"∃":{"ha":1333,"x_min":0,"x_max":0,"o":"m 981 1093 l 981 -1 l 332 -1 l 332 139 l 818 139 l 818 463 l 388 463 l 388 603 l 818 603 l 818 954 l 324 954 l 324 1093 z "},"´":{"ha":543,"x_min":0,"x_max":0,"o":"m 435 1140 l 244 888 l 108 888 l 261 1140 z "},"ˇ":{"ha":567,"x_min":0,"x_max":0,"o":"m 349 888 l 217 888 l 32 1140 l 168 1140 l 283 999 l 399 1140 l 535 1140 z "},"˘":{"ha":564,"x_min":0,"x_max":0,"o":"m 282 893 b 42 1126 143 893 50 978 l 175 1126 b 282 1006 179 1043 218 1006 b 389 1126 346 1006 385 1043 l 521 1126 b 282 893 514 978 421 893 z "},"˝":{"ha":574,"x_min":0,"x_max":0,"o":"m 556 1140 l 358 886 l 235 886 l 399 1140 z m 307 1140 l 142 886 l 17 886 l 150 1140 z "},"˚":{"ha":543,"x_min":0,"x_max":0,"o":"m 440 1013 b 272 850 440 910 368 850 b 103 1013 175 850 103 910 b 272 1175 103 1117 175 1175 b 440 1013 368 1175 440 1117 z m 338 1013 b 272 1086 338 1058 313 1086 b 204 1013 231 1086 204 1058 b 272 940 204 968 231 940 b 338 1013 313 940 338 968 z "},"˙":{"ha":519,"x_min":0,"x_max":0,"o":"m 340 1092 l 340 926 l 178 926 l 178 1092 z "},"¸":{"ha":547,"x_min":0,"x_max":0,"o":"m 92 -318 l 138 -232 b 253 -271 171 -258 213 -271 b 333 -214 308 -271 333 -250 b 242 -150 333 -172 301 -150 b 179 -160 225 -150 194 -153 l 154 -129 l 217 0 l 331 0 l 292 -78 b 454 -218 390 -89 454 -128 b 264 -371 454 -311 381 -371 b 92 -318 197 -371 135 -349 z "},"˛":{"ha":547,"x_min":0,"x_max":0,"o":"m 214 -1 l 339 -1 b 213 -161 251 -50 213 -111 l 213 -168 b 300 -240 213 -208 242 -240 b 400 -204 339 -240 374 -228 l 453 -283 b 289 -342 414 -324 354 -342 b 94 -189 168 -342 94 -286 l 94 -178 b 214 -1 94 -110 140 -40 z "},"¡":{"ha":433,"x_min":0,"x_max":0,"o":"m 138 -126 l 154 469 l 279 469 l 293 -126 l 293 -312 l 138 -312 z m 138 614 l 138 781 l 294 781 l 294 614 z "},"¿":{"ha":801,"x_min":0,"x_max":0,"o":"m 83 -24 b 219 253 83 99 125 169 b 335 457 311 333 335 376 l 335 494 l 488 494 l 488 446 b 347 179 488 335 458 275 b 238 -21 264 106 238 57 b 404 -199 238 -132 304 -199 b 571 -18 504 -199 571 -128 l 724 -18 l 724 -24 b 404 -332 724 -201 610 -332 b 83 -24 197 -332 83 -201 z m 333 614 l 333 781 l 489 781 l 489 614 z "},"∮":{"ha":1333,"x_min":0,"x_max":0,"o":"m 372 517 b 588 786 372 651 463 756 l 588 985 b 846 1217 588 1154 661 1217 b 942 1210 878 1217 910 1215 l 942 1090 l 867 1090 b 742 976 771 1090 742 1058 l 742 786 b 960 517 868 757 960 653 b 742 246 960 381 868 276 l 742 61 b 483 -171 742 -108 668 -171 b 388 -165 451 -171 418 -169 l 388 -44 l 463 -44 b 588 69 558 -44 588 -17 l 588 247 b 372 517 463 278 372 382 z m 839 517 b 742 669 839 589 801 644 l 742 365 b 839 517 801 389 839 444 z m 493 517 b 588 365 493 447 531 392 l 588 668 b 493 517 531 643 493 588 z "},"∑":{"ha":1333,"x_min":0,"x_max":0,"o":"m 307 28 l 564 488 l 307 954 l 307 1093 l 1025 1093 l 1025 953 l 488 953 l 729 508 l 729 464 l 489 33 l 1025 33 l 1025 -104 l 307 -104 z "},"∏":{"ha":1333,"x_min":0,"x_max":0,"o":"m 885 -104 l 885 953 l 449 953 l 449 -104 l 286 -104 l 286 1093 l 1046 1093 l 1046 -104 z "},"¤":{"ha":979,"x_min":0,"x_max":0,"o":"m 835 508 b 771 314 835 433 811 367 l 915 169 l 815 69 l 667 217 b 489 169 615 186 554 169 b 310 217 424 169 363 186 l 163 69 l 63 169 l 207 314 b 144 508 168 367 144 433 b 207 701 144 583 168 649 l 63 847 l 163 947 l 310 797 b 489 847 363 829 424 847 b 667 797 554 847 615 829 l 815 947 l 915 847 l 771 701 b 835 508 811 649 835 583 z m 693 508 b 489 724 693 642 603 724 b 285 508 376 724 285 642 b 489 293 285 375 376 293 b 693 508 603 293 693 375 z "},"℉":{"ha":1333,"x_min":0,"x_max":0,"o":"m 560 -1 l 560 1093 l 1200 1093 l 1200 953 l 722 953 l 722 613 l 1151 613 l 1151 474 l 722 474 l 722 -1 z m 461 907 b 257 708 461 794 379 708 b 53 907 135 708 53 794 b 257 1106 53 1018 135 1106 b 461 907 379 1106 461 1018 z m 350 907 b 257 1000 350 964 311 1000 b 164 907 203 1000 164 964 b 257 813 164 849 203 813 b 350 907 311 813 350 849 z "},"‰":{"ha":1749,"x_min":0,"x_max":0,"o":"m 458 1 l 326 1 b 774 1090 475 364 625 728 l 904 1090 b 458 1 756 728 607 364 z m 529 815 b 303 521 529 618 447 521 b 76 815 153 521 76 622 b 303 1108 76 1006 154 1108 b 529 815 446 1108 529 1010 z m 397 815 b 303 997 397 949 367 997 b 207 815 236 997 207 949 b 303 632 207 679 235 632 b 397 815 368 632 397 679 z m 704 276 b 929 571 704 471 786 571 b 1154 276 1074 571 1154 467 b 929 -17 1154 83 1074 -17 b 704 276 786 -17 704 79 z m 833 276 b 929 94 833 135 865 94 b 1025 276 993 94 1025 139 b 929 458 1025 408 994 458 b 833 276 864 458 833 413 z m 1218 276 b 1446 571 1218 469 1300 571 b 1671 276 1589 571 1671 468 b 1446 -17 1671 82 1589 -17 b 1218 276 1300 -17 1218 82 z m 1350 276 b 1446 94 1350 139 1379 94 b 1540 276 1507 94 1540 135 b 1446 458 1540 413 1510 458 b 1350 276 1376 458 1350 410 z "},"◁":{"ha":1333,"x_min":0,"x_max":0,"o":"m 78 542 l 1171 1172 l 1171 -87 z m 290 542 l 1050 103 l 1050 981 z "},"◀":{"ha":1333,"x_min":0,"x_max":0,"o":"m 78 542 l 1171 1172 l 1171 -87 z "},"▷":{"ha":1333,"x_min":0,"x_max":0,"o":"m 161 1172 l 1254 542 l 161 -87 z m 282 103 l 1042 542 l 282 981 z "},"▶":{"ha":1333,"x_min":0,"x_max":0,"o":"m 161 1172 l 1254 542 l 161 -87 z "},"♤":{"ha":1333,"x_min":0,"x_max":0,"o":"m 78 533 b 269 856 78 649 154 754 b 667 1128 381 954 529 1046 b 1063 857 801 1049 950 956 b 1256 533 1176 756 1256 649 b 1169 342 1256 446 1221 385 b 982 281 1119 299 1050 282 b 740 389 885 279 794 322 b 993 72 757 247 843 107 l 993 -6 l 336 -6 l 336 72 b 589 388 483 103 572 250 b 350 281 540 321 446 279 b 158 342 276 282 208 299 b 78 533 108 385 78 446 z m 639 589 l 696 589 b 793 435 701 533 739 475 b 967 374 846 396 914 374 b 1144 549 1093 374 1144 443 b 981 804 1144 635 1078 719 b 667 1025 888 886 768 967 b 350 803 564 965 447 890 b 190 549 250 713 190 628 b 365 374 190 443 231 372 b 535 432 408 372 481 393 b 639 589 589 471 635 532 z m 831 71 l 831 76 b 668 464 714 153 675 315 l 663 464 b 500 76 653 313 618 154 l 500 71 z "},"♠":{"ha":1333,"x_min":0,"x_max":0,"o":"m 78 532 b 667 1126 78 763 403 961 b 1256 532 925 965 1256 760 b 982 272 1256 360 1119 272 b 721 410 872 272 771 331 b 993 64 742 260 842 103 l 993 -6 l 336 -6 l 336 64 b 608 406 486 100 583 260 b 350 272 546 326 456 272 b 78 532 203 272 78 358 z "},"♡":{"ha":1333,"x_min":0,"x_max":0,"o":"m 1256 721 b 1072 303 1256 576 1182 431 b 667 -25 964 175 813 54 b 258 300 515 56 367 171 b 78 721 149 431 78 576 b 163 950 78 828 111 901 b 351 1019 213 999 281 1019 b 542 949 419 1019 486 993 b 667 764 597 904 643 840 b 789 949 689 840 733 904 b 983 1019 844 993 911 1019 b 1174 950 1056 1019 1124 999 b 1256 721 1224 901 1256 828 z m 714 644 l 617 644 b 504 857 603 718 556 804 b 360 921 464 899 415 921 b 196 706 261 921 196 849 b 344 364 196 599 251 475 b 667 94 433 256 553 158 b 988 365 781 157 899 254 b 1138 706 1078 479 1138 599 b 975 921 1138 849 1081 921 b 824 858 917 921 863 897 b 714 644 772 807 728 718 z "},"♥":{"ha":1333,"x_min":0,"x_max":0,"o":"m 1256 721 b 1072 303 1256 576 1182 431 b 667 -25 964 175 813 54 b 258 300 515 56 367 171 b 78 721 149 431 78 576 b 163 950 78 828 111 901 b 351 1019 213 999 281 1019 b 544 947 421 1018 488 993 b 667 764 600 903 644 840 b 788 949 686 840 731 904 b 983 1019 843 993 910 1019 b 1174 950 1056 1019 1124 999 b 1256 721 1224 901 1256 828 z "},"♧":{"ha":1333,"x_min":0,"x_max":0,"o":"m 913 878 b 665 631 913 742 807 631 b 418 878 524 631 418 740 b 665 1125 418 1014 524 1125 b 913 878 804 1125 913 1013 z m 993 72 l 993 -6 l 336 -6 l 336 72 b 626 447 497 110 603 254 l 704 447 b 993 72 726 249 829 114 z m 817 878 b 665 1036 817 971 753 1036 b 514 878 575 1036 514 971 b 665 718 514 782 575 718 b 817 878 754 718 817 782 z m 831 71 l 831 75 b 667 307 749 111 679 207 l 663 307 b 500 75 649 208 576 110 l 500 71 z m 568 461 b 321 214 568 325 463 214 b 74 461 179 214 74 324 b 321 708 74 597 179 708 b 568 461 460 708 568 596 z m 472 461 b 321 619 472 554 408 619 b 169 461 231 619 169 554 b 321 301 169 365 231 301 b 472 461 410 301 472 365 z m 1258 461 b 1011 214 1258 325 1153 214 b 764 461 869 214 764 324 b 1011 708 764 597 869 708 b 1258 461 1150 708 1258 596 z m 1163 461 b 1011 619 1163 554 1099 619 b 860 461 921 619 860 554 b 1011 301 860 365 921 301 b 1163 461 1100 301 1163 365 z "},"♣":{"ha":1333,"x_min":0,"x_max":0,"o":"m 913 878 b 665 631 913 742 804 631 b 418 878 522 631 418 740 b 665 1125 418 1013 525 1125 b 913 878 801 1125 913 1013 z m 993 64 l 993 -6 l 336 -6 l 336 64 b 640 447 490 100 622 261 l 690 447 b 993 64 706 257 833 104 z m 568 460 b 321 214 568 324 460 214 b 74 460 178 214 74 325 b 321 708 74 597 181 708 b 568 460 457 708 568 596 z m 1258 460 b 1011 214 1258 324 1150 214 b 764 460 868 214 764 325 b 1011 708 764 597 871 708 b 1258 460 1147 708 1258 596 z "},"◈":{"ha":1333,"x_min":0,"x_max":0,"o":"m 667 1208 l 1306 540 l 667 -126 l 28 540 z m 667 1051 l 178 540 l 667 31 l 1153 540 z m 399 539 l 665 815 l 931 539 l 665 263 z "},"▣":{"ha":1333,"x_min":0,"x_max":0,"o":"m 1193 22 l 139 22 l 139 1067 l 1193 1067 z m 258 132 l 1074 132 l 1074 957 l 258 957 z m 881 328 l 451 328 l 451 763 l 881 763 z "},"◐":{"ha":1333,"x_min":0,"x_max":0,"o":"m 1278 540 b 667 -71 1278 200 1008 -71 b 54 540 322 -71 54 200 b 667 1153 54 881 325 1153 b 1278 540 1006 1153 1278 879 z m 667 1042 l 667 39 b 1161 540 947 39 1161 264 b 667 1042 1161 818 947 1042 z "},"◑":{"ha":1333,"x_min":0,"x_max":0,"o":"m 1278 540 b 665 -71 1278 200 1008 -71 b 54 540 322 -71 54 200 b 665 1153 54 881 325 1153 b 1278 540 1006 1153 1278 879 z m 172 540 b 667 39 172 264 386 39 l 667 1042 b 172 540 386 1042 172 818 z "},"▒":{"ha":1333,"x_min":0,"x_max":0,"o":"m 624 101 l 624 185 l 704 185 l 704 101 z m 883 185 l 961 185 l 961 101 l 883 101 z m 833 101 l 753 101 l 753 185 l 833 185 z m 446 101 l 368 101 l 368 185 l 446 185 z m 317 101 l 238 101 l 238 185 l 317 185 z m 574 101 l 494 101 l 494 185 l 574 185 z m 1011 185 l 1090 185 l 1090 101 l 1011 101 z m 624 236 l 624 317 l 704 317 l 704 236 z m 883 317 l 961 317 l 961 236 l 883 236 z m 833 236 l 753 236 l 753 317 l 833 317 z m 446 236 l 368 236 l 368 317 l 446 317 z m 317 236 l 238 236 l 238 317 l 317 317 z m 574 236 l 494 236 l 494 317 l 574 317 z m 1011 317 l 1090 317 l 1090 236 l 1011 236 z m 624 367 l 624 449 l 704 449 l 704 367 z m 883 449 l 961 449 l 961 367 l 883 367 z m 833 367 l 753 367 l 753 449 l 833 449 z m 446 367 l 368 367 l 368 449 l 446 449 z m 317 367 l 238 367 l 238 449 l 317 449 z m 574 367 l 494 367 l 494 449 l 574 449 z m 1011 449 l 1090 449 l 1090 367 l 1011 367 z m 624 497 l 624 583 l 704 583 l 704 497 z m 883 583 l 961 583 l 961 497 l 883 497 z m 833 497 l 753 497 l 753 583 l 833 583 z m 446 497 l 368 497 l 368 583 l 446 583 z m 317 497 l 238 497 l 238 583 l 317 583 z m 574 497 l 494 497 l 494 583 l 574 583 z m 1011 583 l 1090 583 l 1090 497 l 1011 497 z m 624 633 l 624 715 l 704 715 l 704 633 z m 883 715 l 961 715 l 961 633 l 883 633 z m 833 633 l 753 633 l 753 715 l 833 715 z m 446 633 l 368 633 l 368 715 l 446 715 z m 317 633 l 238 633 l 238 715 l 317 715 z m 574 633 l 494 633 l 494 715 l 574 715 z m 1011 715 l 1090 715 l 1090 633 l 1011 633 z m 624 764 l 624 846 l 704 846 l 704 764 z m 883 846 l 961 846 l 961 764 l 883 764 z m 833 764 l 753 764 l 753 846 l 833 846 z m 446 764 l 368 764 l 368 846 l 446 846 z m 317 764 l 238 764 l 238 846 l 317 846 z m 574 764 l 494 764 l 494 846 l 574 846 z m 1011 846 l 1090 846 l 1090 764 l 1011 764 z m 624 896 l 624 979 l 704 979 l 704 896 z m 883 979 l 961 979 l 961 896 l 883 896 z m 833 896 l 753 896 l 753 979 l 833 979 z m 446 896 l 368 896 l 368 979 l 446 979 z m 317 896 l 238 896 l 238 979 l 317 979 z m 574 896 l 494 896 l 494 979 l 574 979 z m 1011 979 l 1090 979 l 1090 896 l 1011 896 z m 1206 8 l 128 8 l 128 1076 l 1206 1076 z m 200 65 l 1131 65 l 1131 1013 l 200 1013 z "},"▤":{"ha":1333,"x_min":0,"x_max":0,"o":"m 1206 8 l 128 8 l 128 1076 l 1206 1076 z m 200 586 l 200 493 l 1131 493 l 1131 586 z m 200 296 l 200 204 l 1131 204 l 1131 296 z m 200 875 l 200 783 l 1131 783 l 1131 875 z m 200 439 l 200 349 l 1131 349 l 1131 439 z m 200 729 l 200 639 l 1131 639 l 1131 729 z m 200 65 l 1131 65 l 1131 151 l 200 151 z m 1131 928 l 1131 1013 l 200 1013 l 200 928 z "},"▥":{"ha":1333,"x_min":0,"x_max":0,"o":"m 1206 8 l 128 8 l 128 1076 l 1206 1076 z m 335 1010 l 335 71 l 425 71 l 425 1010 z m 478 1010 l 478 71 l 567 71 l 567 1010 z m 761 1010 l 761 71 l 851 71 l 851 1010 z m 904 1010 l 904 71 l 993 71 l 993 1010 z m 619 1010 l 619 71 l 708 71 l 708 1010 z m 1047 71 l 1135 71 l 1135 1010 l 1047 1010 z m 194 1010 l 194 71 l 282 71 l 282 1010 z "},"▨":{"ha":1333,"x_min":0,"x_max":0,"o":"m 1206 8 l 128 8 l 128 1076 l 1206 1076 z m 197 225 l 197 110 l 1099 1011 l 985 1011 z m 228 68 l 340 68 l 1132 860 l 1132 974 z m 415 68 l 533 68 l 1132 665 l 1132 786 z m 197 418 l 197 299 l 911 1011 l 792 1011 z m 608 68 l 728 68 l 1132 472 l 1132 592 z m 200 610 l 200 489 l 722 1011 l 603 1011 z m 803 68 l 921 68 l 1132 279 l 1132 399 z m 200 801 l 200 683 l 528 1011 l 410 1011 z m 996 68 l 1132 68 l 1132 206 z m 200 1011 l 200 875 l 335 1011 z "},"▧":{"ha":1333,"x_min":0,"x_max":0,"o":"m 1206 8 l 128 8 l 128 1076 l 1206 1076 z m 1135 110 l 1135 225 l 346 1011 l 233 1011 z m 992 68 l 1103 68 l 199 974 l 199 860 z m 797 68 l 917 68 l 199 786 l 199 665 z m 1135 299 l 1135 418 l 540 1011 l 419 1011 z m 604 68 l 722 68 l 199 592 l 199 472 z m 1132 489 l 1132 610 l 728 1011 l 610 1011 z m 410 68 l 529 68 l 199 399 l 199 279 z m 1132 683 l 1132 801 l 922 1011 l 803 1011 z m 199 68 l 335 68 l 199 206 z m 1132 875 l 1132 1011 l 997 1011 z "},"▦":{"ha":1333,"x_min":0,"x_max":0,"o":"m 1206 8 l 128 8 l 128 1076 l 1206 1076 z m 332 589 l 332 493 l 425 493 l 425 589 z m 761 589 l 761 493 l 854 493 l 854 589 z m 904 589 l 904 493 l 997 493 l 997 589 z m 475 589 l 475 493 l 568 493 l 568 589 z m 618 589 l 618 493 l 711 493 l 711 589 z m 761 299 l 761 204 l 854 204 l 854 299 z m 761 878 l 761 783 l 854 783 l 854 878 z m 332 299 l 332 204 l 425 204 l 425 299 z m 332 878 l 332 783 l 425 783 l 425 878 z m 904 299 l 904 204 l 997 204 l 997 299 z m 904 878 l 904 783 l 997 783 l 997 878 z m 475 299 l 475 204 l 568 204 l 568 299 z m 475 878 l 475 783 l 568 783 l 568 878 z m 761 442 l 761 349 l 854 349 l 854 442 z m 761 732 l 761 639 l 854 639 l 854 732 z m 332 442 l 332 349 l 425 349 l 425 442 z m 332 732 l 332 639 l 425 639 l 425 732 z m 904 442 l 904 349 l 997 349 l 997 442 z m 904 732 l 904 639 l 997 639 l 997 732 z m 475 442 l 475 349 l 568 349 l 568 442 z m 475 732 l 475 639 l 568 639 l 568 732 z m 618 299 l 618 204 l 711 204 l 711 299 z m 618 878 l 618 783 l 711 783 l 711 878 z m 193 589 l 193 493 l 282 493 l 282 589 z m 1047 589 l 1047 493 l 1138 493 l 1138 589 z m 618 442 l 618 349 l 711 349 l 711 442 z m 618 732 l 618 639 l 711 639 l 711 732 z m 193 299 l 193 204 l 282 204 l 282 299 z m 193 878 l 193 783 l 282 783 l 282 878 z m 1047 299 l 1047 204 l 1138 204 l 1138 299 z m 1047 878 l 1047 783 l 1138 783 l 1138 878 z m 193 732 l 193 639 l 282 639 l 282 732 z m 193 442 l 193 349 l 282 349 l 282 442 z m 1047 732 l 1047 639 l 1138 639 l 1138 732 z m 1047 442 l 1047 349 l 1138 349 l 1138 442 z m 761 154 l 761 67 l 854 67 l 854 154 z m 332 154 l 332 67 l 425 67 l 425 154 z m 904 154 l 904 67 l 997 67 l 997 154 z m 475 154 l 475 67 l 568 67 l 568 154 z m 618 154 l 618 67 l 711 67 l 711 154 z m 761 1014 l 761 928 l 854 928 l 854 1014 z m 332 1014 l 332 928 l 425 928 l 425 1014 z m 904 1014 l 904 928 l 997 928 l 997 1014 z m 475 1014 l 475 928 l 568 928 l 568 1014 z m 618 1014 l 618 928 l 711 928 l 711 1014 z m 1047 67 l 1138 67 l 1138 154 l 1047 154 z m 193 154 l 193 67 l 282 67 l 282 154 z m 193 1014 l 193 928 l 282 928 l 282 1014 z m 1138 928 l 1138 1014 l 1047 1014 l 1047 928 z "},"▩":{"ha":1333,"x_min":0,"x_max":0,"o":"m 1206 8 l 128 8 l 128 1076 l 1206 1076 z m 228 638 l 289 578 l 349 638 l 289 699 z m 324 543 l 383 483 l 443 543 l 383 603 z m 1044 697 l 985 638 l 1043 578 l 1104 638 z m 607 826 l 667 767 l 726 826 l 667 886 z m 764 224 l 704 164 l 764 104 l 824 164 z m 701 921 l 761 861 l 821 921 l 761 981 z m 226 446 l 286 386 l 346 446 l 286 506 z m 1046 506 l 986 446 l 1046 386 l 1106 446 z m 513 921 l 572 861 l 632 921 l 572 981 z m 607 260 l 667 201 l 726 261 l 667 319 z m 890 543 l 949 483 l 1008 543 l 950 603 z m 569 222 l 510 163 l 569 104 l 629 164 z m 419 446 l 478 389 l 538 449 l 481 507 z m 324 350 l 381 292 l 440 351 l 383 410 z m 703 729 l 761 672 l 821 732 l 763 789 z m 797 824 l 856 767 l 915 826 l 857 883 z m 226 253 l 285 196 l 344 256 l 286 313 z m 382 792 l 325 735 l 386 675 l 443 732 z m 1046 313 l 989 256 l 1049 196 l 1106 253 z m 475 883 l 418 828 l 478 767 l 535 824 z m 894 921 l 953 864 l 1011 922 l 954 981 z m 857 317 l 800 260 l 860 200 l 917 257 z m 950 410 l 893 353 l 953 293 l 1010 350 z m 478 697 l 421 640 l 481 581 l 538 638 z m 569 789 l 513 732 l 572 672 l 629 729 z m 513 353 l 569 297 l 629 357 l 574 414 z m 761 414 l 704 357 l 763 297 l 819 354 z m 322 924 l 381 864 l 438 921 l 379 981 z m 853 506 l 796 449 l 856 390 l 913 447 z m 286 888 l 229 831 l 289 772 l 346 829 z m 319 160 l 376 104 l 436 164 l 379 219 z m 796 636 l 853 581 l 913 640 l 856 696 z m 417 257 l 472 200 l 532 260 l 476 317 z m 890 731 l 947 675 l 1007 735 l 950 790 z m 954 219 l 897 163 l 957 104 l 1013 160 z m 988 828 l 1044 772 l 1103 831 l 1047 888 z m 667 693 l 610 636 l 667 578 l 724 635 z m 574 600 l 517 543 l 575 486 l 632 543 z m 703 543 l 758 486 l 815 543 l 760 600 z m 610 450 l 667 394 l 724 451 l 667 507 z m 608 68 l 725 68 l 667 126 z m 803 68 l 918 68 l 861 126 z m 415 68 l 531 68 l 474 126 z m 667 956 l 722 1011 l 611 1011 z m 228 68 l 338 68 l 283 124 z m 996 68 l 1106 68 l 1050 122 z m 475 958 l 528 1011 l 422 1011 z m 858 958 l 911 1011 l 806 1011 z m 201 786 l 201 685 l 251 735 z m 1132 786 l 1081 735 l 1132 685 z m 201 592 l 201 490 l 251 540 z m 1132 592 l 1081 540 l 1132 490 z m 285 960 l 335 1011 l 235 1011 z m 1099 1011 l 999 1011 l 1049 960 z m 201 399 l 201 301 l 250 350 z m 1132 399 l 1083 350 l 1132 301 z m 201 974 l 201 876 l 250 925 z m 1132 974 l 1083 925 l 1132 876 z m 201 206 l 201 113 l 247 158 z m 1132 206 l 1086 158 l 1132 113 z "},"♨":{"ha":1333,"x_min":0,"x_max":0,"o":"m 753 492 b 626 226 753 396 699 290 b 578 258 599 201 561 229 b 633 464 614 314 632 390 b 593 646 635 524 615 585 b 554 833 572 707 553 772 b 596 971 556 879 571 926 b 697 1096 622 1017 660 1063 b 740 1063 724 1121 764 1094 b 675 860 694 1000 676 929 b 713 675 674 799 693 736 b 753 492 732 614 753 549 z m 531 492 b 410 238 531 385 467 289 b 358 260 376 208 340 231 b 413 463 392 315 417 393 b 371 601 410 508 392 554 b 332 749 351 644 335 699 b 457 1019 326 861 390 954 b 506 986 490 1051 535 1026 b 451 778 463 925 449 853 b 489 629 454 725 469 669 b 531 492 510 583 531 538 z m 333 440 b 339 403 358 442 364 408 b 197 274 251 383 197 338 b 668 133 197 176 447 133 b 1138 281 888 133 1138 183 b 1017 390 1138 338 1083 378 b 1022 428 992 396 1001 429 b 1250 256 1169 415 1250 335 b 668 3 1250 89 942 3 b 85 249 394 3 82 82 b 333 440 86 347 164 425 z m 975 492 b 854 238 975 385 911 289 b 803 260 821 208 785 231 b 857 463 836 315 861 393 b 815 601 854 508 836 554 b 776 749 796 644 779 699 b 901 1019 771 861 835 954 b 950 986 935 1051 979 1026 b 896 778 907 925 893 853 b 933 629 899 725 914 669 b 975 492 954 583 975 538 z "},"☏":{"ha":1333,"x_min":0,"x_max":0,"o":"m 349 981 l 988 981 b 1254 678 1185 978 1244 804 b 1217 642 1254 649 1243 642 l 994 665 b 958 704 971 667 958 681 l 957 771 b 904 843 956 817 946 843 l 883 843 l 883 694 b 1160 276 936 672 1160 464 l 1150 156 b 1110 111 1147 126 1133 111 l 231 111 b 188 149 201 111 190 121 l 176 269 b 453 694 176 450 396 674 l 453 843 l 432 843 b 382 753 388 843 382 808 l 382 706 b 350 665 382 683 374 668 l 111 642 b 78 679 90 640 78 656 b 349 981 78 807 150 978 z m 717 843 l 618 843 l 618 703 l 717 703 z m 1021 719 l 1182 701 b 990 926 1175 811 1110 926 l 344 926 b 151 707 206 926 160 808 l 317 724 l 317 772 b 417 896 317 839 343 896 l 918 896 b 1021 778 985 896 1021 846 z m 468 406 b 671 601 468 519 558 601 b 871 406 781 601 871 514 b 671 207 871 293 782 207 b 468 406 556 207 468 289 z m 249 265 l 256 176 l 1079 176 l 1090 271 b 818 667 1088 419 918 621 l 818 843 l 782 843 l 782 649 l 551 649 l 551 843 l 518 843 l 518 667 b 249 265 417 607 251 415 z m 804 406 b 671 542 804 479 747 542 b 535 406 590 542 535 483 b 671 267 535 328 589 267 b 804 406 750 267 804 328 z "},"☎":{"ha":1333,"x_min":0,"x_max":0,"o":"m 1218 642 l 990 665 b 960 697 968 668 960 679 b 954 790 960 722 958 763 b 911 850 949 826 933 850 l 863 850 l 863 696 b 1032 551 900 688 967 631 b 1160 276 1099 468 1160 364 l 1149 144 b 1110 111 1146 121 1129 111 l 226 111 b 188 146 201 111 189 124 l 176 269 b 301 550 176 361 235 467 b 474 696 367 631 428 683 l 474 850 l 425 850 b 379 793 397 850 386 826 b 375 701 374 767 374 726 b 346 665 376 682 367 668 l 114 642 b 78 676 89 639 76 649 b 126 860 81 735 94 804 b 342 981 167 928 232 979 l 994 981 b 1203 857 1099 979 1164 925 b 1254 676 1236 801 1251 732 b 1218 642 1256 649 1242 639 z m 749 850 l 588 850 l 588 697 l 749 697 z m 857 406 b 671 592 857 508 774 592 b 483 406 564 592 483 511 b 671 218 483 297 563 218 b 857 406 776 218 857 301 z "},"☜":{"ha":1333,"x_min":0,"x_max":0,"o":"m 1303 208 l 1118 208 l 1118 229 l 1056 229 b 1038 249 1044 229 1038 236 l 1038 311 b 910 264 993 314 958 297 b 713 204 842 218 799 204 b 669 206 697 204 682 206 l 635 206 b 561 214 611 206 585 208 b 511 246 539 219 522 231 b 444 326 469 250 444 299 b 450 349 444 335 446 342 b 411 417 426 358 411 390 b 424 451 411 429 415 443 b 389 519 403 460 389 501 b 393 536 389 526 390 532 l 103 536 b 31 614 56 536 31 574 b 107 692 31 653 54 692 l 504 692 b 624 760 510 751 569 760 l 650 760 b 853 713 736 760 811 749 b 1021 625 914 658 960 625 l 1038 625 l 1038 678 b 1057 697 1038 689 1044 697 l 1118 697 l 1118 715 l 1303 715 z m 518 606 b 514 593 517 603 514 597 b 536 581 514 585 518 581 b 619 638 583 581 607 600 b 639 654 624 650 631 654 b 658 621 651 654 657 643 b 768 471 667 554 708 506 b 782 450 776 465 782 458 b 761 431 782 439 774 428 b 683 467 735 436 707 450 b 701 339 693 432 701 382 b 578 251 701 249 640 251 b 638 242 588 244 613 242 b 726 244 671 242 706 244 b 822 264 754 244 793 249 b 908 315 854 281 885 300 b 1038 353 960 349 990 353 l 1038 581 l 1025 581 b 908 617 974 581 939 596 b 815 688 878 639 850 665 b 650 717 769 715 708 717 l 607 717 b 544 674 556 717 547 710 b 518 606 543 654 533 631 z m 499 647 l 115 647 b 74 613 92 647 74 638 b 114 579 74 593 89 579 l 468 579 b 499 647 465 593 489 629 z m 1081 272 l 1118 272 l 1118 654 l 1081 654 z m 640 422 b 611 443 640 432 629 444 b 496 438 574 440 524 438 b 460 414 469 438 460 432 b 508 382 460 388 476 382 b 590 388 529 382 563 383 b 640 418 619 392 640 400 z m 579 539 b 468 536 544 538 501 536 b 438 511 442 536 438 525 b 482 481 438 489 453 481 b 554 483 507 481 532 482 b 614 514 592 486 614 493 b 579 539 614 528 601 539 z m 657 328 b 625 347 656 339 644 347 b 538 342 596 343 567 342 l 511 342 b 492 322 497 342 492 333 b 535 289 492 294 508 289 b 600 292 550 289 579 290 b 657 321 639 294 657 301 z "},"☞":{"ha":1333,"x_min":0,"x_max":0,"o":"m 215 208 l 31 208 l 31 715 l 215 715 l 215 697 l 276 697 b 296 678 289 697 296 689 l 296 625 l 313 625 b 481 713 374 625 419 658 b 683 760 522 749 597 760 l 710 760 b 829 692 764 760 824 751 l 1226 692 b 1303 614 1279 692 1303 653 b 1231 536 1303 574 1278 536 l 940 536 b 944 519 943 532 944 526 b 910 451 944 501 931 460 b 922 417 918 443 922 429 b 883 349 922 390 907 358 b 889 326 888 342 889 335 b 822 246 889 299 864 250 b 772 214 811 231 794 219 b 699 206 749 208 722 206 l 664 206 b 621 204 651 206 636 204 b 424 264 535 204 492 218 b 296 311 375 297 340 314 l 296 249 b 278 229 296 236 289 229 l 215 229 z m 815 606 b 789 674 800 631 790 654 b 726 717 786 710 778 717 l 683 717 b 518 688 625 717 564 715 b 425 617 483 665 456 639 b 308 581 394 596 360 581 l 296 581 l 296 353 b 425 315 343 353 374 349 b 511 264 449 300 479 281 b 607 244 540 249 579 244 b 696 242 628 244 663 242 b 756 251 721 242 746 244 b 632 339 693 251 632 249 b 650 467 632 382 640 432 b 572 431 626 450 599 436 b 551 450 560 428 551 439 b 565 471 551 458 557 465 b 675 621 625 506 667 554 b 694 654 676 643 682 654 b 714 638 703 654 710 650 b 797 581 726 600 750 581 b 819 593 815 581 819 585 b 815 606 819 597 817 603 z m 1218 647 l 835 647 b 865 579 844 629 868 593 l 1219 579 b 1260 613 1244 579 1260 593 b 1218 647 1260 638 1242 647 z m 215 272 l 253 272 l 253 654 l 215 654 z m 693 422 l 693 418 b 743 388 693 400 714 392 b 825 382 771 383 804 382 b 874 414 857 382 874 388 b 838 438 874 432 864 438 b 722 443 810 438 760 440 b 693 422 704 444 693 432 z m 754 539 b 719 514 732 539 719 528 b 779 483 719 493 742 486 b 851 481 801 482 826 481 b 896 511 881 481 896 489 b 865 536 896 525 892 536 b 754 539 832 536 789 538 z m 676 328 l 676 321 b 733 292 676 301 694 294 b 799 289 754 290 783 289 b 842 322 825 289 842 294 b 822 342 842 333 836 342 l 796 342 b 708 347 767 342 738 343 b 676 328 689 347 678 339 z "},"¶":{"ha":1333,"x_min":0,"x_max":0,"o":"m 639 1093 l 985 1093 l 985 -206 l 878 -206 l 878 989 l 807 989 l 807 -206 l 700 -206 l 700 417 l 658 417 b 321 751 464 417 321 540 l 321 761 b 639 1093 321 971 442 1093 z "},"†":{"ha":1333,"x_min":0,"x_max":0,"o":"m 1003 906 l 1003 779 l 738 779 l 738 -206 l 596 -206 l 596 779 l 331 779 l 331 906 l 596 906 l 596 1168 l 738 1168 l 738 906 z "},"‡":{"ha":1333,"x_min":0,"x_max":0,"o":"m 331 57 l 331 182 l 596 182 l 596 779 l 331 779 l 331 906 l 596 906 l 596 1168 l 738 1168 l 738 906 l 1003 906 l 1003 779 l 738 779 l 738 182 l 1003 182 l 1003 57 l 738 57 l 738 -206 l 596 -206 l 596 57 z "},"↕":{"ha":1333,"x_min":0,"x_max":0,"o":"m 435 251 l 600 251 l 600 858 l 435 858 l 667 1171 l 897 858 l 733 858 l 733 251 l 897 251 l 667 -61 z "},"↗":{"ha":1333,"x_min":0,"x_max":0,"o":"m 303 35 l 208 129 l 857 778 l 742 893 l 1125 953 l 1067 568 l 951 683 z "},"↙":{"ha":1333,"x_min":0,"x_max":0,"o":"m 1031 953 l 1125 858 l 476 210 l 592 94 l 208 35 l 265 419 l 382 304 z "},"↖":{"ha":1333,"x_min":0,"x_max":0,"o":"m 1125 129 l 1031 35 l 382 683 l 265 568 l 208 953 l 592 893 l 476 778 z "},"↘":{"ha":1333,"x_min":0,"x_max":0,"o":"m 208 858 l 303 953 l 951 304 l 1067 419 l 1125 35 l 742 94 l 857 210 z "},"♭":{"ha":1333,"x_min":0,"x_max":0,"o":"m 526 1168 l 526 474 b 749 611 567 553 644 611 b 951 375 869 611 951 515 b 443 -39 951 142 710 -42 l 443 1168 z m 526 263 l 526 40 b 822 356 681 51 822 204 b 713 522 822 474 783 522 b 526 263 614 522 526 407 z "},"♩":{"ha":1333,"x_min":0,"x_max":0,"o":"m 736 186 l 736 1168 l 819 1168 l 819 133 b 511 -136 819 -25 686 -136 b 372 -17 433 -136 372 -93 b 647 200 372 101 517 200 b 736 186 682 200 714 194 z "},"♪":{"ha":1333,"x_min":0,"x_max":0,"o":"m 642 186 l 642 1168 l 703 1168 b 885 869 701 1024 778 951 b 1083 535 996 785 1083 683 b 951 169 1083 389 1015 265 l 911 169 b 1006 482 968 267 1006 376 b 726 818 1006 649 878 768 l 726 133 b 418 -136 726 -25 593 -136 b 278 -17 340 -136 278 -93 b 554 200 278 101 424 200 b 642 186 589 200 619 194 z "},"♬":{"ha":1333,"x_min":0,"x_max":0,"o":"m 1121 917 l 1121 1040 l 461 892 l 461 767 z m 1204 1199 l 1204 289 b 899 21 1204 132 1072 21 b 761 140 821 21 761 64 b 1036 356 761 256 903 356 b 1121 343 1069 356 1100 351 l 1121 781 l 461 629 l 461 133 b 156 -133 461 -24 329 -133 b 18 -15 78 -133 18 -92 b 293 200 18 100 160 200 b 378 188 326 200 357 196 l 378 1015 z "},"㉿":{"ha":1333,"x_min":0,"x_max":0,"o":"m 1258 629 l 1149 629 b 665 1047 1118 871 926 1047 b 188 594 378 1047 203 844 l 367 594 l 367 506 l 69 506 b 665 1143 65 904 331 1143 b 1258 629 976 1143 1226 929 z m 74 450 l 183 450 b 667 33 213 210 404 33 b 1143 485 953 33 1129 235 l 964 485 l 964 574 l 1263 574 b 667 -62 1267 175 1000 -62 b 74 450 356 -62 104 151 z m 964 918 l 728 551 l 997 165 l 850 165 l 624 494 l 563 494 l 563 165 l 432 165 l 432 918 l 563 918 l 563 608 l 624 608 l 821 918 z "},"㈜":{"ha":1333,"x_min":0,"x_max":0,"o":"m 51 533 b 247 1121 51 746 124 949 l 349 1121 b 165 533 233 944 165 732 b 349 -54 165 333 233 122 l 247 -54 b 51 533 124 118 51 319 z m 1281 533 b 1086 -54 1281 319 1210 118 l 985 -54 b 1167 533 1099 122 1167 333 b 985 1121 1167 732 1099 944 l 1086 1121 b 1281 533 1210 949 1281 746 z m 594 854 l 313 854 l 313 964 l 1019 964 l 1019 854 l 735 854 b 1028 607 746 711 871 629 l 1028 497 b 665 681 872 517 732 582 b 303 497 597 582 457 517 l 303 607 b 594 854 458 629 583 711 z m 596 297 l 265 297 l 265 407 l 1067 407 l 1067 297 l 733 297 l 733 57 l 596 57 z "},"№":{"ha":1364,"x_min":0,"x_max":0,"o":"m 572 1 l 251 739 l 251 1 l 97 1 l 97 1090 l 238 1090 l 558 353 l 558 1090 l 713 1090 l 713 1 z m 1304 510 b 1051 193 1304 308 1235 193 b 797 510 867 193 797 308 b 1051 828 797 713 867 828 b 1304 510 1235 828 1304 713 z m 1164 510 b 1051 707 1164 646 1136 707 b 936 510 965 707 936 646 b 1051 313 936 374 965 313 b 1164 510 1136 313 1164 374 z m 804 1 l 804 119 l 1297 119 l 1297 1 z "},"㏇":{"ha":1333,"x_min":0,"x_max":0,"o":"m 336 -19 b 38 546 92 -19 38 239 b 336 1111 38 849 92 1111 b 628 728 528 1111 617 960 l 474 728 b 336 971 467 879 426 971 b 192 546 224 971 192 813 b 336 121 192 294 217 121 b 474 363 425 121 467 213 l 628 363 b 336 -19 618 131 526 -19 z m 1168 390 b 915 -19 1168 131 1089 -19 b 663 390 742 -19 663 131 b 915 799 663 647 742 799 b 1168 390 1089 799 1168 647 z m 1018 390 b 915 672 1018 574 992 672 b 811 390 838 672 811 574 b 915 107 811 204 838 107 b 1018 390 992 107 1018 204 z m 1315 186 l 1315 0 l 1169 0 l 1169 186 z "},"™":{"ha":1024,"x_min":0,"x_max":0,"o":"m 15 1000 l 15 1093 l 401 1093 l 401 1000 l 264 1000 l 264 571 l 153 571 l 153 1000 z m 738 571 l 665 571 l 546 853 l 546 571 l 440 571 l 440 1093 l 538 1093 l 701 704 l 865 1093 l 963 1093 l 963 571 l 857 571 l 857 853 z "},"㏂":{"ha":1333,"x_min":0,"x_max":0,"o":"m 957 446 l 957 -1 l 833 -1 l 833 532 b 800 672 833 644 824 672 b 743 447 761 672 743 613 l 743 -1 l 621 -1 l 621 781 l 738 781 l 738 731 b 822 799 756 778 789 799 b 928 696 872 799 914 763 b 1035 799 944 764 986 799 b 1169 526 1125 799 1169 722 l 1169 -1 l 1047 -1 l 1047 532 b 1014 672 1047 644 1038 672 b 957 446 975 672 957 613 z m 331 -1 b 322 56 325 15 322 32 b 203 -19 300 11 263 -19 b 21 228 90 -19 21 71 b 203 476 21 385 90 476 b 321 410 258 476 299 454 l 321 521 b 239 674 321 624 294 674 b 163 550 190 674 168 633 l 42 550 b 239 799 50 701 115 799 b 438 519 371 799 438 693 l 438 107 b 451 -1 438 68 443 26 z m 231 99 b 321 228 293 99 321 146 b 231 358 321 311 293 358 b 139 228 167 358 139 311 b 231 99 139 144 167 99 z m 590 186 l 590 -1 l 471 -1 l 471 186 z m 1322 186 l 1322 -1 l 1203 -1 l 1203 186 z "},"㏘":{"ha":1333,"x_min":0,"x_max":0,"o":"m 158 60 l 158 -339 l 40 -339 l 40 781 l 158 781 l 158 719 b 268 799 179 767 219 799 b 458 390 394 799 458 667 b 268 -19 458 113 394 -19 b 158 60 219 -19 179 10 z m 158 390 b 247 107 158 204 172 107 b 336 390 315 107 336 204 b 247 672 336 574 315 672 b 158 390 172 672 158 574 z m 957 446 l 957 0 l 833 0 l 833 532 b 800 672 833 644 824 672 b 743 447 761 672 743 613 l 743 0 l 621 0 l 621 781 l 738 781 l 738 731 b 822 799 756 778 789 799 b 928 696 872 799 914 763 b 1035 799 944 764 986 799 b 1169 526 1125 799 1169 722 l 1169 0 l 1047 0 l 1047 532 b 1014 672 1047 644 1038 672 b 957 446 975 672 957 613 z m 1322 186 l 1322 0 l 1203 0 l 1203 186 z m 590 186 l 590 0 l 471 0 l 471 186 z "},"℡":{"ha":1333,"x_min":0,"x_max":0,"o":"m 1057 394 l 1057 344 l 621 344 b 763 104 626 168 671 104 b 892 235 831 104 876 143 l 1046 235 b 763 -19 1018 60 922 -19 b 468 390 574 -19 468 94 b 763 799 468 685 574 799 b 1057 394 950 799 1057 686 z m 763 675 b 624 456 675 675 626 613 l 903 456 b 763 675 897 613 851 675 z m 11 953 l 11 1093 l 607 1093 l 607 953 l 390 953 l 390 0 l 228 0 l 228 953 z m 1279 0 l 1125 0 l 1125 1093 l 1279 1093 z "},"＂":{"ha":1333,"x_min":0,"x_max":0,"o":"m 849 779 l 708 779 l 708 1090 l 849 1090 z m 624 779 l 483 779 l 483 1090 l 624 1090 z "},"＃":{"ha":1333,"x_min":0,"x_max":0,"o":"m 658 1 l 722 297 l 501 297 l 436 1 l 297 1 l 361 297 l 204 297 l 204 421 l 386 421 l 442 671 l 257 671 l 257 794 l 467 794 l 533 1090 l 674 1090 l 608 794 l 829 794 l 894 1090 l 1035 1090 l 969 794 l 1128 794 l 1128 671 l 944 671 l 888 421 l 1075 421 l 1075 297 l 863 297 l 799 1 z m 582 671 l 526 421 l 747 421 l 803 671 z "},"＄":{"ha":1333,"x_min":0,"x_max":0,"o":"m 1043 303 b 714 -14 1043 129 921 3 l 714 -133 l 601 -133 l 601 -12 b 290 303 404 8 290 132 l 290 325 l 451 325 l 451 299 b 601 128 451 213 507 147 l 601 497 b 568 504 590 500 579 501 b 290 806 396 540 290 636 b 601 1106 290 958 397 1090 l 601 1225 l 714 1225 l 714 1103 b 1003 806 903 1079 1003 953 l 1003 789 l 840 789 l 840 806 b 714 960 840 881 796 938 l 714 624 b 1043 303 924 585 1043 489 z m 881 299 b 714 475 881 389 831 450 l 714 125 b 881 299 819 140 881 207 z m 451 806 b 601 644 451 717 500 668 l 601 964 b 451 806 504 950 451 889 z "},"％":{"ha":1333,"x_min":0,"x_max":0,"o":"m 510 1 l 378 1 l 825 1090 l 956 1090 z m 581 815 b 354 521 581 618 499 521 b 128 815 204 521 128 622 b 354 1108 128 1006 206 1108 b 581 815 497 1108 581 1010 z m 449 815 b 354 997 449 949 418 997 b 258 815 288 997 258 949 b 354 632 258 679 286 632 b 449 815 419 632 449 679 z m 756 276 b 981 571 756 471 838 571 b 1206 276 1125 571 1206 467 b 981 -17 1206 83 1125 -17 b 756 276 838 -17 756 79 z m 885 276 b 981 94 885 135 917 94 b 1076 276 1044 94 1076 139 b 981 458 1076 408 1046 458 b 885 276 915 458 885 413 z "},"＆":{"ha":1333,"x_min":0,"x_max":0,"o":"m 1064 542 b 981 200 1058 404 1031 289 l 1163 1 l 968 1 l 888 90 b 588 -17 817 22 714 -17 b 226 300 367 -17 226 108 b 415 611 226 428 286 533 b 307 853 343 683 307 763 b 592 1108 307 1013 424 1108 b 876 858 758 1108 876 1014 l 876 822 l 719 822 l 719 854 b 592 974 719 929 671 974 b 464 854 513 974 464 929 b 544 683 464 796 483 750 l 869 325 b 907 542 892 385 903 457 z m 589 118 b 790 197 672 118 744 142 l 501 515 b 382 303 418 460 382 385 b 589 118 382 181 475 118 z "},"＇":{"ha":1333,"x_min":0,"x_max":0,"o":"m 736 779 l 596 779 l 596 1090 l 736 1090 z "},"＊":{"ha":1333,"x_min":0,"x_max":0,"o":"m 331 621 l 401 743 l 611 601 l 596 856 l 736 856 l 721 601 l 931 743 l 1001 621 l 774 508 l 1001 396 l 931 275 l 721 414 l 736 163 l 596 163 l 611 414 l 401 275 l 331 396 l 557 508 z "},"＋":{"ha":1333,"x_min":0,"x_max":0,"o":"m 329 444 l 329 572 l 596 572 l 596 856 l 738 856 l 738 572 l 1004 572 l 1004 444 l 738 444 l 738 161 l 596 161 l 596 444 z "},"－":{"ha":1333,"x_min":0,"x_max":0,"o":"m 429 440 l 429 575 l 904 575 l 904 440 z "},"／":{"ha":1333,"x_min":0,"x_max":0,"o":"m 69 21 l 1160 1167 l 1263 1072 l 172 -72 z "},"０":{"ha":1333,"x_min":0,"x_max":0,"o":"m 1026 546 b 915 81 1026 297 993 167 b 667 -17 856 17 771 -17 b 417 81 563 -17 475 17 b 306 546 339 167 306 297 b 417 1011 306 794 339 925 b 667 1108 475 1075 563 1108 b 915 1011 771 1108 856 1075 b 1026 546 993 925 1026 794 z m 869 546 b 807 910 869 753 853 853 b 667 974 772 951 728 974 b 525 910 606 974 560 951 b 461 546 479 853 461 753 b 525 182 461 339 479 239 b 667 118 560 140 606 118 b 807 182 728 118 772 140 b 869 546 853 239 869 339 z "},"１":{"ha":1333,"x_min":0,"x_max":0,"o":"m 803 1 l 646 1 l 646 925 l 390 811 l 390 964 l 669 1090 l 803 1090 z "},"２":{"ha":1333,"x_min":0,"x_max":0,"o":"m 993 782 b 889 524 992 676 969 615 l 549 136 l 1008 136 l 1008 1 l 340 1 l 340 124 l 763 606 b 838 781 817 667 838 717 b 660 972 838 893 764 972 b 482 781 549 972 482 896 l 482 751 l 325 751 l 325 782 b 660 1108 325 963 446 1108 b 993 782 874 1108 993 963 z "},"３":{"ha":1333,"x_min":0,"x_max":0,"o":"m 861 315 b 671 513 861 439 782 513 l 558 513 l 558 646 l 671 646 b 831 808 768 646 831 713 b 668 972 831 908 763 972 b 506 808 569 972 506 908 l 506 797 l 349 797 l 349 821 b 668 1108 349 985 467 1108 b 986 821 869 1108 986 985 b 821 581 986 708 922 613 b 1018 306 940 546 1018 451 b 668 -17 1018 108 872 -17 b 315 310 464 -17 315 108 l 315 326 l 474 326 l 474 318 b 668 119 474 190 556 119 b 861 315 778 119 861 189 z "},"４":{"ha":1333,"x_min":0,"x_max":0,"o":"m 450 368 l 736 368 l 736 846 z m 1018 368 l 1018 232 l 893 232 l 893 1 l 736 1 l 736 232 l 286 232 l 286 368 l 719 1090 l 893 1090 l 893 368 z "},"５":{"ha":1333,"x_min":0,"x_max":0,"o":"m 665 572 b 518 485 597 572 546 539 l 363 485 l 390 1090 l 947 1090 l 947 954 l 536 954 l 519 622 b 699 707 549 672 617 707 b 1007 343 875 707 1007 585 b 665 -17 1007 115 876 -17 b 325 293 469 -17 339 100 l 481 293 b 665 117 493 178 563 117 b 850 346 781 117 850 197 b 665 572 850 494 781 572 z "},"６":{"ha":1333,"x_min":0,"x_max":0,"o":"m 478 596 b 688 707 511 661 585 707 b 1015 346 882 707 1015 569 b 667 -17 1015 121 868 -17 b 390 131 544 -17 450 35 b 317 485 333 201 317 332 b 671 1108 317 940 421 1108 b 992 836 846 1108 967 1017 l 832 836 b 669 972 817 924 761 972 b 478 596 533 972 483 854 z m 476 346 b 667 119 476 203 550 119 b 860 346 785 119 860 203 b 667 571 860 486 785 571 b 476 346 550 571 476 486 z "},"７":{"ha":1333,"x_min":0,"x_max":0,"o":"m 333 954 l 333 1090 l 1000 1090 l 1000 968 l 635 1 l 469 1 l 840 954 z "},"８":{"ha":1333,"x_min":0,"x_max":0,"o":"m 667 513 b 456 314 543 513 456 436 b 667 117 456 192 543 117 b 876 314 789 117 876 192 b 667 513 876 436 789 513 z m 667 -17 b 300 306 450 -17 300 106 b 497 579 300 444 376 539 b 332 821 396 615 332 711 b 667 1108 332 986 456 1108 b 1000 821 876 1108 1000 986 b 835 579 1000 711 936 615 b 1033 306 957 539 1033 444 b 667 -17 1033 106 882 -17 z m 667 644 b 843 810 772 644 843 710 b 667 974 843 908 772 974 b 488 810 558 974 488 908 b 667 644 488 710 558 644 z "},"９":{"ha":1333,"x_min":0,"x_max":0,"o":"m 854 494 b 646 385 822 429 749 385 b 317 746 451 385 317 521 b 665 1108 317 971 467 1108 b 943 960 789 1108 885 1057 b 1015 606 1000 888 1015 758 b 663 -17 1015 147 910 -17 b 342 254 488 -17 365 75 l 503 254 b 664 119 517 167 572 119 b 854 494 799 119 850 236 z m 858 746 b 665 972 858 888 782 972 b 474 746 549 972 474 888 b 665 519 474 604 549 519 b 858 746 782 519 858 604 z "},"＠":{"ha":1333,"x_min":0,"x_max":0,"o":"m 193 407 b 667 1108 193 918 329 1108 b 1140 407 1006 1108 1140 918 l 1140 401 b 821 14 1140 151 1025 14 b 508 374 611 14 508 156 b 794 732 508 608 622 732 b 994 626 903 732 967 690 b 667 988 972 896 876 988 b 332 407 424 988 332 871 b 667 -172 332 -62 429 -172 b 846 -129 731 -172 799 -156 l 888 -242 b 667 -293 824 -274 746 -293 b 193 407 344 -293 193 -122 z m 1004 374 b 829 604 1004 528 949 604 b 654 374 710 604 654 528 b 829 140 654 217 710 140 b 1004 374 949 140 1004 217 z "},"Ａ":{"ha":1333,"x_min":0,"x_max":0,"o":"m 1125 1 l 958 1 l 882 243 l 451 243 l 375 1 l 208 1 l 571 1090 l 761 1090 z m 838 383 l 667 931 l 494 383 z "},"Ｂ":{"ha":1333,"x_min":0,"x_max":0,"o":"m 458 631 l 667 631 b 872 790 801 631 872 675 b 667 950 872 906 801 950 l 458 950 z m 726 1 l 297 1 l 297 1090 l 700 1090 b 1033 801 921 1090 1033 990 b 868 568 1033 678 969 597 b 1064 308 993 542 1064 442 b 726 1 1064 108 954 1 z m 903 317 b 690 492 903 439 839 492 l 458 492 l 458 142 l 690 142 b 903 317 839 142 903 194 z "},"Ｃ":{"ha":1333,"x_min":0,"x_max":0,"o":"m 410 546 b 672 124 410 283 467 124 b 922 363 826 124 913 215 l 1083 363 b 672 -17 1071 138 924 -17 b 249 546 328 -17 249 254 b 672 1108 249 836 329 1108 b 1083 728 924 1108 1071 953 l 922 728 b 672 967 913 875 826 967 b 410 546 465 967 410 804 z "},"Ｄ":{"ha":1333,"x_min":0,"x_max":0,"o":"m 921 546 b 849 871 921 710 897 804 b 653 950 808 926 744 950 l 439 950 l 439 142 l 653 142 b 849 221 744 142 808 165 b 921 546 897 288 921 382 z m 1082 546 b 986 138 1082 394 1068 249 b 668 1 921 47 817 1 l 278 1 l 278 1090 l 668 1090 b 986 954 817 1090 921 1044 b 1082 546 1068 843 1082 697 z "},"Ｅ":{"ha":1333,"x_min":0,"x_max":0,"o":"m 340 1 l 340 1090 l 985 1090 l 985 950 l 501 950 l 501 629 l 929 629 l 929 489 l 501 489 l 501 142 l 993 142 l 993 1 z "},"Ｆ":{"ha":1333,"x_min":0,"x_max":0,"o":"m 363 1 l 363 1090 l 999 1090 l 999 950 l 524 950 l 524 614 l 951 614 l 951 474 l 524 474 l 524 1 z "},"Ｇ":{"ha":1333,"x_min":0,"x_max":0,"o":"m 249 546 b 672 1108 249 840 331 1108 b 1083 728 924 1108 1071 953 l 922 728 b 672 967 913 875 826 967 b 410 546 463 967 410 804 b 672 124 410 235 494 124 b 924 390 828 124 924 228 l 924 431 l 679 431 l 679 569 l 1082 569 l 1082 1 l 964 1 l 939 139 b 661 -17 900 50 799 -17 b 249 546 333 -17 249 258 z "},"Ｈ":{"ha":1333,"x_min":0,"x_max":0,"o":"m 882 1 l 882 489 l 450 489 l 450 1 l 289 1 l 289 1090 l 450 1090 l 450 629 l 882 629 l 882 1090 l 1043 1090 l 1043 1 z "},"Ｉ":{"ha":1333,"x_min":0,"x_max":0,"o":"m 747 1090 l 747 1 l 586 1 l 586 1090 z "},"Ｊ":{"ha":1333,"x_min":0,"x_max":0,"o":"m 626 124 b 808 357 736 124 808 189 l 808 1090 l 969 1090 l 969 335 b 624 -17 969 108 840 -17 b 281 335 410 -17 281 108 l 281 344 l 443 344 b 626 124 446 186 515 124 z "},"Ｋ":{"ha":1333,"x_min":0,"x_max":0,"o":"m 1063 1090 l 710 558 l 1111 1 l 928 1 l 582 489 l 467 489 l 467 1 l 306 1 l 306 1090 l 467 1090 l 467 629 l 582 629 l 883 1090 z "},"Ｌ":{"ha":1333,"x_min":0,"x_max":0,"o":"m 368 1 l 368 1090 l 529 1090 l 529 142 l 1021 142 l 1021 1 z "},"Ｍ":{"ha":1333,"x_min":0,"x_max":0,"o":"m 743 1 l 589 1 l 285 763 l 285 1 l 125 1 l 125 1090 l 303 1090 l 665 185 l 1028 1090 l 1207 1090 l 1207 1 l 1046 1 l 1046 763 z "},"Ｎ":{"ha":1333,"x_min":0,"x_max":0,"o":"m 1051 1 l 886 1 l 442 803 l 442 1 l 281 1 l 281 1090 l 446 1090 l 890 288 l 890 1090 l 1051 1090 z "},"Ｏ":{"ha":1333,"x_min":0,"x_max":0,"o":"m 667 -17 b 243 546 322 -17 243 254 b 667 1108 243 836 324 1108 b 1089 546 1004 1108 1089 838 b 667 -17 1089 253 1006 -17 z m 667 124 b 928 546 869 124 928 282 b 667 967 928 804 871 967 b 404 546 460 967 404 804 b 667 124 404 283 461 124 z "},"Ｐ":{"ha":1333,"x_min":0,"x_max":0,"o":"m 472 550 l 714 550 b 917 750 849 550 917 624 b 714 950 917 876 849 950 l 472 950 z m 735 410 l 472 410 l 472 1 l 311 1 l 311 1090 l 735 1090 b 1078 750 951 1090 1078 964 b 735 410 1078 533 951 410 z "},"Ｑ":{"ha":1333,"x_min":0,"x_max":0,"o":"m 667 -17 b 243 546 326 -17 243 247 b 667 1108 243 840 325 1108 b 1089 546 1004 1108 1089 839 b 1014 171 1089 406 1071 274 l 1146 61 l 1054 -39 l 931 67 b 667 -17 867 14 781 -17 z m 667 124 b 814 165 728 124 778 138 l 669 289 l 760 390 l 892 276 b 928 546 918 346 928 436 b 667 967 928 804 871 967 b 404 546 460 967 404 804 b 667 124 404 283 461 124 z "},"Ｒ":{"ha":1333,"x_min":0,"x_max":0,"o":"m 888 97 l 881 228 b 676 413 872 361 824 413 l 453 413 l 453 1 l 292 1 l 292 1090 l 715 1090 b 1058 763 942 1090 1058 969 b 871 485 1058 618 996 521 b 1039 253 979 465 1029 396 l 1049 119 b 1068 1 1051 71 1058 31 l 904 1 b 888 97 896 26 890 58 z m 453 553 l 690 553 b 897 751 819 553 897 611 b 690 950 897 892 819 950 l 453 950 z "},"Ｓ":{"ha":1333,"x_min":0,"x_max":0,"o":"m 1043 303 b 667 -17 1043 117 903 -17 b 290 303 432 -17 290 117 l 290 325 l 453 325 l 453 300 b 667 122 453 194 533 122 b 881 300 801 122 881 194 b 708 476 881 389 826 451 l 568 506 b 290 806 396 542 290 636 b 646 1108 290 971 414 1108 b 1003 806 881 1108 1003 971 l 1003 789 l 840 789 l 840 806 b 646 968 840 901 772 968 b 453 806 521 968 453 901 b 619 643 453 714 507 667 l 760 614 b 1043 303 942 575 1043 472 z "},"Ｔ":{"ha":1333,"x_min":0,"x_max":0,"o":"m 279 950 l 279 1090 l 1054 1090 l 1054 950 l 747 950 l 747 1 l 586 1 l 586 950 z "},"Ｕ":{"ha":1333,"x_min":0,"x_max":0,"o":"m 667 124 b 906 426 835 124 906 229 l 906 1090 l 1067 1090 l 1067 406 b 667 -17 1067 150 938 -17 b 265 406 396 -17 265 150 l 265 1090 l 426 1090 l 426 426 b 667 124 426 229 497 124 z "},"Ｖ":{"ha":1333,"x_min":0,"x_max":0,"o":"m 665 197 l 957 1090 l 1125 1090 l 761 1 l 571 1 l 207 1090 l 375 1090 z "},"Ｗ":{"ha":1333,"x_min":0,"x_max":0,"o":"m 585 1090 l 749 1090 l 954 215 l 1153 1090 l 1319 1090 l 1057 1 l 861 1 l 667 831 l 471 1 l 275 1 l 14 1090 l 181 1090 l 379 215 z "},"Ｘ":{"ha":1333,"x_min":0,"x_max":0,"o":"m 1108 1 l 932 1 l 665 444 l 399 1 l 224 1 l 564 561 l 246 1090 l 421 1090 l 665 678 l 911 1090 l 1086 1090 l 765 561 z "},"Ｙ":{"ha":1333,"x_min":0,"x_max":0,"o":"m 665 579 l 939 1090 l 1108 1090 l 747 431 l 747 1 l 585 1 l 585 431 l 224 1090 l 392 1090 z "},"Ｚ":{"ha":1333,"x_min":0,"x_max":0,"o":"m 313 128 l 819 950 l 328 950 l 328 1090 l 1014 1090 l 1014 964 l 507 142 l 1021 142 l 1021 1 l 313 1 z "},"￦":{"ha":1333,"x_min":0,"x_max":0,"o":"m 585 1090 l 749 1090 l 857 597 l 1021 597 l 1125 1090 l 1292 1090 l 1179 597 l 1306 597 l 1306 508 l 1158 508 l 1043 1 l 847 1 l 738 508 l 596 508 l 485 1 l 289 1 l 174 508 l 28 508 l 28 597 l 154 597 l 42 1090 l 208 1090 l 313 597 l 476 597 z m 876 508 l 940 215 l 1003 508 z m 718 597 l 667 831 l 615 597 z m 331 508 l 393 215 l 457 508 z "},"＾":{"ha":1333,"x_min":0,"x_max":0,"o":"m 965 729 l 814 729 l 665 963 l 518 729 l 367 729 l 599 1090 l 733 1090 z "},"｀":{"ha":1333,"x_min":0,"x_max":0,"o":"m 693 886 l 504 1138 l 678 1138 l 829 886 z "},"ａ":{"ha":1333,"x_min":0,"x_max":0,"o":"m 838 85 b 618 -17 813 24 733 -17 b 324 231 438 -17 324 72 b 618 478 324 388 438 478 b 838 378 725 478 810 442 l 838 504 b 669 671 838 610 782 671 b 507 549 569 671 518 628 l 353 549 b 669 797 364 703 471 797 b 992 504 886 797 992 682 l 992 108 b 1010 1 992 69 999 28 l 853 1 b 838 85 843 22 838 51 z m 657 107 b 839 231 776 107 839 149 b 657 354 839 311 776 354 b 476 231 539 354 476 311 b 657 107 476 149 539 107 z "},"ｂ":{"ha":1333,"x_min":0,"x_max":0,"o":"m 504 1090 l 504 658 b 726 797 535 743 615 797 b 1038 390 918 797 1038 669 b 726 -17 1038 111 918 -17 b 504 122 615 -17 535 38 l 504 1 l 351 1 l 351 1090 z m 504 390 b 694 111 504 218 551 111 b 885 390 838 111 885 218 b 694 669 885 561 838 669 b 504 390 551 669 504 561 z "},"ｃ":{"ha":1333,"x_min":0,"x_max":0,"o":"m 328 390 b 672 797 328 650 442 797 b 1004 524 864 797 985 700 l 849 524 b 672 671 839 615 776 671 b 482 390 529 671 482 563 b 672 110 482 218 529 110 b 849 257 776 110 839 165 l 1004 257 b 672 -17 985 81 864 -17 b 328 390 442 -17 328 131 z "},"ｄ":{"ha":1333,"x_min":0,"x_max":0,"o":"m 828 658 l 828 1090 l 982 1090 l 982 1 l 828 1 l 828 122 b 606 -17 799 38 717 -17 b 294 390 414 -17 294 111 b 606 797 294 669 414 797 b 828 658 717 797 799 743 z m 828 390 b 639 669 828 561 781 669 b 447 390 494 669 447 561 b 639 111 447 218 494 111 b 828 390 781 111 828 218 z "},"ｅ":{"ha":1333,"x_min":0,"x_max":0,"o":"m 1008 343 l 476 343 b 669 111 482 197 539 111 b 836 235 767 111 825 158 l 993 235 b 669 -17 968 78 856 -17 b 322 390 436 -17 322 131 b 667 797 322 649 436 797 b 1010 390 896 797 1010 649 b 1008 343 1010 374 1010 358 z m 667 669 b 478 460 542 669 489 590 l 854 460 b 667 669 843 590 789 669 z "},"ｆ":{"ha":1333,"x_min":0,"x_max":0,"o":"m 911 975 l 838 975 b 714 864 742 975 714 946 l 714 779 l 911 779 l 911 653 l 714 653 l 714 1 l 561 1 l 561 653 l 450 653 l 450 779 l 561 779 l 561 871 b 817 1101 561 1040 635 1101 b 911 1094 849 1101 879 1100 z "},"ｇ":{"ha":1333,"x_min":0,"x_max":0,"o":"m 856 779 l 1010 779 l 1010 -28 b 681 -358 1010 -215 914 -358 b 360 -121 494 -358 381 -269 l 517 -121 b 681 -237 528 -197 586 -237 b 856 -40 801 -237 856 -167 l 856 122 b 633 -17 826 38 744 -17 b 322 390 442 -17 322 111 b 633 797 322 669 442 797 b 856 658 744 797 826 743 z m 856 390 b 667 669 856 561 810 669 b 475 390 522 669 475 561 b 667 111 475 218 522 111 b 856 390 810 111 856 218 z "},"ｈ":{"ha":1333,"x_min":0,"x_max":0,"o":"m 1008 488 l 1008 1 l 854 1 l 854 476 b 700 671 854 611 800 671 b 504 422 589 671 504 583 l 504 1 l 353 1 l 353 1090 l 504 1090 l 504 649 b 738 797 540 739 619 797 b 1008 488 911 797 1008 686 z "},"ｉ":{"ha":1333,"x_min":0,"x_max":0,"o":"m 743 1 l 589 1 l 589 779 l 743 779 z m 743 926 l 589 926 l 589 1090 l 743 1090 z "},"ｊ":{"ha":1333,"x_min":0,"x_max":0,"o":"m 765 779 l 765 -103 b 522 -336 765 -258 683 -336 b 457 -333 504 -336 474 -335 l 457 -208 l 508 -208 b 611 -96 576 -208 611 -176 l 611 779 z m 765 926 l 611 926 l 611 1090 l 765 1090 z "},"ｋ":{"ha":1333,"x_min":0,"x_max":0,"o":"m 521 1 l 368 1 l 368 1090 l 521 1090 l 521 468 l 600 468 l 813 779 l 983 779 l 725 406 l 1019 1 l 843 1 l 597 346 l 521 346 z "},"ｌ":{"ha":1333,"x_min":0,"x_max":0,"o":"m 743 1 l 590 1 l 590 1090 l 743 1090 z "},"ｍ":{"ha":1333,"x_min":0,"x_max":0,"o":"m 743 422 l 743 1 l 589 1 l 589 504 b 449 671 589 617 542 671 b 263 424 340 671 263 588 l 263 1 l 111 1 l 111 779 l 263 779 l 263 651 b 485 797 297 740 369 797 b 718 642 600 797 685 740 b 963 797 761 747 844 797 b 1222 499 1129 797 1222 688 l 1222 1 l 1068 1 l 1068 504 b 928 671 1068 617 1019 671 b 743 422 819 671 743 585 z "},"ｎ":{"ha":1333,"x_min":0,"x_max":0,"o":"m 994 488 l 994 1 l 840 1 l 840 476 b 686 671 840 611 786 671 b 490 422 575 671 490 583 l 490 1 l 339 1 l 339 779 l 490 779 l 490 649 b 724 797 526 739 606 797 b 994 488 897 797 994 686 z "},"ｏ":{"ha":1333,"x_min":0,"x_max":0,"o":"m 667 110 b 857 390 810 110 857 218 b 667 671 857 563 810 671 b 476 390 524 671 476 563 b 667 110 476 218 524 110 z m 667 797 b 1010 390 896 797 1010 650 b 667 -17 1010 131 896 -17 b 322 390 436 -17 322 131 b 667 797 322 650 436 797 z "},"ｐ":{"ha":1333,"x_min":0,"x_max":0,"o":"m 503 779 l 503 658 b 726 797 533 743 615 797 b 1038 390 918 797 1038 669 b 726 -17 1038 111 918 -17 b 503 122 615 -17 533 38 l 503 -336 l 351 -336 l 351 779 z m 694 110 b 883 390 836 110 883 218 b 694 671 883 563 836 671 b 503 390 550 671 503 563 b 694 110 503 218 550 110 z "},"ｑ":{"ha":1333,"x_min":0,"x_max":0,"o":"m 829 658 l 829 779 l 982 779 l 982 -336 l 829 -336 l 829 122 b 607 -17 799 38 717 -17 b 294 390 415 -17 294 111 b 607 797 294 669 415 797 b 829 658 717 797 799 743 z m 639 110 b 829 390 782 110 829 218 b 639 671 829 563 782 671 b 449 390 496 671 449 563 b 639 110 449 218 496 110 z "},"ｒ":{"ha":1333,"x_min":0,"x_max":0,"o":"m 842 669 b 631 400 711 669 631 578 l 631 1 l 479 1 l 479 779 l 631 779 l 631 649 b 846 797 664 747 726 797 b 910 792 869 797 896 796 l 907 667 b 842 669 894 668 869 669 z "},"ｓ":{"ha":1333,"x_min":0,"x_max":0,"o":"m 654 797 b 944 569 836 797 944 706 l 944 551 l 792 551 l 792 571 b 654 675 792 628 744 675 b 515 572 563 675 515 628 b 729 456 515 488 585 486 b 974 218 897 425 974 353 b 667 -17 974 85 854 -17 b 358 218 481 -17 358 82 l 358 240 l 511 240 l 511 218 b 667 106 511 147 574 106 b 821 214 758 106 821 149 b 608 343 821 304 749 314 b 364 569 440 372 364 440 b 654 797 364 703 471 797 z "},"ｔ":{"ha":1333,"x_min":0,"x_max":0,"o":"m 707 653 l 707 238 b 840 117 707 140 743 117 l 918 117 l 918 -6 b 814 -10 893 -10 847 -10 b 554 210 632 -10 554 43 l 554 653 l 442 653 l 442 779 l 554 779 l 554 1000 l 707 1000 l 707 779 l 918 779 l 918 653 z "},"ｕ":{"ha":1333,"x_min":0,"x_max":0,"o":"m 339 293 l 339 779 l 492 779 l 492 304 b 646 110 492 169 546 110 b 842 358 758 110 842 197 l 842 779 l 994 779 l 994 1 l 842 1 l 842 132 b 608 -17 806 42 726 -17 b 339 293 436 -17 339 94 z "},"ｖ":{"ha":1333,"x_min":0,"x_max":0,"o":"m 879 779 l 1040 779 l 756 1 l 578 1 l 293 779 l 454 779 l 667 169 z "},"ｗ":{"ha":1333,"x_min":0,"x_max":0,"o":"m 589 779 l 744 779 l 929 181 l 1108 779 l 1267 779 l 1014 1 l 850 1 l 667 606 l 483 1 l 318 1 l 67 779 l 225 779 l 403 181 z "},"ｘ":{"ha":1333,"x_min":0,"x_max":0,"o":"m 1022 1 l 857 1 l 667 293 l 478 1 l 311 1 l 575 400 l 326 779 l 496 779 l 667 506 l 840 779 l 1007 779 l 760 400 z "},"ｙ":{"ha":1333,"x_min":0,"x_max":0,"o":"m 547 -124 l 592 -1 l 293 779 l 453 779 l 669 190 l 881 779 l 1040 779 l 686 -171 b 450 -336 635 -308 565 -336 b 386 -335 429 -336 404 -336 l 386 -211 l 438 -211 b 547 -124 488 -211 522 -194 z "},"ｚ":{"ha":1333,"x_min":0,"x_max":0,"o":"m 950 779 l 950 665 l 561 128 l 961 128 l 961 1 l 371 1 l 371 115 l 760 653 l 383 653 l 383 779 z "},"ㄱ":{"ha":1333,"x_min":0,"x_max":0,"o":"m 243 907 l 1076 907 l 1076 217 l 925 217 l 925 775 l 243 775 z "},"ㄲ":{"ha":1333,"x_min":0,"x_max":0,"o":"m 188 907 l 626 907 l 626 217 l 476 217 l 476 775 l 188 775 z m 694 907 l 1132 907 l 1132 217 l 981 217 l 981 775 l 694 775 z "},"ㄳ":{"ha":1333,"x_min":0,"x_max":0,"o":"m 167 907 l 592 907 l 592 217 l 442 217 l 442 775 l 167 775 z m 831 650 l 831 907 l 981 907 l 981 650 b 1154 346 981 472 1046 389 l 1154 215 b 906 388 1044 242 949 310 b 656 215 865 310 767 242 l 656 346 b 831 650 765 389 831 472 z "},"ㄴ":{"ha":1333,"x_min":0,"x_max":0,"o":"m 1090 217 l 257 217 l 257 907 l 407 907 l 407 349 l 1090 349 z "},"ㄵ":{"ha":1333,"x_min":0,"x_max":0,"o":"m 1142 907 l 1142 775 l 960 775 l 960 625 b 1150 347 960 468 1042 382 l 1150 217 b 885 390 1039 238 931 310 b 621 217 842 310 733 238 l 621 347 b 810 625 729 382 810 468 l 810 775 l 632 775 l 632 907 z m 563 349 l 563 217 l 185 217 l 185 907 l 335 907 l 335 349 z "},"ㄶ":{"ha":1333,"x_min":0,"x_max":0,"o":"m 576 349 l 576 217 l 185 217 l 185 907 l 335 907 l 335 349 z m 576 835 l 801 835 l 801 968 l 956 968 l 956 835 l 1182 835 l 1182 707 l 576 707 z m 1000 422 b 975 493 1000 450 992 475 b 879 528 954 515 921 528 b 783 493 836 528 804 515 b 757 422 765 475 757 450 b 783 353 757 394 765 371 b 879 317 804 331 836 317 b 975 353 921 317 954 331 b 1000 422 992 371 1000 394 z m 610 422 b 679 582 610 490 636 544 b 879 650 729 626 800 650 b 1078 582 957 650 1028 626 b 1147 422 1121 544 1147 490 b 1078 263 1147 356 1121 301 b 879 196 1028 218 957 196 b 679 263 800 196 729 218 b 610 422 636 301 610 356 z "},"ㄷ":{"ha":1333,"x_min":0,"x_max":0,"o":"m 407 349 l 1090 349 l 1090 217 l 257 217 l 257 907 l 1076 907 l 1076 775 l 407 775 z "},"ㄸ":{"ha":1333,"x_min":0,"x_max":0,"o":"m 843 349 l 1139 349 l 1139 217 l 693 217 l 693 907 l 1125 907 l 1125 775 l 843 775 z m 356 775 l 356 349 l 631 349 l 631 217 l 206 217 l 206 907 l 615 907 l 615 775 z "},"ㄹ":{"ha":1333,"x_min":0,"x_max":0,"o":"m 414 333 l 1097 333 l 1097 203 l 264 203 l 264 629 l 918 629 l 918 789 l 264 789 l 264 921 l 1069 921 l 1069 499 l 414 499 z "},"ㄺ":{"ha":1333,"x_min":0,"x_max":0,"o":"m 721 336 l 721 217 l 199 217 l 199 622 l 497 622 l 497 788 l 199 788 l 199 907 l 643 907 l 643 506 l 343 506 l 343 336 z m 1142 907 l 1142 217 l 992 217 l 992 776 l 707 776 l 707 907 z "},"ㄻ":{"ha":1333,"x_min":0,"x_max":0,"o":"m 701 907 l 1142 907 l 1142 217 l 701 217 z m 843 781 l 843 342 l 1000 342 l 1000 781 z m 644 336 l 644 217 l 199 217 l 199 622 l 474 622 l 474 788 l 199 788 l 199 907 l 618 907 l 618 506 l 343 506 l 343 336 z "},"ㄼ":{"ha":1333,"x_min":0,"x_max":0,"o":"m 843 678 l 1000 678 l 1000 907 l 1142 907 l 1142 217 l 701 217 l 701 907 l 843 907 z m 843 561 l 843 342 l 1000 342 l 1000 561 z m 644 336 l 644 217 l 199 217 l 199 622 l 474 622 l 474 788 l 199 788 l 199 907 l 618 907 l 618 506 l 343 506 l 343 336 z "},"ㄽ":{"ha":1333,"x_min":0,"x_max":0,"o":"m 631 336 l 631 217 l 199 217 l 199 622 l 474 622 l 474 788 l 199 788 l 199 907 l 618 907 l 618 506 l 343 506 l 343 336 z m 838 639 l 838 907 l 988 907 l 988 639 b 1154 346 988 468 1050 386 l 1154 215 b 913 381 1049 240 958 306 b 669 215 869 306 776 239 l 669 346 b 838 639 775 386 838 467 z "},"ㄾ":{"ha":1333,"x_min":0,"x_max":0,"o":"m 847 336 l 1151 336 l 1151 217 l 701 217 l 701 907 l 1142 907 l 1142 788 l 847 788 l 847 622 l 1128 622 l 1128 506 l 847 506 z m 644 336 l 644 217 l 199 217 l 199 622 l 474 622 l 474 788 l 199 788 l 199 907 l 618 907 l 618 506 l 343 506 l 343 336 z "},"ㄿ":{"ha":1333,"x_min":0,"x_max":0,"o":"m 867 783 l 867 340 l 949 340 l 949 783 z m 1082 340 l 1149 340 l 1149 217 l 669 217 l 669 340 l 733 340 l 733 783 l 674 783 l 674 907 l 1142 907 l 1142 783 l 1082 783 z m 633 336 l 633 217 l 199 217 l 199 622 l 467 622 l 467 788 l 199 788 l 199 907 l 611 907 l 611 506 l 343 506 l 343 336 z "},"ㅀ":{"ha":1333,"x_min":0,"x_max":0,"o":"m 644 336 l 644 217 l 199 217 l 199 622 l 463 622 l 463 788 l 199 788 l 199 907 l 608 907 l 608 506 l 343 506 l 343 336 z m 651 835 l 835 835 l 835 968 l 990 968 l 990 835 l 1178 835 l 1178 707 l 651 707 z m 1008 422 b 983 500 1008 456 1000 481 b 914 528 968 518 944 528 b 843 500 883 528 860 518 b 818 422 826 481 818 456 b 843 346 818 390 826 364 b 914 317 860 328 883 317 b 983 346 944 317 968 328 b 1008 422 1000 364 1008 390 z m 672 422 b 743 592 672 494 699 553 b 914 650 785 629 844 650 b 1085 592 983 650 1042 629 b 1154 422 1128 553 1154 494 b 1085 254 1154 350 1128 293 b 914 196 1042 215 983 196 b 743 254 844 196 785 215 b 672 422 699 293 672 350 z "},"ㅁ":{"ha":1333,"x_min":0,"x_max":0,"o":"m 257 907 l 1076 907 l 1076 217 l 257 217 z m 925 775 l 407 775 l 407 349 l 925 349 z "},"ㅂ":{"ha":1333,"x_min":0,"x_max":0,"o":"m 407 679 l 925 679 l 925 907 l 1076 907 l 1076 217 l 257 217 l 257 907 l 407 907 z m 925 547 l 407 547 l 407 349 l 925 349 z "},"ㅃ":{"ha":1333,"x_min":0,"x_max":0,"o":"m 375 675 l 600 675 l 600 907 l 744 907 l 744 675 l 957 675 l 957 907 l 1104 907 l 1104 217 l 229 217 l 229 907 l 375 907 z m 957 550 l 744 550 l 744 343 l 957 343 z m 600 550 l 375 550 l 375 343 l 600 343 z "},"ㅄ":{"ha":1333,"x_min":0,"x_max":0,"o":"m 340 678 l 496 678 l 496 907 l 638 907 l 638 217 l 199 217 l 199 907 l 340 907 z m 340 561 l 340 342 l 496 342 l 496 561 z m 838 639 l 838 907 l 988 907 l 988 639 b 1154 346 988 468 1050 386 l 1154 215 b 913 381 1049 240 958 306 b 669 215 869 306 776 239 l 669 346 b 838 639 775 386 838 467 z "},"ㅅ":{"ha":1333,"x_min":0,"x_max":0,"o":"m 665 472 b 203 208 585 340 419 235 l 203 340 b 589 772 439 378 589 525 l 589 921 l 740 921 l 740 772 b 1126 340 740 525 886 376 l 1126 208 b 665 472 911 236 744 340 z "},"ㅆ":{"ha":1333,"x_min":0,"x_max":0,"o":"m 665 215 b 435 431 572 256 482 344 b 144 215 383 343 269 254 l 144 347 b 357 726 276 404 357 525 l 357 907 l 508 907 l 508 726 b 664 363 508 540 578 425 b 821 726 749 426 821 540 l 821 907 l 972 907 l 972 726 b 1185 347 972 525 1051 406 l 1185 215 b 894 431 1058 254 946 343 b 665 215 847 344 758 257 z "},"ㅇ":{"ha":1333,"x_min":0,"x_max":0,"o":"m 374 563 b 443 400 374 496 399 440 b 667 329 493 356 571 329 b 890 400 763 329 839 356 b 958 563 935 440 958 496 b 890 724 958 628 935 683 b 667 796 839 769 763 796 b 443 724 571 796 493 769 b 374 563 399 683 374 628 z m 224 563 b 347 829 224 674 268 765 b 667 928 425 892 535 928 b 985 829 797 928 908 892 b 1110 563 1064 765 1110 674 b 985 296 1110 451 1064 360 b 667 197 908 232 797 197 b 347 296 535 197 425 232 b 224 563 268 360 224 451 z "},"ㅈ":{"ha":1333,"x_min":0,"x_max":0,"o":"m 589 775 l 236 775 l 236 907 l 1096 907 l 1096 775 l 740 775 b 1108 342 740 529 874 381 l 1108 210 b 665 467 913 236 749 338 b 219 210 581 336 415 236 l 219 342 b 589 775 449 381 589 529 z "},"ㅉ":{"ha":1333,"x_min":0,"x_max":0,"o":"m 1163 775 l 965 775 l 965 706 b 1171 347 965 511 1044 403 l 1171 215 b 888 424 1047 250 940 336 b 665 215 842 339 757 256 b 442 424 572 254 489 339 b 158 215 389 338 281 250 l 158 347 b 364 706 283 400 364 511 l 364 775 l 186 775 l 186 907 l 1163 907 z m 814 775 l 515 775 l 515 706 b 664 363 515 533 579 421 b 814 706 749 422 814 533 z "},"ㅊ":{"ha":1333,"x_min":0,"x_max":0,"o":"m 1096 819 l 1096 688 l 743 688 b 1108 339 763 499 903 371 l 1108 206 b 665 457 914 231 749 331 b 219 206 581 329 414 231 l 219 339 b 586 688 424 371 567 499 l 236 688 l 236 819 l 589 819 l 589 999 l 740 999 l 740 819 z "},"ㅋ":{"ha":1333,"x_min":0,"x_max":0,"o":"m 257 907 l 1076 907 l 1076 217 l 925 217 l 925 471 b 579 447 826 454 697 447 l 257 447 l 257 578 l 581 578 b 925 597 693 578 825 583 l 925 775 l 257 775 z "},"ㅌ":{"ha":1333,"x_min":0,"x_max":0,"o":"m 414 333 l 1097 333 l 1097 203 l 264 203 l 264 921 l 1069 921 l 1069 789 l 414 789 l 414 629 l 1056 629 l 1056 499 l 414 499 z "},"ㅍ":{"ha":1333,"x_min":0,"x_max":0,"o":"m 808 600 l 808 775 l 529 775 l 529 349 l 776 349 b 808 600 801 414 808 510 z m 958 775 l 958 610 b 926 349 958 511 951 415 l 1132 349 l 1132 217 l 201 217 l 201 349 l 378 349 l 378 775 l 229 775 l 229 907 l 1104 907 l 1104 775 z "},"ㅎ":{"ha":1333,"x_min":0,"x_max":0,"o":"m 204 860 l 588 860 l 588 1013 l 742 1013 l 742 860 l 1129 860 l 1129 729 l 204 729 z m 925 417 b 894 481 925 442 914 463 b 667 531 853 515 774 531 b 439 481 560 531 479 515 b 407 417 418 463 407 442 b 439 353 407 390 418 369 b 667 301 479 318 560 301 b 894 353 774 301 853 318 b 925 417 914 369 925 390 z m 257 417 b 325 565 257 476 282 526 b 667 660 396 628 515 660 b 1007 565 817 660 938 628 b 1076 417 1051 526 1076 476 b 1007 268 1076 356 1051 307 b 667 172 938 206 817 172 b 325 268 515 172 396 206 b 257 417 282 307 257 356 z "},"ㅏ":{"ha":1333,"x_min":0,"x_max":0,"o":"m 561 1176 l 713 1176 l 713 663 l 944 663 l 944 532 l 713 532 l 713 -82 l 561 -82 z "},"ㅐ":{"ha":1333,"x_min":0,"x_max":0,"o":"m 896 1176 l 896 -82 l 750 -82 l 750 544 l 582 544 l 582 -67 l 435 -67 l 435 1169 l 582 1169 l 582 676 l 750 676 l 750 1176 z "},"ㅑ":{"ha":1333,"x_min":0,"x_max":0,"o":"m 561 1176 l 713 1176 l 713 863 l 942 863 l 942 731 l 713 731 l 713 444 l 942 444 l 942 313 l 713 313 l 713 -81 l 561 -81 z "},"ㅒ":{"ha":1333,"x_min":0,"x_max":0,"o":"m 896 1176 l 896 -81 l 750 -81 l 750 300 l 582 300 l 582 -67 l 435 -67 l 435 1169 l 582 1169 l 582 882 l 750 882 l 750 1176 z m 750 753 l 582 753 l 582 431 l 750 431 z "},"ㅓ":{"ha":1333,"x_min":0,"x_max":0,"o":"m 617 1176 l 768 1176 l 768 -82 l 617 -82 l 617 532 l 385 532 l 385 663 l 617 663 z "},"ㅔ":{"ha":1333,"x_min":0,"x_max":0,"o":"m 643 1169 l 643 -67 l 497 -67 l 497 544 l 286 544 l 286 675 l 497 675 l 497 1169 z m 914 1176 l 914 -82 l 768 -82 l 768 1176 z "},"ㅕ":{"ha":1333,"x_min":0,"x_max":0,"o":"m 617 1176 l 768 1176 l 768 -81 l 617 -81 l 617 319 l 388 319 l 388 451 l 617 451 l 617 731 l 388 731 l 388 863 l 617 863 z "},"ㅖ":{"ha":1333,"x_min":0,"x_max":0,"o":"m 643 1169 l 643 -67 l 497 -67 l 497 325 l 290 325 l 290 456 l 497 456 l 497 735 l 290 735 l 290 865 l 497 865 l 497 1169 z m 914 1176 l 914 -82 l 768 -82 l 768 1176 z "},"ㅗ":{"ha":1333,"x_min":0,"x_max":0,"o":"m 1226 238 l 107 238 l 107 368 l 589 368 l 589 886 l 739 886 l 739 368 l 1226 368 z "},"ㅘ":{"ha":1333,"x_min":0,"x_max":0,"o":"m 925 1176 l 1076 1176 l 1076 663 l 1288 663 l 1288 532 l 1076 532 l 1076 -81 l 925 -81 l 925 110 b 646 38 874 61 772 38 l 63 38 l 63 168 l 354 168 l 354 611 l 506 611 l 506 168 l 672 168 b 925 233 786 168 875 190 z "},"ㅙ":{"ha":1333,"x_min":0,"x_max":0,"o":"m 326 168 l 326 610 l 474 610 l 474 168 l 524 168 b 750 224 625 168 704 186 l 750 1169 l 896 1169 l 896 681 l 1028 681 l 1028 1176 l 1174 1176 l 1174 -81 l 1028 -81 l 1028 547 l 896 547 l 896 -65 l 750 -65 l 750 101 b 496 38 703 58 613 38 l 111 38 l 111 168 z "},"ㅚ":{"ha":1333,"x_min":0,"x_max":0,"o":"m 1149 1176 l 1149 -82 l 997 -82 l 997 110 b 692 38 943 58 831 38 l 104 38 l 104 168 l 413 168 l 413 611 l 564 611 l 564 168 l 729 168 b 997 233 842 168 940 186 l 997 1176 z "},"ㅛ":{"ha":1333,"x_min":0,"x_max":0,"o":"m 1226 238 l 107 238 l 107 368 l 372 368 l 372 857 l 522 857 l 522 368 l 810 368 l 810 857 l 958 857 l 958 368 l 1226 368 z "},"ㅜ":{"ha":1333,"x_min":0,"x_max":0,"o":"m 589 486 l 107 486 l 107 618 l 1226 618 l 1226 486 l 740 486 l 740 -19 l 589 -19 z "},"ㅝ":{"ha":1333,"x_min":0,"x_max":0,"o":"m 999 1176 l 1149 1176 l 1149 -81 l 999 -81 l 999 135 l 717 135 l 717 265 l 999 265 z m 683 419 l 524 419 l 524 -82 l 372 -82 l 372 419 l 90 419 l 90 551 l 646 551 b 913 578 739 551 838 558 l 913 453 b 683 419 850 428 769 419 z "},"ㅞ":{"ha":1333,"x_min":0,"x_max":0,"o":"m 1028 -82 l 1028 1176 l 1174 1176 l 1174 -82 z m 499 432 l 463 432 l 463 -83 l 314 -83 l 314 432 l 111 432 l 111 563 l 506 563 b 713 586 582 563 651 565 l 713 463 b 499 432 653 439 581 432 z m 919 1169 l 919 -67 l 772 -67 l 772 153 l 582 153 l 582 283 l 772 283 l 772 1169 z "},"ㅟ":{"ha":1333,"x_min":0,"x_max":0,"o":"m 713 393 l 546 393 l 546 -83 l 394 -83 l 394 393 l 90 393 l 90 525 l 751 525 b 999 586 860 525 943 544 l 999 1176 l 1149 1176 l 1149 -82 l 999 -82 l 999 461 b 713 393 944 417 853 393 z "},"ㅠ":{"ha":1333,"x_min":0,"x_max":0,"o":"m 360 486 l 107 486 l 107 618 l 1226 618 l 1226 486 l 978 486 l 978 -1 l 829 -1 l 829 486 l 508 486 l 508 -1 l 360 -1 z "},"ㅡ":{"ha":1333,"x_min":0,"x_max":0,"o":"m 1226 238 l 107 238 l 107 368 l 1226 368 z "},"ㅢ":{"ha":1333,"x_min":0,"x_max":0,"o":"m 1135 1176 l 1135 -82 l 983 -82 l 983 110 b 678 38 929 58 817 38 l 90 38 l 90 168 l 715 168 b 983 233 828 168 926 186 l 983 1176 z "},"ㅣ":{"ha":1333,"x_min":0,"x_max":0,"o":"m 590 1176 l 742 1176 l 742 -81 l 590 -81 z "},"ㅥ":{"ha":1333,"x_min":0,"x_max":0,"o":"m 1146 349 l 1146 217 l 692 217 l 692 907 l 842 907 l 842 349 z m 632 349 l 632 217 l 192 217 l 192 907 l 342 907 l 342 349 z "},"ㅦ":{"ha":1333,"x_min":0,"x_max":0,"o":"m 842 349 l 1139 349 l 1139 217 l 692 217 l 692 907 l 1131 907 l 1131 775 l 842 775 z m 632 349 l 632 217 l 192 217 l 192 907 l 342 907 l 342 349 z "},"ㅧ":{"ha":1333,"x_min":0,"x_max":0,"o":"m 607 349 l 607 217 l 192 217 l 192 907 l 342 907 l 342 349 z m 831 650 l 831 907 l 981 907 l 981 650 b 1154 346 981 472 1046 389 l 1154 215 b 906 388 1044 242 949 310 b 656 215 865 310 767 242 l 656 346 b 831 650 765 389 831 472 z "},"ㅨ":{"ha":1333,"x_min":0,"x_max":0,"o":"m 607 349 l 607 217 l 192 217 l 192 907 l 342 907 l 342 349 z m 882 642 l 782 336 l 976 336 z m 882 963 l 1154 217 l 607 217 z "},"ㅩ":{"ha":1333,"x_min":0,"x_max":0,"o":"m 990 639 l 990 907 l 1119 907 l 1119 639 b 1249 344 1119 467 1169 385 l 1249 213 b 1056 367 1164 238 1093 301 b 860 213 1019 297 946 238 l 860 344 b 990 639 942 383 990 465 z m 507 338 l 507 217 l 113 217 l 113 622 l 328 622 l 328 786 l 113 786 l 113 907 l 453 907 l 453 504 l 238 504 l 238 338 z m 822 907 l 822 217 l 693 217 l 693 776 l 497 776 l 497 907 z "},"ㅪ":{"ha":1333,"x_min":0,"x_max":0,"o":"m 654 336 l 654 217 l 199 217 l 199 622 l 483 622 l 483 788 l 199 788 l 199 907 l 629 907 l 629 506 l 343 506 l 343 336 z m 863 349 l 1150 349 l 1150 217 l 713 217 l 713 907 l 1142 907 l 1142 775 l 863 775 z "},"ㅫ":{"ha":1333,"x_min":0,"x_max":0,"o":"m 619 679 l 718 679 l 718 907 l 842 907 l 842 217 l 497 217 l 497 907 l 619 907 z m 619 561 l 619 343 l 718 343 l 718 561 z m 993 639 l 993 907 l 1122 907 l 1122 639 b 1249 344 1122 468 1169 385 l 1249 213 b 1057 367 1165 238 1094 301 b 864 213 1022 299 950 238 l 864 344 b 993 639 946 383 993 467 z m 460 338 l 460 217 l 113 217 l 113 622 l 315 622 l 315 786 l 113 786 l 113 907 l 440 907 l 440 504 l 238 504 l 238 338 z "},"ㅬ":{"ha":1333,"x_min":0,"x_max":0,"o":"m 896 647 l 797 336 l 990 336 z m 199 217 l 199 622 l 474 622 l 474 788 l 199 788 l 199 907 l 618 907 l 618 506 l 343 506 l 343 336 l 638 336 l 638 251 l 896 961 l 1164 217 z "},"ㅭ":{"ha":1333,"x_min":0,"x_max":0,"o":"m 1004 438 b 968 535 1004 479 992 514 b 914 554 954 547 936 554 b 854 533 889 554 868 547 b 822 438 832 513 822 478 b 858 338 822 393 833 357 b 914 321 872 326 890 321 b 974 343 939 321 960 329 b 1004 438 994 364 1004 397 z m 1163 776 l 665 776 l 665 907 l 1163 907 z m 644 336 l 644 217 l 199 217 l 199 622 l 463 622 l 463 788 l 199 788 l 199 907 l 608 907 l 608 506 l 343 506 l 343 336 z m 675 438 b 763 631 675 521 708 589 b 913 678 803 661 853 678 b 1051 639 967 678 1014 664 b 1150 438 1114 599 1150 528 b 1057 239 1150 349 1115 281 b 913 197 1018 213 969 197 b 772 236 857 197 810 211 b 675 438 711 276 675 347 z "},"ㅮ":{"ha":1333,"x_min":0,"x_max":0,"o":"m 846 678 l 1000 678 l 1000 907 l 1142 907 l 1142 217 l 704 217 l 704 907 l 846 907 z m 846 561 l 846 342 l 1000 342 l 1000 561 z m 199 907 l 635 907 l 635 217 l 199 217 z m 340 781 l 340 342 l 493 342 l 493 781 z "},"ㅯ":{"ha":1333,"x_min":0,"x_max":0,"o":"m 199 907 l 635 907 l 635 217 l 199 217 z m 340 781 l 340 342 l 493 342 l 493 781 z m 838 639 l 838 907 l 988 907 l 988 639 b 1154 346 988 468 1050 386 l 1154 215 b 913 381 1049 240 958 306 b 669 215 869 306 776 239 l 669 346 b 838 639 775 386 838 467 z "},"ㅰ":{"ha":1333,"x_min":0,"x_max":0,"o":"m 340 781 l 340 342 l 493 342 l 493 781 z m 896 647 l 797 336 l 990 336 z m 199 217 l 199 907 l 635 907 l 635 243 l 896 961 l 1164 217 z "},"ㅱ":{"ha":1333,"x_min":0,"x_max":0,"o":"m 313 1050 l 1021 1050 l 1021 547 l 313 547 z m 874 924 l 460 924 l 460 674 l 874 674 z m 518 257 b 543 199 518 235 526 214 b 667 165 568 178 611 165 b 789 199 722 165 764 178 b 815 257 806 214 815 235 b 789 315 815 281 806 300 b 667 350 764 338 722 350 b 543 315 611 350 568 338 b 518 257 526 300 518 281 z m 371 257 b 436 401 371 317 394 365 b 667 475 490 449 572 475 b 897 401 760 475 843 449 b 963 257 939 365 963 317 b 897 113 963 199 939 150 b 667 40 843 65 760 40 b 436 113 572 40 490 65 b 371 257 394 150 371 199 z "},"ㅲ":{"ha":1333,"x_min":0,"x_max":0,"o":"m 340 678 l 514 678 l 514 907 l 656 907 l 656 217 l 199 217 l 199 907 l 340 907 z m 340 561 l 340 342 l 514 342 l 514 561 z m 1142 907 l 1142 217 l 992 217 l 992 776 l 721 776 l 721 907 z "},"ㅳ":{"ha":1333,"x_min":0,"x_max":0,"o":"m 340 678 l 500 678 l 500 907 l 642 907 l 642 217 l 199 217 l 199 907 l 340 907 z m 340 561 l 340 342 l 500 342 l 500 561 z m 865 349 l 1150 349 l 1150 217 l 715 217 l 715 907 l 1142 907 l 1142 775 l 865 775 z "},"ㅴ":{"ha":1333,"x_min":0,"x_max":0,"o":"m 268 679 l 372 679 l 372 907 l 497 907 l 497 217 l 144 217 l 144 907 l 268 907 z m 268 561 l 268 343 l 372 343 l 372 561 z m 650 639 l 650 907 l 779 907 l 779 639 b 903 344 779 468 826 385 l 903 213 b 715 367 821 238 751 303 b 525 213 679 299 608 238 l 525 344 b 650 639 604 383 650 467 z m 1178 907 l 1178 217 l 1049 217 l 1049 776 l 863 776 l 863 907 z "},"ㅵ":{"ha":1333,"x_min":0,"x_max":0,"o":"m 1178 907 l 1178 776 l 1015 776 l 1015 347 l 1188 347 l 1188 217 l 896 217 l 896 907 z m 267 679 l 361 679 l 361 907 l 485 907 l 485 217 l 144 217 l 144 907 l 267 907 z m 267 561 l 267 343 l 361 343 l 361 561 z m 626 632 l 626 907 l 753 907 l 753 632 b 871 344 753 464 794 385 l 871 213 b 689 360 792 239 725 297 b 508 213 654 294 589 239 l 508 344 b 626 632 585 385 626 464 z "},"ㅶ":{"ha":1333,"x_min":0,"x_max":0,"o":"m 1150 775 l 994 775 l 994 639 b 1154 346 994 468 1057 385 l 1154 215 b 919 381 1051 239 964 306 b 683 215 876 304 786 239 l 683 346 b 844 639 782 383 844 467 l 844 775 l 694 775 l 694 907 l 1150 907 z m 340 678 l 500 678 l 500 907 l 642 907 l 642 217 l 199 217 l 199 907 l 340 907 z m 340 561 l 340 342 l 500 342 l 500 561 z "},"ㅷ":{"ha":1333,"x_min":0,"x_max":0,"o":"m 340 678 l 500 678 l 500 907 l 642 907 l 642 217 l 199 217 l 199 907 l 340 907 z m 340 561 l 340 342 l 500 342 l 500 561 z m 863 336 l 1151 336 l 1151 217 l 718 217 l 718 907 l 1142 907 l 1142 788 l 863 788 l 863 622 l 1128 622 l 1128 506 l 863 506 z "},"ㅸ":{"ha":1333,"x_min":0,"x_max":0,"o":"m 460 907 l 874 907 l 874 1050 l 1021 1050 l 1021 547 l 313 547 l 313 1050 l 460 1050 z m 874 782 l 460 782 l 460 674 l 874 674 z m 518 257 b 543 199 518 235 526 214 b 667 165 568 178 611 165 b 789 199 722 165 764 178 b 815 257 806 214 815 235 b 789 315 815 281 806 300 b 667 350 764 338 722 350 b 543 315 611 350 568 338 b 518 257 526 300 518 281 z m 371 257 b 436 401 371 317 394 365 b 667 475 490 449 572 475 b 897 401 760 475 843 449 b 963 257 939 365 963 317 b 897 113 963 199 939 150 b 667 40 843 65 760 40 b 436 113 572 40 490 65 b 371 257 394 150 371 199 z "},"ㅹ":{"ha":1333,"x_min":0,"x_max":0,"o":"m 429 907 l 601 907 l 601 1050 l 743 1050 l 743 907 l 906 907 l 906 1050 l 1049 1050 l 1049 547 l 285 547 l 285 1050 l 429 1050 z m 906 786 l 743 786 l 743 669 l 906 669 z m 601 786 l 429 786 l 429 669 l 601 669 z m 518 257 b 543 199 518 235 526 214 b 667 165 568 178 611 165 b 789 199 722 165 764 178 b 815 257 806 214 815 235 b 789 315 815 281 806 300 b 667 350 764 338 722 350 b 543 315 611 350 568 338 b 518 257 526 300 518 281 z m 371 257 b 436 401 371 317 394 365 b 667 475 490 449 572 475 b 897 401 760 475 843 449 b 963 257 939 365 963 317 b 897 113 963 199 939 150 b 667 40 843 65 760 40 b 436 113 572 40 490 65 b 371 257 394 150 371 199 z "},"ㅺ":{"ha":1333,"x_min":0,"x_max":0,"o":"m 383 650 l 383 907 l 533 907 l 533 650 b 707 346 533 472 599 389 l 707 215 b 458 388 597 242 501 310 b 210 215 418 310 321 242 l 210 346 b 383 650 319 389 383 472 z m 694 907 l 1119 907 l 1119 217 l 969 217 l 969 775 l 694 775 z "},"ㅻ":{"ha":1333,"x_min":0,"x_max":0,"o":"m 1132 349 l 1132 217 l 719 217 l 719 907 l 869 907 l 869 349 z m 349 639 l 349 907 l 499 907 l 499 639 b 665 346 499 468 563 386 l 665 215 b 424 381 560 240 469 306 b 182 215 381 306 289 239 l 182 346 b 349 639 286 386 349 467 z "},"ㅼ":{"ha":1333,"x_min":0,"x_max":0,"o":"m 335 639 l 335 907 l 485 907 l 485 639 b 651 346 485 468 549 386 l 651 215 b 410 381 546 240 456 306 b 168 215 367 306 275 239 l 168 346 b 335 639 272 386 335 467 z m 844 349 l 1138 349 l 1138 217 l 694 217 l 694 907 l 1129 907 l 1129 775 l 844 775 z "},"ㅽ":{"ha":1333,"x_min":0,"x_max":0,"o":"m 335 639 l 335 907 l 485 907 l 485 639 b 651 346 485 468 549 386 l 651 215 b 410 381 546 240 456 306 b 168 215 367 306 275 239 l 168 346 b 335 639 272 386 335 467 z m 843 678 l 1000 678 l 1000 907 l 1142 907 l 1142 217 l 701 217 l 701 907 l 843 907 z m 843 561 l 843 342 l 1000 342 l 1000 561 z "},"ㅾ":{"ha":1333,"x_min":0,"x_max":0,"o":"m 1158 775 l 968 775 l 968 706 b 1171 347 968 511 1044 403 l 1171 215 b 890 424 1050 251 944 336 b 665 215 844 339 758 257 b 439 424 571 256 485 339 b 158 215 386 338 279 251 l 158 347 b 361 706 283 401 361 511 l 361 907 l 513 907 l 513 706 b 664 363 513 533 576 422 b 817 706 750 422 817 533 l 817 775 l 639 775 l 639 907 l 1158 907 z "},"ㅿ":{"ha":1333,"x_min":0,"x_max":0,"o":"m 208 217 l 664 992 l 1126 217 z m 663 732 l 435 332 l 897 332 z "},"ㆀ":{"ha":1333,"x_min":0,"x_max":0,"o":"m 313 563 b 354 354 313 460 324 389 b 410 329 369 338 388 329 b 465 354 433 329 451 338 b 508 563 496 389 508 460 b 465 769 508 664 496 735 b 410 794 451 786 433 794 b 354 769 388 794 369 786 b 313 563 324 735 313 664 z m 171 563 b 269 872 171 713 206 815 b 410 921 306 904 354 921 b 551 872 467 921 514 904 b 650 563 615 815 650 713 b 551 253 650 411 615 308 b 410 204 514 221 467 204 b 269 253 354 204 306 221 b 171 563 206 308 171 411 z m 832 563 b 874 354 832 460 843 389 b 929 329 889 338 907 329 b 985 354 953 329 971 338 b 1028 563 1015 389 1028 460 b 985 769 1028 664 1015 735 b 929 794 971 786 953 794 b 874 769 907 794 889 786 b 832 563 843 735 832 664 z m 690 563 b 789 872 690 713 725 815 b 929 921 825 904 874 921 b 1071 872 986 921 1033 904 b 1169 563 1135 815 1169 713 b 1071 253 1169 411 1135 308 b 929 204 1033 221 986 204 b 789 253 874 204 825 221 b 690 563 725 308 690 411 z "},"ㆁ":{"ha":1333,"x_min":0,"x_max":0,"o":"m 742 1010 l 742 806 b 1010 704 851 794 946 760 b 1108 489 1072 651 1108 578 b 1010 275 1108 400 1072 328 b 665 169 931 206 807 169 b 321 275 522 169 400 206 b 222 489 258 328 222 400 b 321 704 222 578 258 651 b 590 806 386 760 479 796 l 590 1010 z m 372 489 b 429 368 372 440 392 400 b 665 301 479 325 561 301 b 901 368 768 301 850 325 b 957 489 938 400 957 440 b 901 610 957 538 938 579 b 665 678 850 653 768 678 b 429 610 561 678 479 653 b 372 489 392 579 372 538 z "},"ㆂ":{"ha":1333,"x_min":0,"x_max":0,"o":"m 489 942 l 489 772 b 565 733 518 764 543 751 b 656 493 626 683 656 600 b 565 253 656 386 626 301 b 413 204 526 221 475 204 b 261 253 350 204 300 221 b 171 493 200 301 171 386 b 261 733 171 600 200 683 b 338 772 283 751 308 764 l 338 942 z m 831 650 l 831 907 l 981 907 l 981 650 b 1154 346 981 472 1046 389 l 1154 215 b 906 388 1044 242 949 310 b 656 215 865 310 767 242 l 656 346 b 831 650 765 389 831 472 z m 313 493 b 349 354 313 425 324 379 b 413 329 364 336 386 329 b 478 354 440 329 461 336 b 514 493 501 379 514 425 b 478 632 514 561 501 607 b 413 656 461 649 440 656 b 349 632 386 656 364 649 b 313 493 324 607 313 561 z "},"ㆃ":{"ha":1333,"x_min":0,"x_max":0,"o":"m 489 942 l 489 772 b 565 733 518 764 543 751 b 656 493 626 683 656 600 b 565 253 656 386 626 301 b 413 204 526 221 475 204 b 261 253 350 204 300 221 b 171 493 200 301 171 386 b 261 733 171 600 200 683 b 338 772 283 751 308 764 l 338 942 z m 313 493 b 349 354 313 425 324 379 b 413 329 364 336 386 329 b 478 354 440 329 461 336 b 514 493 501 379 514 425 b 478 632 514 561 501 607 b 413 656 461 649 440 656 b 349 632 386 656 364 649 b 313 493 324 607 313 561 z m 896 642 l 800 336 l 988 336 z m 896 963 l 1164 217 l 624 217 z "},"ㆄ":{"ha":1333,"x_min":0,"x_max":0,"o":"m 257 547 l 257 672 l 404 672 l 404 925 l 285 925 l 285 1050 l 1049 1050 l 1049 925 l 933 925 l 933 839 b 910 672 933 779 928 718 l 1076 672 l 1076 547 z m 551 925 l 551 672 l 764 672 b 786 828 782 717 786 772 l 786 925 z m 518 257 b 543 199 518 235 526 214 b 667 165 568 178 611 165 b 789 199 722 165 764 178 b 815 257 806 214 815 235 b 789 315 815 281 806 300 b 667 350 764 338 722 350 b 543 315 611 350 568 338 b 518 257 526 300 518 281 z m 371 257 b 436 401 371 317 394 365 b 667 475 490 449 572 475 b 897 401 760 475 843 449 b 963 257 939 365 963 317 b 897 113 963 199 939 150 b 667 40 843 65 760 40 b 436 113 572 40 490 65 b 371 257 394 150 371 199 z "},"ㆅ":{"ha":1333,"x_min":0,"x_max":0,"o":"m 642 707 l 174 707 l 174 835 l 342 835 l 342 969 l 496 969 l 496 835 l 642 835 z m 331 418 b 357 335 331 381 339 353 b 417 313 371 319 390 313 b 478 335 443 313 464 319 b 504 418 494 353 504 381 b 478 501 504 454 494 483 b 417 522 464 515 443 522 b 357 501 390 522 371 515 b 331 418 339 483 331 454 z m 188 418 b 261 593 188 494 214 554 b 417 644 300 626 353 644 b 574 593 481 644 533 626 b 647 418 619 554 647 494 b 574 242 647 340 619 281 b 417 192 533 208 481 192 b 261 242 353 192 300 208 b 188 418 214 281 188 340 z m 1160 707 l 690 707 l 690 835 l 836 835 l 836 969 l 990 969 l 990 835 l 1160 835 z m 1003 418 b 976 501 1003 454 993 483 b 915 522 963 515 942 522 b 856 501 889 522 869 515 b 829 418 838 483 829 454 b 856 335 829 381 838 353 b 915 313 869 319 889 313 b 976 335 942 313 963 319 b 1003 418 993 353 1003 381 z m 1146 418 b 1072 242 1146 340 1118 281 b 915 192 1032 208 979 192 b 760 242 851 192 799 208 b 686 418 713 281 686 340 b 760 593 686 494 713 554 b 915 644 799 626 851 644 b 1072 593 979 644 1032 626 b 1146 418 1118 554 1146 494 z "},"ㆆ":{"ha":1333,"x_min":0,"x_max":0,"o":"m 243 907 l 1090 907 l 1090 776 l 243 776 z m 890 447 b 857 521 890 478 879 503 b 667 569 821 553 757 569 b 475 521 576 569 511 553 b 442 447 453 503 442 478 b 475 374 442 418 453 393 b 667 326 511 343 576 326 b 857 374 757 326 821 343 b 890 447 879 393 890 418 z m 292 447 b 365 615 292 518 317 574 b 667 699 431 671 536 699 b 967 615 797 699 901 671 b 1042 447 1015 574 1042 518 b 967 281 1042 378 1015 321 b 667 197 901 225 797 197 b 365 281 536 197 431 225 b 292 447 317 321 292 378 z "},"ㆇ":{"ha":1333,"x_min":0,"x_max":0,"o":"m 918 1176 l 1069 1176 l 1069 836 l 1281 836 l 1281 706 l 1069 706 l 1069 475 l 1281 475 l 1281 344 l 1069 344 l 1069 -81 l 918 -81 l 918 110 b 639 38 867 61 765 38 l 56 38 l 56 168 l 229 168 l 229 611 l 381 611 l 381 168 l 542 168 l 542 611 l 693 611 l 693 168 b 918 233 793 172 872 194 z "},"ㆈ":{"ha":1333,"x_min":0,"x_max":0,"o":"m 1181 -82 l 1035 -82 l 1035 332 l 903 332 l 903 -65 l 758 -65 l 758 100 b 504 38 711 58 621 38 l 111 38 l 111 168 l 236 168 l 236 610 l 382 610 l 382 168 l 481 168 l 481 610 l 626 610 l 626 174 b 758 224 683 182 728 199 l 758 1169 l 903 1169 l 903 833 l 1035 833 l 1035 1176 l 1181 1176 z m 1035 465 l 1035 700 l 903 700 l 903 465 z "},"ㆉ":{"ha":1333,"x_min":0,"x_max":0,"o":"m 1149 1176 l 1149 -82 l 997 -82 l 997 110 b 692 38 943 58 831 38 l 97 38 l 97 168 l 304 168 l 304 611 l 456 611 l 456 168 l 617 168 l 617 611 l 768 611 l 768 169 b 997 233 867 175 949 192 l 997 1176 z "},"ㆊ":{"ha":1333,"x_min":0,"x_max":0,"o":"m 999 1176 l 1149 1176 l 1149 -81 l 999 -81 l 999 44 l 738 44 l 738 174 l 999 174 l 999 260 l 738 260 l 738 389 l 999 389 z m 683 461 l 651 461 l 651 -82 l 503 -82 l 503 461 l 383 461 l 383 -82 l 233 -82 l 233 461 l 83 461 l 83 593 l 644 593 b 913 619 740 593 836 600 l 913 494 b 683 461 850 469 769 461 z "},"ㆋ":{"ha":1333,"x_min":0,"x_max":0,"o":"m 1028 -82 l 1028 1176 l 1174 1176 l 1174 -82 z m 426 467 l 357 467 l 357 -83 l 211 -83 l 211 467 l 111 467 l 111 597 l 519 597 b 726 621 596 597 665 600 l 726 497 b 572 468 682 479 629 471 l 572 -83 l 426 -83 z m 933 1169 l 933 -67 l 788 -67 l 788 69 l 624 69 l 624 199 l 788 199 l 788 281 l 624 281 l 624 410 l 788 410 l 788 1169 z "},"ㆌ":{"ha":1333,"x_min":0,"x_max":0,"o":"m 607 400 l 438 400 l 438 -83 l 288 -83 l 288 400 l 90 400 l 90 532 l 751 532 b 999 593 860 532 943 551 l 999 1176 l 1149 1176 l 1149 -82 l 999 -82 l 999 468 b 757 401 950 429 872 406 l 757 -83 l 607 -83 z "},"ㆍ":{"ha":1333,"x_min":0,"x_max":0,"o":"m 751 671 l 751 483 l 581 483 l 581 671 z "},"ㆎ":{"ha":1333,"x_min":0,"x_max":0,"o":"m 590 671 l 590 485 l 419 485 l 419 671 z m 743 1176 l 894 1176 l 894 -81 l 743 -81 z "},"ⅰ":{"ha":1333,"x_min":0,"x_max":0,"o":"m 742 0 l 588 0 l 588 781 l 742 781 z m 742 928 l 588 928 l 588 1093 l 742 1093 z "},"ⅱ":{"ha":1333,"x_min":0,"x_max":0,"o":"m 547 0 l 394 0 l 394 781 l 547 781 z m 547 928 l 394 928 l 394 1093 l 547 1093 z m 936 0 l 783 0 l 783 781 l 936 781 z m 936 928 l 783 928 l 783 1093 l 936 1093 z "},"ⅲ":{"ha":1333,"x_min":0,"x_max":0,"o":"m 740 0 l 589 0 l 589 781 l 740 781 z m 740 928 l 589 928 l 589 1093 l 740 1093 z m 435 0 l 283 0 l 283 781 l 435 781 z m 435 928 l 283 928 l 283 1093 l 435 1093 z m 1046 0 l 894 0 l 894 781 l 1046 781 z m 1046 928 l 894 928 l 894 1093 l 1046 1093 z "},"ⅳ":{"ha":1333,"x_min":0,"x_max":0,"o":"m 442 0 l 290 0 l 290 781 l 442 781 z m 442 928 l 290 928 l 290 1093 l 442 1093 z m 914 0 l 739 0 l 471 781 l 631 781 l 826 165 l 1021 781 l 1181 781 z "},"ⅴ":{"ha":1333,"x_min":0,"x_max":0,"o":"m 754 -1 l 579 -1 l 290 781 l 451 781 l 667 163 l 881 781 l 1042 781 z "},"ⅵ":{"ha":1333,"x_min":0,"x_max":0,"o":"m 618 0 l 443 0 l 175 781 l 335 781 l 531 165 l 725 781 l 885 781 z m 1065 0 l 914 0 l 914 781 l 1065 781 z m 1065 928 l 914 928 l 914 1093 l 1065 1093 z "},"ⅶ":{"ha":1333,"x_min":0,"x_max":0,"o":"m 494 0 l 317 0 l 103 781 l 260 781 l 406 167 l 550 781 l 707 781 z m 893 0 l 744 0 l 744 781 l 893 781 z m 893 928 l 744 928 l 744 1093 l 893 1093 z m 1136 0 l 988 0 l 988 781 l 1136 781 z m 1136 928 l 988 928 l 988 1093 l 1136 1093 z "},"ⅷ":{"ha":1333,"x_min":0,"x_max":0,"o":"m 406 0 l 219 0 l 47 781 l 201 781 l 313 165 l 424 781 l 578 781 z m 760 0 l 614 0 l 614 781 l 760 781 z m 760 928 l 614 928 l 614 1093 l 760 1093 z m 993 0 l 847 0 l 847 781 l 993 781 z m 993 928 l 847 928 l 847 1093 l 993 1093 z m 1225 0 l 1079 0 l 1079 781 l 1225 781 z m 1225 928 l 1079 928 l 1079 1093 l 1225 1093 z "},"ⅸ":{"ha":1333,"x_min":0,"x_max":0,"o":"m 1185 0 l 1022 0 l 833 283 l 646 0 l 483 0 l 753 406 l 504 781 l 667 781 l 835 528 l 1001 781 l 1163 781 l 915 407 z m 442 0 l 290 0 l 290 781 l 442 781 z m 442 928 l 290 928 l 290 1093 l 442 1093 z "},"ⅹ":{"ha":1333,"x_min":0,"x_max":0,"o":"m 1024 0 l 857 0 l 667 297 l 475 0 l 308 0 l 572 400 l 325 781 l 492 781 l 667 501 l 842 781 l 1008 781 l 761 400 z "},"Ⅰ":{"ha":1333,"x_min":0,"x_max":0,"o":"m 833 -1 l 497 -1 l 497 136 l 586 136 l 586 956 l 497 956 l 497 1093 l 833 1093 l 833 956 l 746 956 l 746 136 l 833 136 z "},"Ⅱ":{"ha":1333,"x_min":0,"x_max":0,"o":"m 615 -1 l 300 -1 l 300 135 l 379 135 l 379 957 l 300 957 l 300 1093 l 615 1093 l 615 957 l 536 957 l 536 135 l 615 135 z m 1032 -1 l 717 -1 l 717 135 l 796 135 l 796 957 l 717 957 l 717 1093 l 1032 1093 l 1032 957 l 953 957 l 953 135 l 1032 135 z "},"Ⅲ":{"ha":1333,"x_min":0,"x_max":0,"o":"m 815 -1 l 517 -1 l 517 133 l 589 133 l 589 958 l 517 958 l 517 1093 l 815 1093 l 815 958 l 742 958 l 742 133 l 815 133 z m 468 -1 l 169 -1 l 169 133 l 242 133 l 242 958 l 169 958 l 169 1093 l 468 1093 l 468 958 l 394 958 l 394 133 l 468 133 z m 1163 -1 l 864 -1 l 864 133 l 936 133 l 936 958 l 864 958 l 864 1093 l 1163 1093 l 1163 958 l 1089 958 l 1089 133 l 1163 133 z "},"Ⅳ":{"ha":1333,"x_min":0,"x_max":0,"o":"m 463 0 l 157 0 l 157 133 l 233 133 l 233 958 l 157 958 l 157 1093 l 463 1093 l 463 958 l 386 958 l 386 133 l 463 133 z m 961 0 l 763 0 l 489 1093 l 649 1093 l 861 183 l 1075 1093 l 1236 1093 z "},"Ⅴ":{"ha":1333,"x_min":0,"x_max":0,"o":"m 760 0 l 574 0 l 204 1093 l 372 1093 l 667 190 l 960 1093 l 1128 1093 z "},"Ⅵ":{"ha":1333,"x_min":0,"x_max":0,"o":"m 1178 0 l 872 0 l 872 133 l 949 133 l 949 958 l 872 958 l 872 1093 l 1178 1093 l 1178 958 l 1101 958 l 1101 133 l 1178 133 z m 572 0 l 374 0 l 100 1093 l 260 1093 l 472 183 l 686 1093 l 847 1093 z "},"Ⅶ":{"ha":1333,"x_min":0,"x_max":0,"o":"m 1274 0 l 996 0 l 996 132 l 1061 132 l 1061 960 l 996 960 l 996 1093 l 1274 1093 l 1274 960 l 1208 960 l 1208 132 l 1274 132 z m 960 0 l 682 0 l 682 132 l 747 132 l 747 960 l 682 960 l 682 1093 l 960 1093 l 960 960 l 894 960 l 894 132 l 960 132 z m 449 0 l 251 0 l 38 1093 l 194 1093 l 350 192 l 506 1093 l 664 1093 z "},"Ⅷ":{"ha":1333,"x_min":0,"x_max":0,"o":"m 1293 0 l 1057 0 l 1057 129 l 1104 129 l 1104 963 l 1057 963 l 1057 1093 l 1293 1093 l 1293 963 l 1244 963 l 1244 129 l 1293 129 z m 1029 0 l 786 0 l 786 129 l 838 129 l 838 963 l 786 963 l 786 1093 l 1029 1093 l 1029 963 l 978 963 l 978 129 l 1029 129 z m 758 0 l 522 0 l 522 129 l 569 129 l 569 963 l 522 963 l 522 1093 l 758 1093 l 758 963 l 710 963 l 710 129 l 758 129 z m 371 0 l 158 0 l 29 1093 l 179 1093 l 265 189 l 351 1093 l 503 1093 z "},"Ⅸ":{"ha":1333,"x_min":0,"x_max":0,"o":"m 1261 0 l 1099 0 l 860 414 l 619 0 l 458 0 l 778 557 l 472 1093 l 635 1093 l 860 700 l 1085 1093 l 1247 1093 l 940 557 z m 442 0 l 136 0 l 136 133 l 213 133 l 213 958 l 136 958 l 136 1093 l 442 1093 l 442 958 l 365 958 l 365 133 l 442 133 z "},"Ⅹ":{"ha":1333,"x_min":0,"x_max":0,"o":"m 1110 0 l 933 0 l 667 447 l 399 0 l 221 0 l 564 563 l 244 1093 l 419 1093 l 667 675 l 913 1093 l 1089 1093 l 767 563 z "},"Α":{"ha":950,"x_min":0,"x_max":0,"o":"m 379 1093 l 565 1093 l 933 0 l 767 0 l 689 240 l 256 240 l 179 0 l 11 0 z m 297 379 l 644 379 l 472 929 z "},"Β":{"ha":924,"x_min":0,"x_max":0,"o":"m 528 -1 l 97 -1 l 97 1093 l 504 1093 b 838 803 725 1093 838 992 b 672 567 838 678 774 596 b 869 307 797 540 869 442 b 528 -1 869 104 757 -1 z m 707 314 b 493 492 707 438 643 492 l 260 492 l 260 138 l 493 138 b 707 314 643 138 707 192 z m 676 792 b 472 953 676 908 607 953 l 260 953 l 260 631 l 472 631 b 676 792 607 631 676 675 z "},"Γ":{"ha":760,"x_min":0,"x_max":0,"o":"m 97 1093 l 744 1093 l 744 953 l 260 953 l 260 -1 l 97 -1 z "},"Δ":{"ha":950,"x_min":0,"x_max":0,"o":"m 382 1093 l 568 1093 l 936 0 l 13 0 z m 725 138 l 475 929 l 224 138 z "},"Ε":{"ha":813,"x_min":0,"x_max":0,"o":"m 97 -1 l 97 1093 l 746 1093 l 746 953 l 260 953 l 260 629 l 690 629 l 690 489 l 260 489 l 260 138 l 754 138 l 754 -1 z "},"Ζ":{"ha":825,"x_min":0,"x_max":0,"o":"m 56 125 l 567 953 l 71 953 l 71 1093 l 761 1093 l 761 965 l 251 138 l 768 138 l 768 -1 l 56 -1 z "},"Η":{"ha":956,"x_min":0,"x_max":0,"o":"m 694 -1 l 694 489 l 260 489 l 260 -1 l 97 -1 l 97 1093 l 260 1093 l 260 629 l 694 629 l 694 1093 l 857 1093 l 857 -1 z "},"Θ":{"ha":989,"x_min":0,"x_max":0,"o":"m 919 546 b 494 -19 919 247 833 -19 b 69 546 154 -19 69 247 b 494 1111 69 842 154 1111 b 919 546 833 1111 919 843 z m 758 546 b 494 971 758 842 683 971 b 231 546 303 971 231 839 b 494 121 231 253 300 121 b 758 546 682 121 758 247 z m 332 481 l 332 610 l 657 610 l 657 481 z "},"Ι":{"ha":358,"x_min":0,"x_max":0,"o":"m 260 1093 l 260 -1 l 97 -1 l 97 1093 z "},"Κ":{"ha":900,"x_min":0,"x_max":0,"o":"m 857 1093 l 507 560 l 904 -1 l 722 -1 l 378 489 l 260 489 l 260 -1 l 97 -1 l 97 1093 l 260 1093 l 260 629 l 378 629 l 679 1093 z "},"Λ":{"ha":950,"x_min":0,"x_max":0,"o":"m 936 0 l 768 0 l 475 929 l 181 0 l 13 0 l 382 1093 l 568 1093 z "},"Μ":{"ha":1283,"x_min":0,"x_max":0,"o":"m 718 -1 l 564 -1 l 257 764 l 257 -1 l 97 -1 l 97 1093 l 274 1093 l 642 175 l 1010 1093 l 1185 1093 l 1185 -1 l 1025 -1 l 1025 764 z "},"Ν":{"ha":971,"x_min":0,"x_max":0,"o":"m 872 0 l 708 0 l 258 807 l 258 0 l 97 0 l 97 1093 l 263 1093 l 711 285 l 711 1093 l 872 1093 z "},"Ξ":{"ha":872,"x_min":0,"x_max":0,"o":"m 67 953 l 67 1093 l 806 1093 l 806 953 z m 58 -1 l 58 138 l 813 138 l 813 -1 z m 122 489 l 122 629 l 750 629 l 750 489 z "},"Ο":{"ha":989,"x_min":0,"x_max":0,"o":"m 919 546 b 494 -19 919 247 833 -19 b 69 546 154 -19 69 247 b 494 1111 69 842 154 1111 b 919 546 833 1111 919 843 z m 758 546 b 494 971 758 842 683 971 b 231 546 303 971 231 839 b 494 121 231 253 300 121 b 758 546 682 121 758 247 z "},"Π":{"ha":956,"x_min":0,"x_max":0,"o":"m 694 -1 l 694 953 l 260 953 l 260 -1 l 97 -1 l 97 1093 l 857 1093 l 857 -1 z "},"Ρ":{"ha":911,"x_min":0,"x_max":0,"o":"m 522 407 l 260 407 l 260 -1 l 97 -1 l 97 1093 l 522 1093 b 869 750 743 1093 869 965 b 522 407 869 533 743 407 z m 260 546 l 501 546 b 707 750 638 546 707 621 b 501 953 707 879 638 953 l 260 953 z "},"Σ":{"ha":804,"x_min":0,"x_max":0,"o":"m 69 140 l 339 563 l 69 951 l 69 1093 l 756 1093 l 756 953 l 261 953 l 510 590 l 510 535 l 258 138 l 756 138 l 756 -1 l 69 -1 z "},"Τ":{"ha":821,"x_min":0,"x_max":0,"o":"m 21 953 l 21 1093 l 799 1093 l 799 953 l 492 953 l 492 -1 l 329 -1 l 329 953 z "},"Υ":{"ha":933,"x_min":0,"x_max":0,"o":"m 465 576 l 740 1093 l 911 1093 l 547 431 l 547 -1 l 385 -1 l 385 431 l 21 1093 l 192 1093 z "},"Φ":{"ha":1129,"x_min":0,"x_max":0,"o":"m 644 1093 l 644 928 b 1079 546 906 915 1079 796 b 644 163 1079 294 906 175 l 644 -1 l 483 -1 l 483 163 b 50 546 224 175 50 294 b 483 928 50 796 224 915 l 483 1093 z m 211 546 b 483 301 211 383 319 307 l 483 789 b 211 546 319 783 211 708 z m 917 546 b 644 789 917 708 810 783 l 644 301 b 917 546 810 307 917 383 z "},"Χ":{"ha":933,"x_min":0,"x_max":0,"o":"m 911 0 l 735 0 l 467 447 l 199 0 l 22 0 l 365 563 l 44 1093 l 221 1093 l 467 675 l 714 1093 l 889 1093 l 567 563 z "},"Ψ":{"ha":1061,"x_min":0,"x_max":0,"o":"m 450 1093 l 611 1093 l 611 379 b 815 665 747 400 815 493 l 815 1093 l 976 1093 l 976 651 b 611 238 976 421 850 265 l 611 0 l 450 0 l 450 238 b 83 651 210 265 83 421 l 83 1093 l 246 1093 l 246 665 b 450 379 246 493 313 400 z "},"Ω":{"ha":989,"x_min":0,"x_max":0,"o":"m 494 1111 b 818 967 646 1111 751 1058 b 919 565 893 863 919 719 b 725 138 919 350 851 197 l 897 138 l 897 -1 l 550 -1 l 550 138 b 757 546 699 189 757 325 b 688 883 757 714 738 814 b 494 971 647 939 581 971 b 300 883 407 971 342 939 b 231 546 251 814 231 714 b 439 138 231 325 289 189 l 439 -1 l 92 -1 l 92 138 l 264 138 b 69 565 138 197 69 350 b 171 967 69 719 94 863 b 494 1111 238 1058 343 1111 z "},"α":{"ha":856,"x_min":0,"x_max":0,"o":"m 596 390 b 404 672 596 567 547 672 b 213 390 261 672 213 567 b 404 106 213 211 261 106 b 596 390 547 106 596 211 z m 596 121 b 369 -19 565 36 485 -19 b 58 390 175 -19 58 111 b 369 799 58 667 175 799 b 596 658 485 799 565 743 l 596 781 l 750 781 l 750 179 b 808 115 750 131 767 115 l 832 115 l 832 -10 b 763 -12 814 -11 786 -12 b 596 121 647 -12 604 29 z "},"β":{"ha":854,"x_min":0,"x_max":0,"o":"m 758 803 b 575 574 758 690 692 599 b 806 304 704 557 806 460 b 479 -19 806 99 669 -19 b 238 117 363 -19 276 25 l 238 -340 l 83 -340 l 83 785 b 421 1111 83 983 203 1111 b 758 803 640 1111 758 982 z m 604 797 b 421 985 604 914 536 985 b 238 778 304 985 238 914 l 238 331 b 444 106 238 188 310 106 b 651 313 576 106 651 182 b 426 511 651 432 571 511 l 386 511 l 386 636 l 426 636 b 604 797 544 636 604 701 z "},"γ":{"ha":794,"x_min":0,"x_max":0,"o":"m 474 -340 l 319 -340 l 319 -10 l 22 781 l 183 781 l 397 172 l 611 781 l 772 781 l 474 -11 z "},"δ":{"ha":808,"x_min":0,"x_max":0,"o":"m 340 967 l 619 735 b 750 390 707 663 750 550 b 404 -19 750 131 638 -19 b 58 390 169 -19 58 131 b 357 788 58 635 164 771 l 132 967 l 132 1093 l 690 1093 l 690 967 z m 211 390 b 404 107 211 211 261 107 b 596 390 546 107 596 211 b 404 672 596 567 546 672 b 211 390 261 672 211 567 z "},"ε":{"ha":744,"x_min":0,"x_max":0,"o":"m 378 461 l 492 461 l 492 338 l 383 338 b 210 221 276 338 210 296 b 383 103 210 144 276 103 b 556 219 488 103 556 147 l 556 224 l 710 224 l 710 214 b 383 -19 710 75 588 -19 b 56 213 176 -19 56 74 b 219 400 56 314 122 383 b 74 575 136 418 74 488 b 378 799 74 699 172 799 b 683 569 583 799 683 699 l 683 556 l 529 556 l 529 568 b 378 675 529 629 479 675 b 226 568 275 675 226 629 b 378 461 226 507 275 461 z "},"ζ":{"ha":689,"x_min":0,"x_max":0,"o":"m 574 100 b 647 33 631 99 647 81 b 525 -272 647 -44 596 -169 l 410 -237 b 496 -18 453 -158 485 -85 b 53 311 192 -18 53 103 b 468 967 53 572 219 813 l 132 967 l 132 1093 l 647 1093 l 647 963 b 207 322 361 789 207 568 b 574 100 207 175 296 104 z "},"η":{"ha":825,"x_min":0,"x_max":0,"o":"m 238 0 l 83 0 l 83 781 l 238 781 l 238 632 b 476 799 271 733 356 799 b 743 488 647 799 743 688 l 743 -339 l 589 -339 l 589 403 b 438 672 589 575 557 672 b 238 336 288 672 238 551 z "},"θ":{"ha":878,"x_min":0,"x_max":0,"o":"m 811 547 b 439 -19 811 131 692 -19 b 67 547 186 -19 67 131 b 439 1113 67 963 186 1113 b 811 547 692 1113 811 963 z m 439 988 b 221 608 279 988 225 863 l 657 608 b 439 988 650 864 596 988 z m 439 107 b 657 485 601 107 650 231 l 221 485 b 439 107 226 224 285 107 z "},"ι":{"ha":363,"x_min":0,"x_max":0,"o":"m 238 781 l 238 179 b 296 115 238 131 253 115 l 319 115 l 319 -8 b 251 -12 301 -11 275 -12 b 83 160 133 -12 83 32 l 83 781 z "},"κ":{"ha":743,"x_min":0,"x_max":0,"o":"m 238 0 l 83 0 l 83 781 l 238 781 l 238 467 l 317 467 l 532 781 l 701 781 l 443 406 l 736 0 l 563 0 l 315 346 l 238 346 z "},"λ":{"ha":760,"x_min":0,"x_max":0,"o":"m 304 774 l 258 897 b 144 986 232 969 197 986 l 96 986 l 96 1108 b 161 1111 114 1111 139 1111 b 401 935 279 1111 347 1079 l 756 -1 l 594 -1 l 381 585 l 164 -1 l 4 -1 z "},"μ":{"ha":828,"x_min":0,"x_max":0,"o":"m 388 -19 b 238 76 314 -19 260 18 l 238 -339 l 83 -339 l 83 781 l 238 781 l 238 292 b 390 107 238 175 299 107 b 590 354 501 107 590 194 l 590 781 l 743 781 l 743 0 l 590 0 l 590 133 b 388 -19 557 40 483 -19 z "},"ν":{"ha":794,"x_min":0,"x_max":0,"o":"m 485 -1 l 310 -1 l 22 781 l 183 781 l 397 163 l 611 781 l 772 781 z "},"ξ":{"ha":724,"x_min":0,"x_max":0,"o":"m 529 -18 b 53 319 233 -17 53 107 b 294 638 53 479 154 589 b 101 858 181 660 101 739 b 394 1111 101 1000 197 1111 b 689 871 592 1111 683 1004 l 535 871 b 394 985 528 938 483 985 b 256 847 301 985 256 933 b 414 707 256 754 321 707 l 524 707 l 524 581 l 453 581 b 207 338 325 581 207 481 b 606 100 207 188 329 104 b 679 33 664 99 679 81 b 557 -272 679 -44 628 -169 l 443 -237 b 529 -18 485 -158 517 -85 z "},"ο":{"ha":808,"x_min":0,"x_max":0,"o":"m 750 390 b 404 -19 750 131 638 -19 b 58 390 171 -19 58 131 b 404 799 58 647 171 799 b 750 390 638 799 750 647 z m 213 390 b 404 106 213 211 261 106 b 596 390 547 106 596 211 b 404 672 596 567 547 672 b 213 390 261 672 213 567 z "},"π":{"ha":861,"x_min":0,"x_max":0,"o":"m 308 654 l 308 -1 l 154 -1 l 154 654 l 38 654 l 38 781 l 824 781 l 824 654 l 706 654 l 706 -1 l 551 -1 l 551 654 z "},"ρ":{"ha":821,"x_min":0,"x_max":0,"o":"m 761 390 b 449 -19 761 113 644 -19 b 224 119 335 -19 254 36 l 224 -340 l 69 -340 l 69 390 b 415 799 69 647 182 799 b 761 390 650 799 761 647 z m 415 106 b 607 390 558 106 607 211 b 415 672 607 567 558 672 b 224 390 274 672 224 567 b 415 106 224 211 274 106 z "},"σ":{"ha":825,"x_min":0,"x_max":0,"o":"m 750 381 b 404 -19 750 126 635 -19 b 58 381 174 -19 58 126 b 404 781 58 633 174 781 l 797 781 l 797 654 l 613 654 b 750 381 694 625 750 531 z m 596 381 b 404 654 596 553 542 654 b 213 381 267 654 213 553 b 404 106 213 207 267 106 b 596 381 542 106 596 207 z "},"τ":{"ha":701,"x_min":0,"x_max":0,"o":"m 674 781 l 674 654 l 414 654 l 414 197 b 500 113 414 128 435 113 l 544 113 l 544 -8 b 465 -12 524 -11 493 -12 b 260 193 308 -12 260 38 l 260 654 l 18 654 l 18 781 z "},"υ":{"ha":811,"x_min":0,"x_max":0,"o":"m 406 -19 b 76 293 200 -19 76 83 l 76 781 l 231 781 l 231 294 b 406 106 231 164 296 106 b 579 294 514 106 579 164 l 579 781 l 733 781 l 733 293 b 406 -19 733 83 610 -19 z "},"φ":{"ha":1076,"x_min":0,"x_max":0,"o":"m 329 767 l 354 642 b 211 381 258 617 211 549 b 461 106 211 168 283 106 l 461 781 l 611 781 b 1019 381 908 779 1019 640 b 615 -19 1019 119 910 -15 l 615 -340 l 461 -340 l 461 -19 b 57 381 167 -15 57 119 b 329 767 57 601 135 729 z m 865 381 b 615 654 865 593 793 653 l 615 106 b 865 381 793 106 865 168 z "},"χ":{"ha":769,"x_min":0,"x_max":0,"o":"m 601 -340 l 385 107 l 167 -340 l 3 -340 l 288 235 l 18 781 l 182 781 l 385 360 l 586 781 l 750 781 l 481 235 l 767 -340 z "},"ψ":{"ha":1019,"x_min":0,"x_max":0,"o":"m 432 -339 l 432 -15 b 76 322 208 0 76 122 l 76 781 l 229 781 l 229 325 b 432 113 229 197 304 121 l 432 781 l 586 781 l 586 113 b 789 325 714 121 789 197 l 789 781 l 942 781 l 942 322 b 586 -15 942 122 810 0 l 586 -339 z "},"ω":{"ha":1164,"x_min":0,"x_max":0,"o":"m 506 626 l 658 626 l 658 347 b 801 106 658 176 706 106 b 947 367 900 106 947 179 b 867 781 947 492 917 642 l 1022 781 b 1101 364 1075 636 1101 494 b 815 -19 1101 82 985 -19 b 582 147 696 -19 613 36 b 349 -19 551 36 468 -19 b 63 364 179 -19 63 82 b 142 781 63 494 89 636 l 297 781 b 217 367 247 642 217 492 b 363 106 217 179 264 106 b 506 347 458 106 506 176 z "},"─":{"ha":1333,"x_min":0,"x_max":0,"o":"m 1333 579 l 1333 497 l 0 497 l 0 579 z "},"│":{"ha":1333,"x_min":0,"x_max":0,"o":"m 626 1233 l 708 1233 l 708 -156 l 626 -156 z "},"┌":{"ha":1333,"x_min":0,"x_max":0,"o":"m 626 -156 l 626 579 l 1333 579 l 1333 497 l 708 497 l 708 -156 z "},"┐":{"ha":1333,"x_min":0,"x_max":0,"o":"m 708 579 l 708 -156 l 626 -156 l 626 497 l 0 497 l 0 579 z "},"┘":{"ha":1333,"x_min":0,"x_max":0,"o":"m 708 1233 l 708 497 l 0 497 l 0 579 l 626 579 l 626 1233 z "},"└":{"ha":1333,"x_min":0,"x_max":0,"o":"m 626 497 l 626 1233 l 708 1233 l 708 579 l 1333 579 l 1333 497 z "},"├":{"ha":1333,"x_min":0,"x_max":0,"o":"m 626 1233 l 708 1233 l 708 579 l 1333 579 l 1333 497 l 708 497 l 708 -156 l 626 -156 z "},"┬":{"ha":1333,"x_min":0,"x_max":0,"o":"m 1333 579 l 1333 497 l 708 497 l 708 -156 l 626 -156 l 626 497 l 0 497 l 0 579 z "},"┤":{"ha":1333,"x_min":0,"x_max":0,"o":"m 708 1233 l 708 -156 l 626 -156 l 626 497 l 0 497 l 0 579 l 626 579 l 626 1233 z "},"┴":{"ha":1333,"x_min":0,"x_max":0,"o":"m 1333 497 l 0 497 l 0 579 l 626 579 l 626 1233 l 708 1233 l 708 579 l 1333 579 z "},"┼":{"ha":1333,"x_min":0,"x_max":0,"o":"m 626 1233 l 708 1233 l 708 579 l 1333 579 l 1333 497 l 708 497 l 708 -156 l 626 -156 l 626 497 l 0 497 l 0 579 l 626 579 z "},"━":{"ha":1333,"x_min":0,"x_max":0,"o":"m 0 604 l 1333 604 l 1333 474 l 0 474 z "},"┃":{"ha":1333,"x_min":0,"x_max":0,"o":"m 601 1233 l 732 1233 l 732 -156 l 601 -156 z "},"┏":{"ha":1333,"x_min":0,"x_max":0,"o":"m 601 604 l 1333 604 l 1333 474 l 732 474 l 732 -156 l 601 -156 z "},"┓":{"ha":1333,"x_min":0,"x_max":0,"o":"m 0 604 l 732 604 l 732 -156 l 601 -156 l 601 474 l 0 474 z "},"┛":{"ha":1333,"x_min":0,"x_max":0,"o":"m 601 1233 l 732 1233 l 732 474 l 0 474 l 0 604 l 601 604 z "},"┗":{"ha":1333,"x_min":0,"x_max":0,"o":"m 601 1233 l 732 1233 l 732 604 l 1333 604 l 1333 474 l 601 474 z "},"┣":{"ha":1333,"x_min":0,"x_max":0,"o":"m 601 1233 l 732 1233 l 732 604 l 1333 604 l 1333 474 l 732 474 l 732 -156 l 601 -156 z "},"┳":{"ha":1333,"x_min":0,"x_max":0,"o":"m 0 474 l 0 604 l 1333 604 l 1333 474 l 732 474 l 732 -156 l 601 -156 l 601 474 z "},"┫":{"ha":1333,"x_min":0,"x_max":0,"o":"m 0 474 l 0 604 l 601 604 l 601 1233 l 732 1233 l 732 -156 l 601 -156 l 601 474 z "},"┻":{"ha":1333,"x_min":0,"x_max":0,"o":"m 601 604 l 601 1233 l 732 1233 l 732 604 l 1333 604 l 1333 474 l 0 474 l 0 604 z "},"╋":{"ha":1333,"x_min":0,"x_max":0,"o":"m 601 604 l 601 1233 l 732 1233 l 732 604 l 1333 604 l 1333 474 l 732 474 l 732 -156 l 601 -156 l 601 474 l 0 474 l 0 604 z "},"┠":{"ha":1333,"x_min":0,"x_max":0,"o":"m 1333 563 l 1333 513 l 732 513 l 732 -156 l 601 -156 l 601 1233 l 732 1233 l 732 563 z "},"┯":{"ha":1333,"x_min":0,"x_max":0,"o":"m 1333 604 l 1333 474 l 692 474 l 692 -156 l 640 -156 l 640 474 l 0 474 l 0 604 z "},"┨":{"ha":1333,"x_min":0,"x_max":0,"o":"m 732 -156 l 601 -156 l 601 513 l 0 513 l 0 563 l 601 563 l 601 1233 l 732 1233 z "},"┷":{"ha":1333,"x_min":0,"x_max":0,"o":"m 640 604 l 640 1233 l 692 1233 l 692 604 l 1333 604 l 1333 474 l 0 474 l 0 604 z "},"┿":{"ha":1333,"x_min":0,"x_max":0,"o":"m 640 604 l 640 1233 l 692 1233 l 692 604 l 1333 604 l 1333 474 l 692 474 l 692 -156 l 640 -156 l 640 474 l 0 474 l 0 604 z "},"┝":{"ha":1333,"x_min":0,"x_max":0,"o":"m 1333 604 l 1333 474 l 692 474 l 692 -156 l 640 -156 l 640 1233 l 692 1233 l 692 604 z "},"┰":{"ha":1333,"x_min":0,"x_max":0,"o":"m 1333 563 l 1333 513 l 732 513 l 732 -156 l 601 -156 l 601 513 l 0 513 l 0 563 z "},"┥":{"ha":1333,"x_min":0,"x_max":0,"o":"m 640 604 l 640 1233 l 692 1233 l 692 -156 l 640 -156 l 640 474 l 0 474 l 0 604 z "},"┸":{"ha":1333,"x_min":0,"x_max":0,"o":"m 601 563 l 601 1233 l 732 1233 l 732 563 l 1333 563 l 1333 513 l 0 513 l 0 563 z "},"╂":{"ha":1333,"x_min":0,"x_max":0,"o":"m 601 563 l 601 1233 l 732 1233 l 732 563 l 1333 563 l 1333 513 l 732 513 l 732 -156 l 601 -156 l 601 513 l 0 513 l 0 563 z "},"┒":{"ha":1333,"x_min":0,"x_max":0,"o":"m 601 513 l 0 513 l 0 563 l 732 563 l 732 -156 l 601 -156 z "},"┑":{"ha":1333,"x_min":0,"x_max":0,"o":"m 640 474 l 0 474 l 0 604 l 692 604 l 692 -156 l 640 -156 z "},"┚":{"ha":1333,"x_min":0,"x_max":0,"o":"m 601 563 l 601 1233 l 732 1233 l 732 513 l 0 513 l 0 563 z "},"┙":{"ha":1333,"x_min":0,"x_max":0,"o":"m 640 604 l 640 1233 l 692 1233 l 692 474 l 0 474 l 0 604 z "},"┖":{"ha":1333,"x_min":0,"x_max":0,"o":"m 732 563 l 1333 563 l 1333 513 l 601 513 l 601 1233 l 732 1233 z "},"┕":{"ha":1333,"x_min":0,"x_max":0,"o":"m 692 604 l 1333 604 l 1333 474 l 640 474 l 640 1233 l 692 1233 z "},"┎":{"ha":1333,"x_min":0,"x_max":0,"o":"m 732 513 l 732 -156 l 601 -156 l 601 563 l 1333 563 l 1333 513 z "},"┍":{"ha":1333,"x_min":0,"x_max":0,"o":"m 640 604 l 1333 604 l 1333 474 l 692 474 l 692 -156 l 640 -156 z "},"┞":{"ha":1333,"x_min":0,"x_max":0,"o":"m 601 1233 l 732 1233 l 732 563 l 1333 563 l 1333 513 l 692 513 l 692 -156 l 640 -156 l 640 513 l 601 513 z "},"┟":{"ha":1333,"x_min":0,"x_max":0,"o":"m 640 1233 l 692 1233 l 692 563 l 1333 563 l 1333 513 l 732 513 l 732 -156 l 601 -156 l 601 563 l 640 563 z "},"┡":{"ha":1333,"x_min":0,"x_max":0,"o":"m 640 -156 l 640 474 l 601 474 l 601 1233 l 732 1233 l 732 604 l 1333 604 l 1333 474 l 692 474 l 692 -156 z "},"┢":{"ha":1333,"x_min":0,"x_max":0,"o":"m 601 -156 l 601 604 l 640 604 l 640 1233 l 692 1233 l 692 604 l 1333 604 l 1333 474 l 732 474 l 732 -156 z "},"┦":{"ha":1333,"x_min":0,"x_max":0,"o":"m 601 1233 l 732 1233 l 732 513 l 692 513 l 692 -156 l 640 -156 l 640 513 l 0 513 l 0 563 l 601 563 z "},"┧":{"ha":1333,"x_min":0,"x_max":0,"o":"m 0 563 l 640 563 l 640 1233 l 692 1233 l 692 563 l 732 563 l 732 -156 l 601 -156 l 601 513 l 0 513 z "},"┩":{"ha":1333,"x_min":0,"x_max":0,"o":"m 0 474 l 0 604 l 601 604 l 601 1233 l 732 1233 l 732 474 l 692 474 l 692 -156 l 640 -156 l 640 474 z "},"┪":{"ha":1333,"x_min":0,"x_max":0,"o":"m 0 474 l 0 604 l 640 604 l 640 1233 l 692 1233 l 692 604 l 732 604 l 732 -156 l 601 -156 l 601 474 z "},"┭":{"ha":1333,"x_min":0,"x_max":0,"o":"m 0 474 l 0 604 l 692 604 l 692 563 l 1333 563 l 1333 513 l 692 513 l 692 -156 l 640 -156 l 640 474 z "},"┮":{"ha":1333,"x_min":0,"x_max":0,"o":"m 0 513 l 0 563 l 640 563 l 640 604 l 1333 604 l 1333 474 l 692 474 l 692 -156 l 640 -156 l 640 513 z "},"┱":{"ha":1333,"x_min":0,"x_max":0,"o":"m 0 474 l 0 604 l 732 604 l 732 563 l 1333 563 l 1333 513 l 732 513 l 732 -156 l 601 -156 l 601 474 z "},"┲":{"ha":1333,"x_min":0,"x_max":0,"o":"m 0 513 l 0 563 l 601 563 l 601 604 l 1333 604 l 1333 474 l 732 474 l 732 -156 l 601 -156 l 601 513 z "},"┵":{"ha":1333,"x_min":0,"x_max":0,"o":"m 0 474 l 0 604 l 640 604 l 640 1233 l 692 1233 l 692 563 l 1333 563 l 1333 513 l 692 513 l 692 474 z "},"┶":{"ha":1333,"x_min":0,"x_max":0,"o":"m 0 513 l 0 563 l 640 563 l 640 1233 l 692 1233 l 692 604 l 1333 604 l 1333 474 l 640 474 l 640 513 z "},"┹":{"ha":1333,"x_min":0,"x_max":0,"o":"m 0 474 l 0 604 l 601 604 l 601 1233 l 732 1233 l 732 563 l 1333 563 l 1333 513 l 732 513 l 732 474 z "},"┺":{"ha":1333,"x_min":0,"x_max":0,"o":"m 0 513 l 0 563 l 601 563 l 601 1233 l 732 1233 l 732 604 l 1333 604 l 1333 474 l 601 474 l 601 513 z "},"┽":{"ha":1333,"x_min":0,"x_max":0,"o":"m 0 474 l 0 604 l 640 604 l 640 1233 l 692 1233 l 692 563 l 1333 563 l 1333 513 l 692 513 l 692 -156 l 640 -156 l 640 474 z "},"┾":{"ha":1333,"x_min":0,"x_max":0,"o":"m 692 1233 l 692 604 l 1333 604 l 1333 474 l 692 474 l 692 -156 l 640 -156 l 640 513 l 0 513 l 0 563 l 640 563 l 640 1233 z "},"╀":{"ha":1333,"x_min":0,"x_max":0,"o":"m 732 1233 l 732 563 l 1333 563 l 1333 513 l 692 513 l 692 -156 l 640 -156 l 640 513 l 0 513 l 0 563 l 601 563 l 601 1233 z "},"╁":{"ha":1333,"x_min":0,"x_max":0,"o":"m 692 1233 l 692 563 l 1333 563 l 1333 513 l 732 513 l 732 -156 l 601 -156 l 601 513 l 0 513 l 0 563 l 640 563 l 640 1233 z "},"╃":{"ha":1333,"x_min":0,"x_max":0,"o":"m 732 1233 l 732 563 l 1333 563 l 1333 513 l 732 513 l 732 474 l 692 474 l 692 -156 l 640 -156 l 640 474 l 0 474 l 0 604 l 601 604 l 601 1233 z "},"╄":{"ha":1333,"x_min":0,"x_max":0,"o":"m 692 -156 l 640 -156 l 640 474 l 601 474 l 601 513 l 0 513 l 0 563 l 601 563 l 601 1233 l 732 1233 l 732 604 l 1333 604 l 1333 474 l 692 474 z "},"╅":{"ha":1333,"x_min":0,"x_max":0,"o":"m 692 1233 l 692 604 l 732 604 l 732 563 l 1333 563 l 1333 513 l 732 513 l 732 -156 l 601 -156 l 601 474 l 0 474 l 0 604 l 640 604 l 640 1233 z "},"╆":{"ha":1333,"x_min":0,"x_max":0,"o":"m 692 1233 l 692 604 l 1333 604 l 1333 472 l 732 472 l 732 -156 l 601 -156 l 601 513 l 0 513 l 0 563 l 601 563 l 601 604 l 640 604 l 640 1233 z "},"╇":{"ha":1333,"x_min":0,"x_max":0,"o":"m 732 1233 l 732 604 l 1333 604 l 1333 474 l 692 474 l 692 -156 l 640 -156 l 640 474 l 0 474 l 0 604 l 601 604 l 601 1233 z "},"╈":{"ha":1333,"x_min":0,"x_max":0,"o":"m 692 1233 l 692 604 l 1333 604 l 1333 474 l 732 474 l 732 -156 l 601 -156 l 601 474 l 0 474 l 0 604 l 640 604 l 640 1233 z "},"╉":{"ha":1333,"x_min":0,"x_max":0,"o":"m 732 1233 l 732 563 l 1333 563 l 1333 513 l 732 513 l 732 -156 l 601 -156 l 601 474 l 0 474 l 0 604 l 601 604 l 601 1233 z "},"╊":{"ha":1333,"x_min":0,"x_max":0,"o":"m 732 1233 l 732 604 l 1333 604 l 1333 474 l 732 474 l 732 -156 l 601 -156 l 601 513 l 0 513 l 0 563 l 601 563 l 601 1233 z "},"㎕":{"ha":1333,"x_min":0,"x_max":0,"o":"m 361 -19 b 256 26 315 -19 279 -3 l 256 -339 l 106 -339 l 106 781 l 256 781 l 256 292 b 363 107 256 189 289 107 b 507 354 446 107 507 194 l 507 781 l 657 781 l 657 0 l 507 0 l 507 69 b 361 -19 475 15 422 -19 z m 1022 -19 b 783 218 899 -19 808 64 b 704 194 761 210 735 203 l 664 321 b 779 360 704 333 746 347 l 779 819 b 1011 1111 779 1004 861 1111 b 1240 821 1158 1111 1240 1004 l 1240 808 b 928 283 1240 575 1131 393 b 1024 111 933 161 969 111 b 1113 239 1065 111 1100 149 l 1258 204 b 1022 -19 1235 58 1151 -19 z m 928 822 l 928 447 b 1092 808 1042 533 1092 656 l 1092 822 b 1011 979 1092 926 1064 979 b 928 822 957 979 928 926 z "},"㎖":{"ha":1333,"x_min":0,"x_max":0,"o":"m 1085 -19 b 869 215 972 -19 890 61 b 807 192 853 210 828 199 l 771 319 b 865 357 801 331 838 344 l 865 819 b 1075 1111 865 1004 939 1111 b 1283 821 1210 1111 1283 1004 l 1283 808 b 1010 285 1283 576 1182 394 b 1086 111 1014 160 1042 111 b 1157 242 1118 111 1144 149 l 1299 203 b 1085 -19 1278 58 1203 -19 z m 1010 822 l 1010 461 b 1139 808 1097 546 1139 664 l 1139 822 b 1075 979 1139 926 1117 979 b 1010 822 1032 979 1010 926 z m 482 418 l 482 0 l 339 0 l 339 504 b 282 672 339 617 318 672 b 200 419 232 672 200 585 l 200 0 l 58 0 l 58 781 l 197 781 l 197 740 b 304 799 222 775 263 799 b 446 710 368 799 417 768 b 586 799 476 768 524 799 b 763 499 701 799 763 692 l 763 0 l 619 0 l 619 504 b 564 672 619 617 599 672 b 482 418 513 672 482 585 z "},"㎗":{"ha":1333,"x_min":0,"x_max":0,"o":"m 499 724 l 499 1093 l 646 1093 l 646 0 l 499 0 l 499 56 b 344 -19 467 8 413 -19 b 94 390 190 -19 94 113 b 344 799 94 667 190 799 b 499 724 414 799 467 772 z m 499 390 b 369 672 499 567 467 672 b 242 390 274 672 242 567 b 369 107 242 211 274 107 b 499 390 467 107 499 211 z m 1021 -19 b 782 218 897 -19 807 64 b 703 194 760 210 733 203 l 663 321 b 778 360 703 333 744 347 l 778 819 b 1010 1111 778 1004 860 1111 b 1239 821 1157 1111 1239 1004 l 1239 808 b 926 283 1239 575 1129 393 b 1022 111 932 161 968 111 b 1111 239 1064 111 1099 149 l 1257 204 b 1021 -19 1233 58 1150 -19 z m 926 822 l 926 447 b 1090 808 1040 533 1090 656 l 1090 822 b 1010 979 1090 926 1063 979 b 926 822 956 979 926 926 z "},"ℓ":{"ha":788,"x_min":0,"x_max":0,"o":"m 458 -17 b 174 226 304 -17 197 72 b 69 200 140 218 106 208 l 21 326 b 168 368 74 339 122 353 l 168 819 b 442 1108 168 1003 265 1108 b 715 819 617 1108 715 1003 l 715 807 b 325 282 715 576 578 396 b 458 115 333 165 382 115 b 585 235 514 115 568 150 l 736 206 b 458 -17 708 58 607 -17 z m 325 821 l 325 438 b 560 807 486 529 560 653 l 560 821 b 442 976 560 922 519 976 b 325 821 364 976 325 922 z "},"㎘":{"ha":1333,"x_min":0,"x_max":0,"o":"m 297 0 l 149 0 l 149 1093 l 297 1093 l 297 467 l 339 467 l 511 781 l 669 781 l 464 406 l 697 0 l 536 0 l 338 346 l 297 346 z m 1007 -19 b 767 218 882 -19 790 64 b 688 193 743 210 715 201 l 647 321 b 763 360 688 333 729 347 l 763 819 b 994 1111 763 1004 844 1111 b 1225 821 1143 1111 1225 1004 l 1225 808 b 911 282 1225 574 1114 393 b 1008 111 917 161 953 111 b 1096 239 1049 111 1083 149 l 1242 204 b 1007 -19 1218 58 1135 -19 z m 913 822 l 913 447 b 1076 808 1026 533 1076 656 l 1076 822 b 994 979 1076 926 1047 979 b 913 822 940 979 913 926 z "},"㏄":{"ha":1333,"x_min":0,"x_max":0,"o":"m 83 390 b 367 799 83 647 175 799 b 640 524 528 799 626 699 l 492 524 b 367 672 482 617 439 672 b 232 390 268 672 232 567 b 367 106 232 211 268 106 b 492 256 439 106 482 163 l 640 256 b 367 -19 626 81 528 -19 b 83 390 175 -19 83 131 z m 700 390 b 983 799 700 647 793 799 b 1257 524 1144 799 1243 699 l 1107 524 b 983 672 1099 617 1056 672 b 849 390 885 672 849 567 b 983 106 849 211 885 106 b 1107 256 1056 106 1099 163 l 1257 256 b 983 -19 1243 81 1144 -19 b 700 390 793 -19 700 131 z "},"㎣":{"ha":1333,"x_min":0,"x_max":0,"o":"m 1213 943 b 1178 981 1213 968 1200 981 l 1128 981 l 1128 1053 l 1178 1053 b 1203 1088 1196 1053 1203 1068 b 1176 1121 1203 1103 1194 1121 b 1150 1076 1161 1121 1150 1108 l 1064 1076 l 1064 1093 b 1176 1193 1064 1150 1106 1193 b 1290 1090 1250 1193 1290 1147 b 1261 1019 1290 1063 1279 1036 b 1300 940 1286 1004 1300 978 b 1176 832 1300 872 1250 832 b 1053 958 1099 832 1053 878 l 1142 958 b 1181 904 1142 918 1158 904 b 1213 943 1199 904 1213 918 z m 406 418 l 406 0 l 278 0 l 278 504 b 239 672 278 617 268 672 b 179 419 199 672 179 592 l 179 0 l 51 0 l 51 781 l 169 781 l 169 756 b 257 799 189 781 224 799 b 369 725 306 799 347 772 b 483 799 394 771 432 799 b 633 499 581 799 633 706 l 633 0 l 504 0 l 504 504 b 465 672 504 617 494 672 b 406 418 426 672 406 592 z m 1056 418 l 1056 0 l 928 0 l 928 504 b 888 672 928 617 917 672 b 828 419 849 672 828 592 l 828 0 l 700 0 l 700 781 l 818 781 l 818 756 b 906 799 839 781 872 799 b 1018 725 954 799 996 772 b 1133 799 1043 771 1081 799 b 1282 499 1231 799 1282 706 l 1282 0 l 1154 0 l 1154 504 b 1114 672 1154 617 1143 672 b 1056 418 1075 672 1056 592 z "},"㎤":{"ha":1333,"x_min":0,"x_max":0,"o":"m 1008 418 l 1008 0 l 871 0 l 871 504 b 817 672 871 617 850 672 b 739 426 768 672 739 592 l 739 0 l 600 0 l 600 781 l 728 781 l 728 743 b 838 799 751 775 793 799 b 972 713 897 799 944 768 b 1108 799 1001 769 1046 799 b 1279 499 1221 799 1279 692 l 1279 0 l 1140 0 l 1140 504 b 1086 672 1140 617 1119 672 b 1008 418 1039 672 1008 585 z m 43 390 b 301 799 43 647 125 799 b 551 524 450 799 538 699 l 411 524 b 301 672 403 617 365 672 b 183 390 214 672 183 567 b 301 107 183 211 214 107 b 411 256 365 107 403 163 l 551 256 b 301 -19 538 81 450 -19 b 43 390 125 -19 43 131 z m 1213 943 b 1178 981 1213 968 1200 981 l 1128 981 l 1128 1053 l 1178 1053 b 1203 1088 1196 1053 1203 1068 b 1176 1121 1203 1103 1194 1121 b 1150 1076 1161 1121 1150 1108 l 1064 1076 l 1064 1093 b 1176 1193 1064 1150 1106 1193 b 1290 1090 1250 1193 1290 1147 b 1261 1019 1290 1063 1279 1036 b 1300 940 1286 1004 1300 978 b 1176 832 1300 872 1250 832 b 1053 958 1099 832 1053 878 l 1142 958 b 1181 904 1142 918 1158 904 b 1213 943 1199 904 1213 918 z "},"㎥":{"ha":1333,"x_min":0,"x_max":0,"o":"m 729 418 l 729 0 l 576 0 l 576 504 b 432 672 576 617 525 672 b 247 419 324 672 247 585 l 247 0 l 93 0 l 93 781 l 247 781 l 247 646 b 471 799 279 740 356 799 b 707 638 586 799 672 743 b 953 799 751 743 835 799 b 1213 499 1119 799 1213 692 l 1213 0 l 1058 0 l 1058 504 b 915 672 1058 617 1007 672 b 729 418 807 672 729 585 z m 1213 943 b 1178 981 1213 968 1200 981 l 1128 981 l 1128 1053 l 1178 1053 b 1203 1088 1196 1053 1203 1068 b 1176 1121 1203 1103 1194 1121 b 1150 1076 1161 1121 1150 1108 l 1064 1076 l 1064 1093 b 1176 1193 1064 1150 1106 1193 b 1290 1090 1250 1193 1290 1147 b 1261 1019 1290 1063 1279 1036 b 1300 940 1286 1004 1300 978 b 1176 832 1300 872 1250 832 b 1053 958 1099 832 1053 878 l 1142 958 b 1181 904 1142 918 1158 904 b 1213 943 1199 904 1213 918 z "},"㎦":{"ha":1333,"x_min":0,"x_max":0,"o":"m 1000 418 l 1000 0 l 860 0 l 860 504 b 806 672 860 617 840 672 b 726 419 757 672 726 585 l 726 0 l 588 0 l 588 781 l 719 781 l 719 743 b 828 799 743 775 782 799 b 964 711 889 799 935 768 b 1101 799 993 769 1039 799 b 1272 499 1213 799 1272 692 l 1272 0 l 1133 0 l 1133 504 b 1079 672 1133 617 1114 672 b 1000 418 1029 672 1000 585 z m 1213 943 b 1178 981 1213 968 1200 981 l 1128 981 l 1128 1053 l 1178 1053 b 1203 1088 1196 1053 1203 1068 b 1176 1121 1203 1103 1194 1121 b 1150 1076 1161 1121 1150 1108 l 1064 1076 l 1064 1093 b 1176 1193 1064 1150 1106 1193 b 1290 1090 1250 1193 1290 1147 b 1261 1019 1290 1063 1279 1036 b 1300 940 1286 1004 1300 978 b 1176 832 1300 872 1250 832 b 1053 958 1099 832 1053 878 l 1142 958 b 1181 904 1142 918 1158 904 b 1213 943 1199 904 1213 918 z m 201 0 l 53 0 l 53 1093 l 201 1093 l 201 467 l 233 467 l 390 781 l 547 781 l 358 406 l 574 0 l 414 0 l 232 346 l 201 346 z "},"㎙":{"ha":1333,"x_min":0,"x_max":0,"o":"m 490 978 l 418 978 b 300 864 326 978 300 949 l 300 781 l 490 781 l 490 654 l 300 654 l 300 -1 l 153 -1 l 153 654 l 46 654 l 46 781 l 153 781 l 153 872 b 400 1104 153 1043 224 1104 b 490 1097 431 1104 460 1103 z m 964 418 l 964 -1 l 822 -1 l 822 504 b 767 672 822 617 806 672 b 689 419 718 672 689 585 l 689 -1 l 549 -1 l 549 781 l 682 781 l 682 743 b 789 799 704 775 744 799 b 926 711 850 799 897 768 b 1064 799 956 769 1001 799 b 1238 499 1176 799 1238 692 l 1238 -1 l 1096 -1 l 1096 504 b 1042 672 1096 617 1079 672 b 964 418 992 672 964 585 z "},"㎚":{"ha":1333,"x_min":0,"x_max":0,"o":"m 524 488 l 524 -1 l 383 -1 l 383 472 b 303 672 383 613 358 672 b 192 418 239 672 192 582 l 192 -1 l 51 -1 l 51 781 l 192 781 l 192 725 b 331 799 221 771 268 799 b 524 488 460 799 524 693 z m 1013 418 l 1013 -1 l 875 -1 l 875 504 b 821 672 875 617 857 672 b 743 426 772 672 743 592 l 743 -1 l 604 -1 l 604 781 l 732 781 l 732 743 b 842 799 756 775 797 799 b 976 713 901 799 949 768 b 1113 799 1006 769 1050 799 b 1283 499 1225 799 1283 692 l 1283 -1 l 1144 -1 l 1144 504 b 1090 672 1144 617 1128 672 b 1013 418 1043 672 1013 585 z "},"㎛":{"ha":1333,"x_min":0,"x_max":0,"o":"m 1013 418 l 1013 0 l 875 0 l 875 504 b 821 672 875 617 854 672 b 743 426 772 672 743 592 l 743 0 l 604 0 l 604 781 l 732 781 l 732 743 b 842 799 756 775 797 799 b 976 713 901 799 949 768 b 1113 799 1006 769 1050 799 b 1283 499 1225 799 1283 692 l 1283 0 l 1144 0 l 1144 504 b 1090 672 1144 617 1124 672 b 1013 418 1043 672 1013 585 z m 268 -19 b 192 14 238 -19 210 -7 l 192 -339 l 51 -339 l 51 781 l 192 781 l 192 285 b 269 107 192 161 222 107 b 381 347 333 107 381 188 l 381 781 l 521 781 l 521 0 l 381 0 l 381 53 b 268 -19 354 11 315 -19 z "},"㎜":{"ha":1333,"x_min":0,"x_max":0,"o":"m 404 418 l 404 -1 l 276 -1 l 276 504 b 238 672 276 617 267 672 b 178 419 197 672 178 592 l 178 -1 l 50 -1 l 50 781 l 168 781 l 168 756 b 256 799 188 781 222 799 b 368 725 304 799 346 772 b 482 799 393 771 431 799 b 632 499 579 799 632 706 l 632 -1 l 503 -1 l 503 504 b 464 672 503 617 493 672 b 404 418 425 672 404 592 z m 1057 418 l 1057 -1 l 929 -1 l 929 504 b 889 672 929 617 918 672 b 829 419 850 672 829 592 l 829 -1 l 701 -1 l 701 781 l 819 781 l 819 756 b 907 799 840 781 874 799 b 1019 725 956 799 997 772 b 1135 799 1044 771 1082 799 b 1283 499 1232 799 1283 706 l 1283 -1 l 1156 -1 l 1156 504 b 1115 672 1156 617 1144 672 b 1057 418 1076 672 1057 592 z "},"㎝":{"ha":1333,"x_min":0,"x_max":0,"o":"m 1008 418 l 1008 -1 l 871 -1 l 871 504 b 817 672 871 617 853 672 b 739 426 768 672 739 592 l 739 -1 l 600 -1 l 600 781 l 728 781 l 728 743 b 838 799 751 775 793 799 b 972 713 897 799 944 768 b 1108 799 1001 769 1046 799 b 1279 499 1221 799 1279 692 l 1279 -1 l 1140 -1 l 1140 504 b 1086 672 1140 617 1124 672 b 1008 418 1039 672 1008 585 z m 43 390 b 301 799 43 647 125 799 b 551 524 450 799 538 699 l 411 524 b 301 672 403 617 365 672 b 183 390 214 672 183 567 b 301 106 183 211 214 106 b 411 256 365 106 403 163 l 551 256 b 301 -19 538 81 450 -19 b 43 390 125 -19 43 131 z "},"㎞":{"ha":1333,"x_min":0,"x_max":0,"o":"m 1006 418 l 1006 0 l 865 0 l 865 504 b 811 672 865 617 846 672 b 732 419 763 672 732 585 l 732 0 l 593 0 l 593 781 l 725 781 l 725 743 b 833 799 749 775 788 799 b 969 711 894 799 940 768 b 1107 799 999 769 1044 799 b 1278 499 1218 799 1278 692 l 1278 0 l 1139 0 l 1139 504 b 1085 672 1139 617 1119 672 b 1006 418 1035 672 1006 585 z m 207 0 l 58 0 l 58 1093 l 207 1093 l 207 467 l 239 467 l 396 781 l 553 781 l 364 406 l 579 0 l 419 0 l 238 346 l 207 346 z "},"㎟":{"ha":1333,"x_min":0,"x_max":0,"o":"m 406 418 l 406 -1 l 278 -1 l 278 504 b 239 672 278 617 268 672 b 179 419 199 672 179 592 l 179 -1 l 51 -1 l 51 781 l 169 781 l 169 756 b 257 799 189 781 224 799 b 369 725 306 799 347 772 b 483 799 394 771 432 799 b 633 499 581 799 633 706 l 633 -1 l 504 -1 l 504 504 b 465 672 504 617 494 672 b 406 418 426 672 406 592 z m 1056 418 l 1056 -1 l 928 -1 l 928 504 b 888 672 928 617 917 672 b 828 419 849 672 828 592 l 828 -1 l 700 -1 l 700 781 l 818 781 l 818 756 b 906 799 839 781 872 799 b 1018 725 954 799 996 772 b 1133 799 1043 771 1081 799 b 1282 499 1231 799 1282 706 l 1282 -1 l 1154 -1 l 1154 504 b 1114 672 1154 617 1143 672 b 1056 418 1075 672 1056 592 z m 1292 1083 b 1256 996 1292 1050 1283 1028 l 1179 911 l 1296 911 l 1296 839 l 1060 839 l 1060 894 l 1188 1042 b 1204 1082 1199 1054 1204 1067 b 1174 1121 1204 1106 1193 1121 b 1143 1082 1154 1121 1143 1106 l 1143 1057 l 1054 1057 l 1054 1083 b 1174 1194 1054 1143 1096 1194 b 1292 1083 1250 1194 1292 1143 z "},"㎠":{"ha":1333,"x_min":0,"x_max":0,"o":"m 1292 1083 b 1256 996 1292 1050 1283 1028 l 1179 911 l 1296 911 l 1296 839 l 1060 839 l 1060 894 l 1188 1042 b 1204 1082 1199 1054 1204 1067 b 1174 1121 1204 1106 1193 1121 b 1143 1082 1154 1121 1143 1106 l 1143 1057 l 1054 1057 l 1054 1083 b 1174 1194 1054 1143 1096 1194 b 1292 1083 1250 1194 1292 1143 z m 1008 418 l 1008 -1 l 871 -1 l 871 504 b 817 672 871 617 853 672 b 739 426 768 672 739 592 l 739 -1 l 600 -1 l 600 781 l 728 781 l 728 743 b 838 799 751 775 793 799 b 972 713 897 799 944 768 b 1108 799 1001 769 1046 799 b 1279 499 1221 799 1279 692 l 1279 -1 l 1140 -1 l 1140 504 b 1086 672 1140 617 1124 672 b 1008 418 1039 672 1008 585 z m 43 390 b 301 799 43 647 125 799 b 551 524 450 799 538 699 l 411 524 b 301 672 403 617 365 672 b 183 390 214 672 183 567 b 301 106 183 211 214 106 b 411 256 365 106 403 163 l 551 256 b 301 -19 538 81 450 -19 b 43 390 125 -19 43 131 z "},"㎡":{"ha":1333,"x_min":0,"x_max":0,"o":"m 729 418 l 729 -1 l 576 -1 l 576 504 b 432 672 576 617 525 672 b 247 419 324 672 247 585 l 247 -1 l 93 -1 l 93 781 l 247 781 l 247 646 b 471 799 279 740 356 799 b 707 638 586 799 672 743 b 953 799 751 743 835 799 b 1213 499 1119 799 1213 692 l 1213 -1 l 1058 -1 l 1058 504 b 915 672 1058 617 1007 672 b 729 418 807 672 729 585 z m 1292 1083 b 1256 996 1292 1050 1283 1028 l 1179 911 l 1296 911 l 1296 839 l 1060 839 l 1060 894 l 1188 1042 b 1204 1082 1199 1054 1204 1067 b 1174 1121 1204 1106 1193 1121 b 1143 1082 1154 1121 1143 1106 l 1143 1057 l 1054 1057 l 1054 1083 b 1174 1194 1054 1143 1096 1194 b 1292 1083 1250 1194 1292 1143 z "},"㎢":{"ha":1333,"x_min":0,"x_max":0,"o":"m 1000 418 l 1000 0 l 860 0 l 860 504 b 806 672 860 617 839 672 b 726 419 757 672 726 585 l 726 0 l 588 0 l 588 781 l 719 781 l 719 743 b 828 799 743 775 782 799 b 964 711 889 799 935 768 b 1101 799 993 769 1039 799 b 1272 499 1213 799 1272 692 l 1272 0 l 1133 0 l 1133 504 b 1079 672 1133 617 1113 672 b 1000 418 1029 672 1000 585 z m 201 0 l 53 0 l 53 1093 l 201 1093 l 201 467 l 233 467 l 390 781 l 547 781 l 358 406 l 574 0 l 414 0 l 232 346 l 201 346 z m 1292 1083 b 1256 996 1292 1050 1283 1028 l 1179 911 l 1296 911 l 1296 839 l 1060 839 l 1060 894 l 1188 1042 b 1204 1082 1199 1054 1204 1067 b 1174 1121 1204 1106 1193 1121 b 1143 1082 1154 1121 1143 1106 l 1143 1057 l 1054 1057 l 1054 1083 b 1174 1194 1054 1143 1096 1194 b 1292 1083 1250 1194 1292 1143 z "},"㏊":{"ha":1333,"x_min":0,"x_max":0,"o":"m 621 488 l 621 -1 l 472 -1 l 472 472 b 372 672 472 613 438 672 b 242 418 297 672 242 582 l 242 -1 l 92 -1 l 92 781 l 242 781 l 242 718 b 401 799 275 767 332 799 b 621 488 544 799 621 686 z m 1103 -1 b 1094 40 1099 11 1096 25 b 938 -19 1063 4 1010 -19 b 703 228 794 -19 703 71 b 938 476 703 385 793 476 b 1092 424 1007 476 1057 458 l 1092 507 b 981 674 1092 611 1054 674 b 875 550 917 674 882 626 l 725 550 b 981 799 735 700 819 799 b 1239 506 1154 799 1239 683 l 1239 107 b 1253 -1 1239 65 1246 25 z m 971 99 b 1092 228 1050 99 1092 144 b 971 358 1092 311 1050 358 b 851 228 892 358 851 311 b 971 99 851 144 892 99 z "},"㎍":{"ha":1333,"x_min":0,"x_max":0,"o":"m 1103 -44 l 1103 51 b 950 -19 1069 8 1015 -19 b 700 390 794 -19 700 113 b 950 799 700 667 794 799 b 1103 728 1015 799 1071 771 l 1103 781 l 1253 781 l 1253 -32 b 988 -361 1253 -218 1174 -361 b 731 -124 838 -361 744 -269 l 881 -124 b 989 -242 889 -199 928 -242 b 1103 -44 1065 -242 1103 -172 z m 1103 390 b 976 672 1103 567 1069 672 b 849 390 881 672 849 567 b 976 107 849 211 881 107 b 1103 390 1069 107 1103 211 z m 329 -19 b 229 22 288 -19 253 -4 l 229 -339 l 81 -339 l 81 781 l 229 781 l 229 292 b 331 107 229 186 260 107 b 468 354 407 107 468 194 l 468 781 l 617 781 l 617 0 l 468 0 l 468 61 b 329 -19 436 13 386 -19 z "},"㎎":{"ha":1333,"x_min":0,"x_max":0,"o":"m 1138 -44 l 1138 43 b 1004 -19 1107 4 1060 -19 b 778 390 863 -19 778 113 b 1004 799 778 667 863 799 b 1138 738 1060 799 1108 775 l 1138 781 l 1276 781 l 1276 -32 b 1038 -361 1276 -218 1204 -361 b 804 -124 900 -361 817 -269 l 944 -124 b 1038 -242 951 -199 986 -242 b 1138 -44 1104 -242 1138 -172 z m 1138 390 b 1026 672 1138 567 1108 672 b 915 390 944 672 915 567 b 1026 107 915 211 944 107 b 1138 390 1108 107 1138 211 z m 457 418 l 457 0 l 319 0 l 319 504 b 265 672 319 617 299 672 b 188 426 217 672 188 592 l 188 0 l 49 0 l 49 781 l 176 781 l 176 743 b 286 799 200 775 242 799 b 421 713 346 799 393 768 b 557 799 450 769 494 799 b 728 499 669 799 728 692 l 728 0 l 589 0 l 589 504 b 535 672 589 617 568 672 b 457 418 488 672 457 585 z "},"㎏":{"ha":1333,"x_min":0,"x_max":0,"o":"m 1063 -44 l 1063 51 b 910 -19 1029 8 975 -19 b 660 390 754 -19 660 113 b 910 799 660 667 754 799 b 1063 728 975 799 1031 771 l 1063 781 l 1213 781 l 1213 -32 b 947 -361 1213 -218 1133 -361 b 690 -124 797 -361 704 -269 l 840 -124 b 949 -242 849 -199 888 -242 b 1063 -44 1025 -242 1063 -172 z m 1063 390 b 936 672 1063 567 1029 672 b 808 390 840 672 808 567 b 936 107 808 211 840 107 b 1063 390 1029 107 1063 211 z m 272 0 l 122 0 l 122 1093 l 272 1093 l 272 467 l 313 467 l 485 781 l 644 781 l 438 406 l 671 0 l 510 0 l 311 346 l 272 346 z "},"㏏":{"ha":1333,"x_min":0,"x_max":0,"o":"m 285 0 l 139 0 l 139 1093 l 285 1093 l 285 467 l 353 467 l 543 781 l 704 781 l 472 406 l 738 0 l 572 0 l 351 346 l 285 346 z m 1019 654 l 1019 238 b 1149 114 1019 136 1054 114 l 1224 114 l 1224 -8 b 1122 -11 1199 -11 1154 -11 b 872 211 947 -11 872 43 l 872 654 l 765 654 l 765 781 l 872 781 l 872 1001 l 1019 1001 l 1019 781 l 1224 781 l 1224 654 z "},"㎈":{"ha":1333,"x_min":0,"x_max":0,"o":"m 47 390 b 293 799 47 647 128 799 b 532 524 433 799 519 699 l 392 524 b 293 672 383 617 350 672 b 186 390 214 672 186 567 b 293 106 186 211 214 106 b 392 256 350 106 383 163 l 532 256 b 293 -19 519 81 433 -19 b 47 390 128 -19 47 131 z m 926 -1 b 921 32 924 8 922 21 b 788 -19 892 0 846 -19 b 576 228 657 -19 576 71 b 788 476 576 385 657 476 b 915 433 842 476 885 463 l 915 507 b 825 674 915 611 886 674 b 738 550 771 674 742 628 l 596 550 b 825 799 603 700 681 799 b 1056 506 978 799 1056 683 l 1056 107 b 1067 -1 1056 68 1060 26 z m 815 99 b 915 228 882 99 915 144 b 815 358 915 311 882 358 b 715 228 749 358 715 311 b 815 99 715 144 749 99 z m 1274 -1 l 1133 -1 l 1133 1093 l 1274 1093 z "},"㎉":{"ha":1333,"x_min":0,"x_max":0,"o":"m 185 0 l 64 0 l 64 1093 l 185 1093 l 185 488 l 278 781 l 403 781 l 281 406 l 421 0 l 292 0 l 185 321 z m 393 390 b 569 799 393 654 450 799 b 740 524 672 799 733 700 l 618 524 b 569 672 615 617 597 672 b 514 390 529 672 514 568 b 569 107 514 210 529 107 b 618 256 597 107 615 161 l 740 256 b 569 -19 733 79 672 -19 b 393 390 450 -19 393 124 z m 996 0 b 994 18 996 6 994 13 b 913 -19 975 -3 944 -19 b 758 228 818 -19 758 72 b 913 476 758 385 818 476 b 981 451 940 476 964 467 l 981 507 b 938 674 981 611 967 674 b 894 550 911 674 899 626 l 772 550 b 938 799 776 706 833 799 b 1104 506 1049 799 1104 685 l 1104 108 b 1111 0 1104 68 1107 26 z m 981 228 b 932 358 981 311 964 358 b 881 228 897 358 881 311 b 932 99 881 144 897 99 b 981 228 964 99 981 144 z m 1285 0 l 1163 0 l 1163 1093 l 1285 1093 z "},"㏈":{"ha":1333,"x_min":0,"x_max":0,"o":"m 440 739 l 440 1093 l 588 1093 l 588 0 l 440 0 l 440 40 b 303 -19 408 4 360 -19 b 64 390 153 -19 64 113 b 303 799 64 667 153 799 b 440 739 360 799 408 775 z m 440 390 b 326 672 440 567 411 672 b 211 390 240 672 211 567 b 326 107 211 211 240 107 b 440 390 411 107 440 211 z m 850 631 l 972 631 b 1096 792 1054 631 1096 679 b 972 953 1096 906 1053 953 l 850 953 z m 1011 0 l 696 0 l 696 1093 l 994 1093 b 1249 803 1163 1093 1249 992 b 1119 567 1249 682 1199 599 l 1118 567 b 1271 307 1217 538 1271 439 b 1011 0 1271 104 1186 0 z m 1117 314 b 988 492 1117 438 1079 492 l 850 492 l 850 138 l 988 138 b 1117 314 1079 138 1117 192 z "},"㎧":{"ha":1333,"x_min":0,"x_max":0,"o":"m 1090 799 b 1267 571 1201 799 1267 708 l 1267 554 l 1143 554 l 1143 572 b 1090 678 1143 631 1126 678 b 1039 575 1056 678 1039 632 b 1093 469 1039 513 1056 483 b 1169 438 1122 458 1147 449 b 1283 215 1247 399 1283 340 b 1099 -19 1283 79 1211 -19 b 914 215 985 -19 914 76 l 914 239 l 1038 239 l 1038 214 b 1099 101 1038 144 1061 101 b 1158 213 1136 101 1158 146 b 1107 326 1158 279 1143 314 b 1033 354 1079 336 1054 344 b 915 569 956 392 915 456 b 1090 799 915 703 979 799 z m 390 418 l 390 0 l 264 0 l 264 504 b 235 672 264 617 257 672 b 188 419 203 672 188 592 l 188 0 l 61 0 l 61 781 l 175 781 l 175 761 b 250 799 192 783 221 799 b 351 736 296 799 331 778 b 453 799 374 774 410 799 b 593 499 546 799 593 706 l 593 0 l 465 0 l 465 504 b 438 672 465 617 460 672 b 390 418 404 672 390 592 z m 815 1093 l 936 1093 l 704 -321 l 583 -321 z "},"㎨":{"ha":1333,"x_min":0,"x_max":0,"o":"m 390 418 l 390 0 l 264 0 l 264 504 b 235 672 264 617 257 672 b 188 419 203 672 188 592 l 188 0 l 61 0 l 61 781 l 175 781 l 175 761 b 250 799 192 783 221 799 b 351 736 296 799 331 778 b 453 799 374 774 410 799 b 593 499 546 799 593 706 l 593 0 l 465 0 l 465 504 b 438 672 465 617 460 672 b 390 418 404 672 390 592 z m 815 1093 l 936 1093 l 704 -321 l 583 -321 z m 1292 1083 b 1263 1006 1292 1057 1283 1029 l 1179 911 l 1296 911 l 1296 839 l 1060 839 l 1060 894 l 1186 1039 b 1204 1082 1199 1053 1204 1068 b 1174 1121 1204 1106 1193 1121 b 1143 1082 1154 1121 1143 1106 l 1143 1057 l 1054 1057 l 1054 1083 b 1174 1194 1054 1143 1096 1194 b 1292 1083 1250 1194 1292 1143 z m 1090 799 b 1267 571 1201 799 1267 708 l 1267 554 l 1143 554 l 1143 572 b 1090 678 1143 631 1126 678 b 1039 575 1056 678 1039 632 b 1093 469 1039 513 1056 483 b 1169 438 1122 458 1147 449 b 1283 215 1247 399 1283 340 b 1099 -19 1283 79 1211 -19 b 914 215 985 -19 914 76 l 914 239 l 1038 239 l 1038 214 b 1099 101 1038 144 1061 101 b 1158 213 1136 101 1158 146 b 1107 326 1158 279 1143 314 b 1033 354 1079 336 1054 344 b 915 569 956 392 915 456 b 1090 799 915 703 979 799 z "},"㎰":{"ha":1333,"x_min":0,"x_max":0,"o":"m 244 56 l 244 -339 l 94 -339 l 94 781 l 244 781 l 244 725 b 404 799 279 774 332 799 b 663 390 565 799 663 667 b 404 -19 663 113 565 -19 b 244 56 333 -19 279 7 z m 244 390 b 379 107 244 211 279 107 b 511 390 478 107 511 211 b 379 672 511 567 478 672 b 244 390 279 672 244 567 z m 985 799 b 1226 571 1138 799 1226 706 l 1226 554 l 1076 554 l 1076 572 b 985 678 1076 631 1046 678 b 893 575 925 678 893 632 b 982 469 893 517 924 483 b 1050 451 1007 463 1029 457 b 1250 215 1185 411 1250 356 b 994 -19 1250 82 1151 -19 b 739 215 838 -19 739 79 l 739 239 l 890 239 l 890 214 b 994 101 890 144 932 101 b 1100 213 1058 101 1100 146 b 1015 326 1100 275 1069 313 b 942 347 989 333 964 340 b 742 569 804 389 742 438 b 985 799 742 700 832 799 z "},"㎱":{"ha":1333,"x_min":0,"x_max":0,"o":"m 639 488 l 639 0 l 489 0 l 489 472 b 385 672 489 610 446 672 b 246 375 296 672 246 565 l 246 0 l 96 0 l 96 781 l 246 781 l 246 714 b 414 799 281 768 338 799 b 639 488 560 799 639 686 z m 985 799 b 1226 571 1138 799 1226 706 l 1226 554 l 1076 554 l 1076 572 b 985 678 1076 631 1046 678 b 893 575 925 678 893 632 b 982 469 893 517 924 483 b 1050 451 1007 463 1029 457 b 1250 215 1185 411 1250 356 b 994 -19 1250 82 1151 -19 b 739 215 838 -19 739 79 l 739 239 l 890 239 l 890 214 b 994 101 890 144 932 101 b 1100 213 1058 101 1100 146 b 1015 326 1100 275 1069 313 b 942 347 989 333 964 340 b 742 569 804 389 742 438 b 985 799 742 700 832 799 z "},"㎲":{"ha":1333,"x_min":0,"x_max":0,"o":"m 354 -19 b 254 22 313 -19 278 -3 l 254 -339 l 106 -339 l 106 781 l 254 781 l 254 292 b 357 107 254 190 286 107 b 494 354 433 107 494 194 l 494 781 l 643 781 l 643 0 l 494 0 l 494 61 b 354 -19 463 13 413 -19 z m 985 799 b 1226 571 1138 799 1226 706 l 1226 554 l 1076 554 l 1076 572 b 985 678 1076 631 1046 678 b 893 575 925 678 893 632 b 982 469 893 517 924 483 b 1050 451 1007 463 1029 457 b 1250 215 1185 411 1250 356 b 994 -19 1250 82 1151 -19 b 739 215 838 -19 739 79 l 739 239 l 890 239 l 890 214 b 994 101 890 144 932 101 b 1100 213 1058 101 1100 146 b 1015 326 1100 275 1069 313 b 942 347 989 333 964 340 b 742 569 804 389 742 438 b 985 799 742 700 832 799 z "},"㎳":{"ha":1333,"x_min":0,"x_max":0,"o":"m 1035 799 b 1265 571 1181 799 1265 706 l 1265 554 l 1117 554 l 1117 572 b 1035 678 1117 631 1089 678 b 953 575 982 678 953 632 b 1056 463 953 507 986 482 b 1097 451 1068 458 1082 456 b 1288 215 1233 418 1288 350 b 1044 -19 1288 82 1193 -19 b 801 215 894 -19 801 79 l 801 239 l 950 239 l 950 214 b 1044 101 950 144 988 101 b 1139 213 1101 101 1139 146 b 1061 326 1139 275 1114 311 b 1010 342 1043 332 1026 336 b 804 569 868 383 804 433 b 1035 799 804 700 890 799 z m 467 418 l 467 0 l 328 0 l 328 504 b 274 672 328 617 307 672 b 196 426 226 672 196 592 l 196 0 l 58 0 l 58 781 l 186 781 l 186 743 b 294 799 210 775 250 799 b 429 713 354 799 401 768 b 565 799 458 769 504 799 b 736 499 679 799 736 692 l 736 0 l 597 0 l 597 504 b 544 672 597 617 578 672 b 467 418 496 672 467 585 z "},"㎴":{"ha":1333,"x_min":0,"x_max":0,"o":"m 243 56 l 243 -339 l 93 -339 l 93 781 l 243 781 l 243 725 b 403 799 278 774 331 799 b 661 390 564 799 661 667 b 403 -19 661 113 564 -19 b 243 56 332 -19 278 7 z m 243 390 b 378 107 243 211 278 107 b 510 390 476 107 510 211 b 378 672 510 567 476 672 b 243 390 278 672 243 567 z m 1043 0 l 865 0 l 599 1093 l 758 1093 l 954 231 l 1151 1093 l 1310 1093 z "},"㎵":{"ha":1333,"x_min":0,"x_max":0,"o":"m 1043 0 l 865 0 l 599 1093 l 758 1093 l 954 231 l 1151 1093 l 1310 1093 z m 636 488 l 636 0 l 485 0 l 485 472 b 381 672 485 610 443 672 b 243 375 292 672 243 567 l 243 0 l 93 0 l 93 781 l 243 781 l 243 714 b 411 799 278 768 333 799 b 636 488 556 799 636 686 z "},"㎶":{"ha":1333,"x_min":0,"x_max":0,"o":"m 1050 0 l 872 0 l 606 1093 l 765 1093 l 961 231 l 1158 1093 l 1317 1093 z m 342 -19 b 242 22 300 -19 265 -3 l 242 -339 l 93 -339 l 93 781 l 242 781 l 242 292 b 344 107 242 190 275 107 b 482 354 421 107 482 194 l 482 781 l 631 781 l 631 0 l 482 0 l 482 61 b 342 -19 450 13 400 -19 z "},"㎷":{"ha":1333,"x_min":0,"x_max":0,"o":"m 1088 0 l 918 0 l 676 1093 l 829 1093 l 1003 232 l 1178 1093 l 1329 1093 z m 471 418 l 471 0 l 333 0 l 333 504 b 279 672 333 617 313 672 b 201 426 231 672 201 592 l 201 0 l 63 0 l 63 781 l 190 781 l 190 743 b 300 799 214 775 256 799 b 435 713 360 799 407 768 b 571 799 464 769 508 799 b 742 499 683 799 742 692 l 742 0 l 603 0 l 603 504 b 549 672 603 617 582 672 b 471 418 501 672 471 585 z "},"㎸":{"ha":1333,"x_min":0,"x_max":0,"o":"m 1050 0 l 872 0 l 606 1093 l 765 1093 l 961 231 l 1158 1093 l 1317 1093 z m 275 0 l 126 0 l 126 1093 l 275 1093 l 275 467 l 311 467 l 478 781 l 636 781 l 435 406 l 661 0 l 501 0 l 310 346 l 275 346 z "},"㎹":{"ha":1333,"x_min":0,"x_max":0,"o":"m 465 0 l 331 0 l 210 550 l 210 0 l 71 0 l 71 1093 l 215 1093 l 397 301 l 581 1093 l 725 1093 l 725 0 l 585 0 l 585 543 z m 1115 0 l 957 0 l 756 1093 l 903 1093 l 1038 340 l 1171 1093 l 1318 1093 z "},"㎀":{"ha":1333,"x_min":0,"x_max":0,"o":"m 229 47 l 229 -339 l 82 -339 l 82 781 l 229 781 l 229 733 b 375 799 261 774 313 799 b 619 390 528 799 619 667 b 375 -19 619 113 528 -19 b 229 47 313 -19 261 7 z m 229 390 b 350 107 229 211 261 107 b 472 390 440 107 472 211 b 350 672 472 567 440 672 b 229 390 261 672 229 567 z m 881 1093 l 1053 1093 l 1319 0 l 1163 0 l 1106 240 l 828 240 l 772 0 l 614 0 z m 858 379 l 1075 379 l 967 843 z "},"㎁":{"ha":1333,"x_min":0,"x_max":0,"o":"m 881 1093 l 1053 1093 l 1319 0 l 1163 0 l 1106 240 l 828 240 l 772 0 l 614 0 z m 858 379 l 1075 379 l 967 843 z m 588 488 l 588 0 l 440 0 l 440 472 b 346 672 440 610 401 672 b 221 375 264 672 221 565 l 221 0 l 72 0 l 72 781 l 221 781 l 221 725 b 374 799 254 772 304 799 b 588 488 513 799 588 686 z "},"㎂":{"ha":1333,"x_min":0,"x_max":0,"o":"m 315 -19 b 225 15 276 -19 249 -8 l 225 -339 l 76 -339 l 76 781 l 225 781 l 225 292 b 317 107 225 168 265 107 b 444 354 388 107 444 194 l 444 781 l 592 781 l 592 0 l 444 0 l 444 50 b 315 -19 414 7 369 -19 z m 881 1093 l 1053 1093 l 1319 0 l 1163 0 l 1106 240 l 828 240 l 772 0 l 614 0 z m 858 379 l 1075 379 l 967 843 z "},"㎃":{"ha":1333,"x_min":0,"x_max":0,"o":"m 451 418 l 451 0 l 313 0 l 313 504 b 260 672 313 617 293 672 b 183 419 214 672 183 585 l 183 0 l 46 0 l 46 781 l 176 781 l 176 749 b 282 799 200 779 236 799 b 415 710 343 799 388 771 b 550 799 444 769 489 799 b 718 499 663 799 718 692 l 718 0 l 579 0 l 579 504 b 528 672 579 617 560 672 b 451 418 481 672 451 585 z m 949 1093 l 1106 1093 l 1331 0 l 1185 0 l 1138 240 l 917 240 l 869 0 l 724 0 z m 943 379 l 1111 379 l 1026 821 z "},"㎄":{"ha":1333,"x_min":0,"x_max":0,"o":"m 844 379 l 1061 379 l 953 843 z m 467 0 l 288 346 l 260 346 l 260 0 l 111 0 l 111 1093 l 260 1093 l 260 467 l 289 467 l 451 781 l 608 781 l 413 406 l 608 35 l 868 1093 l 1039 1093 l 1306 0 l 1149 0 l 1092 240 l 814 240 l 758 0 z "},"㎺":{"ha":1333,"x_min":0,"x_max":0,"o":"m 1168 0 l 1021 0 l 918 721 l 814 0 l 667 0 l 506 1093 l 643 1093 l 747 342 l 851 1093 l 983 1093 l 1088 343 l 1192 1093 l 1329 1093 z m 210 28 l 210 -339 l 72 -339 l 72 781 l 210 781 l 210 751 b 322 799 238 781 276 799 b 533 390 454 799 533 667 b 322 -19 533 113 454 -19 b 210 28 275 -19 238 -1 z m 210 390 b 303 107 210 211 235 107 b 394 390 371 107 394 211 b 303 672 394 567 371 672 b 210 390 235 672 210 567 z "},"㎻":{"ha":1333,"x_min":0,"x_max":0,"o":"m 507 488 l 507 0 l 369 0 l 369 472 b 299 672 369 610 340 672 b 203 375 236 672 203 565 l 203 0 l 65 0 l 65 781 l 200 781 l 200 742 b 322 799 228 776 272 799 b 507 488 442 799 507 686 z m 1168 0 l 1021 0 l 918 721 l 814 0 l 667 0 l 506 1093 l 643 1093 l 747 342 l 851 1093 l 983 1093 l 1088 343 l 1192 1093 l 1329 1093 z "},"㎼":{"ha":1333,"x_min":0,"x_max":0,"o":"m 271 -19 b 204 4 242 -21 221 -12 l 204 -339 l 65 -339 l 65 781 l 204 781 l 204 292 b 272 107 204 168 232 107 b 371 354 328 107 371 194 l 371 781 l 507 781 l 507 0 l 374 0 l 374 33 b 271 -19 350 3 310 -19 z m 1168 0 l 1021 0 l 918 721 l 814 0 l 667 0 l 506 1093 l 643 1093 l 747 342 l 851 1093 l 983 1093 l 1088 343 l 1192 1093 l 1329 1093 z "},"㎽":{"ha":1333,"x_min":0,"x_max":0,"o":"m 1186 0 l 1047 0 l 968 625 l 888 0 l 749 0 l 611 1093 l 744 1093 l 822 404 l 906 1093 l 1031 1093 l 1111 404 l 1190 1093 l 1324 1093 z m 406 418 l 406 0 l 275 0 l 275 504 b 240 672 275 617 265 672 b 185 419 204 672 185 585 l 185 0 l 54 0 l 54 781 l 174 781 l 174 760 b 258 799 194 783 226 799 b 368 729 306 799 343 775 b 479 799 392 775 429 799 b 628 499 582 799 628 693 l 628 0 l 496 0 l 496 504 b 461 672 496 617 486 672 b 406 418 425 672 406 585 z "},"㎾":{"ha":1333,"x_min":0,"x_max":0,"o":"m 208 0 l 60 0 l 60 1093 l 208 1093 l 208 467 l 232 467 l 389 781 l 546 781 l 357 406 l 565 0 l 406 0 l 231 346 l 208 346 z m 1168 0 l 1021 0 l 918 721 l 814 0 l 667 0 l 506 1093 l 643 1093 l 747 342 l 851 1093 l 983 1093 l 1088 343 l 1192 1093 l 1329 1093 z "},"㎿":{"ha":1333,"x_min":0,"x_max":0,"o":"m 392 0 l 274 0 l 189 482 l 189 0 l 60 0 l 60 1093 l 192 1093 l 333 324 l 474 1093 l 607 1093 l 607 0 l 476 0 l 476 479 z m 1188 0 l 1051 0 l 975 644 l 899 0 l 763 0 l 632 1093 l 764 1093 l 838 404 l 913 1093 l 1039 1093 l 1114 408 l 1186 1093 l 1318 1093 z "},"㎐":{"ha":1333,"x_min":0,"x_max":0,"o":"m 556 -1 l 556 489 l 244 489 l 244 -1 l 97 -1 l 97 1093 l 244 1093 l 244 629 l 556 629 l 556 1093 l 703 1093 l 703 -1 z m 1268 781 l 1268 669 l 958 125 l 1276 125 l 1276 -1 l 789 -1 l 789 110 l 1099 654 l 799 654 l 799 781 z "},"㎑":{"ha":1333,"x_min":0,"x_max":0,"o":"m 756 0 l 756 489 l 611 489 l 611 0 l 475 0 l 475 1093 l 611 1093 l 611 629 l 756 629 l 756 1093 l 890 1093 l 890 0 z m 1292 781 l 1292 672 l 1078 125 l 1297 125 l 1297 0 l 929 0 l 929 107 l 1143 654 l 935 654 l 935 781 z m 200 0 l 64 0 l 64 1093 l 200 1093 l 200 468 l 315 781 l 454 781 l 318 406 l 474 0 l 331 0 l 204 343 l 200 343 z "},"㎒":{"ha":1333,"x_min":0,"x_max":0,"o":"m 332 -1 l 231 -1 l 164 435 l 164 -1 l 42 -1 l 42 1093 l 153 1093 l 281 363 l 410 1093 l 521 1093 l 521 -1 l 399 -1 l 399 421 z m 815 -1 l 815 489 l 713 489 l 713 -1 l 579 -1 l 579 1093 l 713 1093 l 713 629 l 815 629 l 815 1093 l 947 1093 l 947 -1 z m 1300 781 l 1300 675 l 1128 125 l 1304 125 l 1304 -1 l 985 -1 l 985 104 l 1157 654 l 989 654 l 989 781 z "},"㎓":{"ha":1333,"x_min":0,"x_max":0,"o":"m 33 546 b 265 1111 33 857 82 1111 b 492 728 404 1111 485 957 l 363 728 b 265 971 358 878 324 971 b 161 546 190 971 161 842 b 265 121 161 236 192 121 b 365 433 338 121 356 242 l 243 433 l 243 567 l 492 567 l 492 0 l 383 0 l 381 53 b 260 -19 351 11 310 -19 b 33 546 82 -19 33 238 z m 814 0 l 814 489 l 668 489 l 668 0 l 539 0 l 539 1093 l 668 1093 l 668 629 l 814 629 l 814 1093 l 943 1093 l 943 0 z m 1301 781 l 1301 671 l 1115 125 l 1307 125 l 1307 0 l 975 0 l 975 108 l 1160 654 l 981 654 l 981 781 z "},"㎔":{"ha":1333,"x_min":0,"x_max":0,"o":"m 765 -1 l 765 489 l 618 489 l 618 -1 l 483 -1 l 483 1093 l 618 1093 l 618 629 l 765 629 l 765 1093 l 900 1093 l 900 -1 z m 1281 781 l 1281 671 l 1085 125 l 1286 125 l 1286 -1 l 940 -1 l 940 108 l 1136 654 l 946 654 l 946 781 z m 19 953 l 19 1093 l 443 1093 l 443 953 l 303 953 l 303 -1 l 161 -1 l 161 953 z "},"Ω":{"ha":985,"x_min":0,"x_max":0,"o":"m 493 1108 b 817 961 646 1108 751 1054 b 915 564 890 857 915 719 b 725 142 915 349 846 199 l 894 142 l 894 1 l 546 1 l 546 142 b 754 546 694 194 754 324 b 685 879 754 715 733 810 b 493 968 644 936 579 968 b 300 879 407 968 342 936 b 232 546 251 811 232 715 b 440 142 232 324 292 194 l 440 1 l 92 1 l 92 142 l 261 142 b 69 564 140 199 69 349 b 169 961 69 719 96 857 b 493 1108 235 1054 340 1108 z "},"㏀":{"ha":1333,"x_min":0,"x_max":0,"o":"m 938 971 b 764 546 783 971 764 771 b 907 133 764 322 803 186 l 907 0 l 628 0 l 628 138 l 761 138 b 613 565 668 204 613 357 b 938 1111 613 851 669 1111 b 1263 565 1204 1111 1263 849 b 1114 138 1263 357 1206 204 l 1246 138 l 1246 0 l 967 0 l 967 133 b 1111 546 1072 186 1111 322 b 938 971 1111 772 1090 971 z m 247 0 l 100 0 l 100 1093 l 247 1093 l 247 467 l 269 467 l 432 781 l 589 781 l 393 406 l 606 0 l 449 0 l 268 346 l 247 346 z "},"㏁":{"ha":1333,"x_min":0,"x_max":0,"o":"m 1024 971 b 906 546 921 971 906 783 b 1004 131 906 322 931 190 l 1004 0 l 772 0 l 772 138 l 878 138 b 761 565 810 210 761 368 b 1024 1111 761 893 821 1111 b 1286 565 1225 1111 1286 893 b 1168 138 1286 367 1238 208 l 1274 138 l 1274 0 l 1042 0 l 1042 131 b 1140 546 1115 190 1140 322 b 1024 971 1140 782 1126 971 z m 444 0 l 308 0 l 194 557 l 194 0 l 51 0 l 51 1093 l 196 1093 l 376 301 l 557 1093 l 701 1093 l 701 0 l 558 0 l 558 550 z "},"㎊":{"ha":1333,"x_min":0,"x_max":0,"o":"m 233 64 l 233 -339 l 85 -339 l 85 781 l 233 781 l 233 717 b 401 799 268 768 325 799 b 664 390 564 799 664 667 b 401 -19 664 113 564 -19 b 233 64 324 -19 267 11 z m 233 390 b 375 107 233 211 269 107 b 514 390 478 107 514 211 b 375 672 514 567 478 672 b 233 390 269 672 233 567 z m 736 0 l 736 1093 l 1289 1093 l 1289 953 l 890 953 l 890 613 l 1251 613 l 1251 474 l 890 474 l 890 0 z "},"㎋":{"ha":1333,"x_min":0,"x_max":0,"o":"m 632 488 l 632 -1 l 482 -1 l 482 472 b 372 672 482 613 443 672 b 226 418 288 672 226 582 l 226 -1 l 78 -1 l 78 781 l 226 781 l 226 704 b 403 799 261 764 321 799 b 632 488 551 799 632 686 z m 736 -1 l 736 1093 l 1289 1093 l 1289 953 l 890 953 l 890 613 l 1251 613 l 1251 474 l 890 474 l 890 -1 z "},"㎌":{"ha":1333,"x_min":0,"x_max":0,"o":"m 333 -19 b 228 28 289 -19 251 -1 l 228 -339 l 79 -339 l 79 781 l 228 781 l 228 292 b 335 107 228 168 271 107 b 481 354 417 107 481 194 l 481 781 l 628 781 l 628 0 l 481 0 l 481 72 b 333 -19 447 19 393 -19 z m 736 0 l 736 1093 l 1289 1093 l 1289 953 l 890 953 l 890 613 l 1251 613 l 1251 474 l 890 474 l 890 0 z "},"㏖":{"ha":1333,"x_min":0,"x_max":0,"o":"m 408 418 l 408 -1 l 279 -1 l 279 504 b 235 672 279 617 264 672 b 169 419 194 672 169 585 l 169 -1 l 39 -1 l 39 781 l 163 781 l 163 754 b 253 799 185 781 221 799 b 374 721 306 799 347 774 b 493 799 400 774 439 799 b 650 499 597 799 650 699 l 650 -1 l 518 -1 l 518 504 b 475 672 518 617 504 672 b 408 418 435 672 408 585 z m 1094 390 b 894 -19 1094 131 1047 -19 b 696 390 743 -19 696 131 b 894 799 696 647 743 799 b 1094 390 1047 799 1094 647 z m 826 390 b 894 106 826 211 839 106 b 963 390 950 106 963 211 b 894 672 963 567 950 672 b 826 390 839 672 826 567 z m 1274 -1 l 1142 -1 l 1142 1093 l 1274 1093 z "},"㏅":{"ha":1333,"x_min":0,"x_max":0,"o":"m 69 390 b 353 799 69 647 161 799 b 626 524 514 799 613 699 l 478 524 b 353 672 468 617 425 672 b 218 390 254 672 218 567 b 353 107 218 211 254 107 b 478 256 425 107 468 163 l 626 256 b 353 -19 613 81 514 -19 b 69 390 161 -19 69 131 z m 1097 726 l 1097 1093 l 1246 1093 l 1246 0 l 1097 0 l 1097 53 b 943 -19 1064 7 1011 -19 b 693 390 789 -19 693 113 b 943 799 693 667 789 799 b 1097 726 1011 799 1064 772 z m 1097 390 b 969 672 1097 567 1064 672 b 842 390 874 672 842 567 b 969 107 842 211 874 107 b 1097 390 1064 107 1097 211 z "},"㎭":{"ha":1333,"x_min":0,"x_max":0,"o":"m 672 0 b 668 28 669 8 668 19 b 560 -19 643 0 604 -19 b 372 228 446 -19 372 72 b 560 476 372 385 444 476 b 663 439 601 476 638 463 l 663 507 b 593 674 663 615 640 674 b 525 550 551 674 529 628 l 389 550 b 593 799 394 701 464 799 b 797 506 729 799 797 690 l 797 108 b 807 0 797 67 801 25 z m 663 228 b 585 358 663 311 636 358 b 507 228 533 358 507 311 b 585 99 507 144 533 99 b 663 228 636 99 663 144 z m 1151 758 l 1151 1093 l 1288 1093 l 1288 0 l 1151 0 l 1151 32 b 1049 -19 1128 0 1090 -19 b 850 390 925 -19 850 113 b 1049 799 850 667 925 799 b 1151 758 1090 799 1126 785 z m 1151 390 b 1068 672 1151 567 1131 672 b 986 390 1007 672 986 567 b 1068 107 986 211 1007 107 b 1151 390 1131 107 1151 211 z m 315 669 b 182 399 232 669 182 579 l 182 0 l 46 0 l 46 781 l 182 781 l 182 711 b 319 799 207 764 254 799 b 376 789 338 799 360 796 l 375 665 b 315 669 358 668 335 669 z "},"㎮":{"ha":1333,"x_min":0,"x_max":0,"o":"m 1064 374 b 1257 244 1186 374 1257 321 l 1257 228 l 1139 228 l 1139 244 b 1064 278 1139 263 1114 278 b 990 246 1017 278 990 263 b 1061 213 990 228 1013 221 b 1118 203 1082 210 1100 206 b 1275 69 1229 181 1275 153 b 1072 -64 1275 -7 1197 -64 b 869 69 949 -64 869 -8 l 869 93 l 988 93 l 988 69 b 1072 32 988 46 1022 32 b 1158 69 1124 32 1158 47 b 1090 107 1158 88 1136 101 b 1035 114 1071 110 1051 111 b 872 243 922 132 872 171 b 1064 374 872 318 943 374 z m 679 547 l 561 547 b 557 565 560 553 558 560 b 471 539 535 550 501 539 b 315 679 376 539 315 590 b 471 819 315 767 376 819 b 547 803 499 819 526 814 l 547 818 b 497 885 547 860 529 885 b 446 836 465 885 449 868 l 328 836 b 497 981 333 928 392 981 b 665 818 610 981 665 919 l 665 618 b 679 547 665 594 671 569 z m 547 679 b 490 728 547 710 528 728 b 433 679 453 728 433 710 b 490 631 433 649 453 631 b 547 679 528 631 547 649 z m 939 960 l 939 1128 l 1058 1128 l 1058 547 l 939 547 l 939 568 b 863 539 918 550 892 539 b 699 760 760 539 699 610 b 863 981 699 910 760 981 b 939 960 892 981 918 974 z m 939 760 b 878 885 939 838 924 885 b 817 760 832 885 817 838 b 878 635 817 681 832 635 b 939 760 924 635 939 681 z m 268 883 b 167 764 206 883 167 843 l 167 547 l 47 547 l 47 971 l 167 971 l 167 940 b 272 981 189 965 226 981 b 321 974 288 981 306 979 l 321 881 b 268 883 303 882 285 883 z m 69 129 l 1250 610 l 1281 529 l 104 47 z "},"㎯":{"ha":1333,"x_min":0,"x_max":0,"o":"m 1326 408 b 1300 350 1326 389 1317 368 l 1257 304 l 1329 304 l 1329 251 l 1164 251 l 1164 290 l 1232 364 b 1258 408 1250 383 1258 399 b 1244 431 1258 422 1254 431 b 1229 408 1235 431 1229 422 l 1229 392 l 1160 392 l 1160 408 b 1244 483 1160 450 1190 483 b 1326 408 1296 483 1326 451 z m 54 146 l 1043 547 l 925 547 l 925 568 b 849 539 904 550 878 539 b 685 760 746 539 685 610 b 849 981 685 910 746 981 b 925 960 878 981 904 974 l 925 1128 l 1044 1128 l 1044 547 l 1228 622 l 1260 542 l 89 64 z m 665 547 l 547 547 b 543 565 546 553 544 560 b 457 539 521 550 488 539 b 301 679 363 539 301 590 b 457 819 301 767 363 819 b 533 803 485 819 513 814 l 533 818 b 483 885 533 860 515 885 b 432 836 451 885 435 868 l 314 836 b 483 981 319 928 378 981 b 651 818 596 981 651 919 l 651 618 b 665 547 651 594 657 569 z m 533 679 b 476 728 533 710 514 728 b 419 679 439 728 419 710 b 476 631 419 649 439 631 b 533 679 514 631 533 649 z m 925 760 b 864 885 925 838 910 885 b 803 760 818 885 803 838 b 864 635 803 681 818 635 b 925 760 910 635 925 681 z m 254 883 b 153 764 192 883 153 843 l 153 547 l 33 547 l 33 971 l 153 971 l 153 940 b 258 981 175 965 213 981 b 307 974 274 981 292 979 l 307 881 b 254 883 289 882 271 883 z m 967 369 b 1160 240 1089 369 1160 317 l 1160 224 l 1042 224 l 1042 240 b 967 274 1042 258 1017 274 b 893 242 919 274 893 258 b 964 208 893 224 915 217 b 1021 199 985 206 1003 201 b 1178 65 1132 176 1178 149 b 975 -68 1178 -11 1100 -68 b 772 65 851 -68 772 -12 l 772 89 l 890 89 l 890 65 b 975 28 890 42 925 28 b 1061 65 1026 28 1061 43 b 993 103 1061 83 1039 97 b 938 110 974 106 954 107 b 775 239 825 128 775 167 b 967 369 775 314 846 369 z "},"㏛":{"ha":1333,"x_min":0,"x_max":0,"o":"m 403 799 b 651 571 560 799 651 706 l 651 554 l 501 554 l 501 572 b 403 678 501 631 468 678 b 306 575 339 678 306 632 b 399 469 306 517 338 483 l 469 453 b 675 215 617 418 675 350 b 414 -19 675 82 575 -19 b 151 215 253 -19 151 79 l 151 239 l 301 239 l 301 214 b 414 101 301 146 350 101 b 526 213 482 101 526 146 b 435 326 526 272 493 311 b 360 346 408 333 383 340 b 156 569 222 378 156 442 b 403 799 156 700 246 799 z m 1132 669 b 932 399 1008 669 932 579 l 932 0 l 783 0 l 783 781 l 932 781 l 932 657 b 1136 799 961 750 1025 799 b 1196 792 1158 799 1181 797 l 1194 667 b 1132 669 1182 668 1158 669 z "},"㎩":{"ha":1333,"x_min":0,"x_max":0,"o":"m 413 407 l 244 407 l 244 -1 l 96 -1 l 96 1093 l 413 1093 b 693 750 592 1093 693 965 b 413 407 693 533 592 407 z m 244 546 l 397 546 b 544 750 494 546 544 621 b 397 953 544 879 494 953 l 244 953 z m 1111 -1 b 1101 40 1107 11 1104 25 b 944 -19 1071 3 1017 -19 b 711 228 801 -19 711 71 b 944 476 711 385 801 476 b 1100 421 1013 476 1067 457 l 1100 507 b 988 674 1100 611 1063 674 b 879 550 921 674 885 626 l 733 550 b 988 799 743 700 828 799 b 1243 506 1158 799 1243 683 l 1243 107 b 1256 -1 1243 68 1249 26 z m 978 99 b 1100 228 1057 99 1100 144 b 978 358 1100 311 1058 358 b 854 228 896 358 854 311 b 978 99 854 144 896 99 z "},"㎪":{"ha":1333,"x_min":0,"x_max":0,"o":"m 624 546 l 693 546 b 767 750 742 546 767 621 b 693 953 767 879 742 953 l 624 953 z m 703 407 l 624 407 l 624 0 l 490 0 l 490 1093 l 703 1093 b 900 750 828 1093 900 965 b 703 407 900 533 828 407 z m 1149 0 b 1146 17 1147 4 1147 11 b 1063 -19 1128 -4 1096 -19 b 896 228 960 -19 896 72 b 1063 476 896 385 960 476 b 1142 456 1094 476 1121 471 l 1142 507 b 1089 674 1142 611 1124 674 b 1040 550 1061 674 1044 626 l 910 550 b 1089 799 915 700 975 799 b 1271 506 1211 799 1271 683 l 1271 108 b 1279 0 1271 68 1275 26 z m 1142 228 b 1083 358 1142 311 1121 358 b 1026 228 1046 358 1026 311 b 1083 99 1026 144 1046 99 b 1142 228 1121 99 1142 144 z m 201 0 l 67 0 l 67 1093 l 201 1093 l 201 453 l 317 781 l 454 781 l 318 406 l 472 0 l 333 0 l 201 349 z "},"㎫":{"ha":1333,"x_min":0,"x_max":0,"o":"m 771 407 l 713 407 l 713 -1 l 586 -1 l 586 1093 l 771 1093 b 954 750 890 1093 954 965 b 771 407 954 533 890 407 z m 713 546 l 761 546 b 828 750 808 546 828 621 b 761 953 828 879 808 953 l 713 953 z m 1179 -1 l 1178 18 b 1106 -19 1161 -4 1133 -19 b 954 228 1013 -19 954 71 b 1106 476 954 385 1013 476 b 1169 454 1132 476 1153 469 l 1169 507 b 1128 674 1169 611 1156 674 b 1090 550 1107 674 1094 626 l 967 550 b 1128 799 972 700 1025 799 b 1292 506 1239 799 1292 683 l 1292 107 b 1300 -1 1292 68 1296 26 z m 1124 99 b 1169 228 1153 99 1169 144 b 1124 358 1169 311 1153 358 b 1078 228 1094 358 1078 311 b 1124 99 1078 144 1094 99 z m 331 -1 l 233 -1 l 160 458 l 160 -1 l 42 -1 l 42 1093 l 153 1093 l 282 338 l 411 1093 l 521 1093 l 521 -1 l 403 -1 l 403 442 z "},"㎬":{"ha":1333,"x_min":0,"x_max":0,"o":"m 42 546 b 275 1111 42 864 92 1111 b 501 728 414 1111 494 957 l 372 728 b 275 971 368 878 333 971 b 171 546 200 971 171 842 b 275 121 171 236 201 121 b 375 433 347 121 365 242 l 253 433 l 253 567 l 501 567 l 501 0 l 393 0 b 390 53 392 17 392 35 b 269 -19 361 11 319 -19 b 42 546 92 -19 42 231 z m 1163 228 b 1115 358 1163 311 1147 358 b 1068 228 1085 358 1068 311 b 1115 99 1068 144 1085 99 b 1163 228 1147 99 1163 144 z m 692 546 l 743 546 b 811 750 792 546 811 621 b 743 953 811 879 792 953 l 692 953 z m 753 407 l 692 407 l 692 0 l 564 0 l 564 1093 l 753 1093 b 940 750 875 1093 940 965 b 753 407 940 533 875 407 z m 1172 0 l 1172 21 b 1096 -19 1156 -3 1126 -19 b 942 228 1003 -19 942 72 b 1096 476 942 385 1001 476 b 1163 453 1125 476 1146 469 l 1163 507 b 1121 674 1163 611 1149 674 b 1081 550 1097 674 1085 626 l 954 550 b 1121 799 960 700 1014 799 b 1289 506 1236 799 1289 683 l 1289 108 b 1296 0 1289 68 1292 26 z "},"㏝":{"ha":1333,"x_min":0,"x_max":0,"o":"m 907 1093 l 907 722 b 1050 799 936 771 986 799 b 1283 390 1196 799 1283 667 b 1050 -19 1283 113 1196 -19 b 907 56 988 -19 938 10 l 907 0 l 768 0 l 768 1093 z m 907 390 b 1026 107 907 211 938 107 b 1146 390 1114 107 1146 211 b 1026 672 1146 567 1114 672 b 907 390 938 672 907 567 z m 585 0 l 446 0 l 367 625 l 286 0 l 147 0 l 8 1093 l 143 1093 l 219 404 l 303 1093 l 428 1093 l 510 404 l 588 1093 l 722 1093 z "},"㏐":{"ha":1333,"x_min":0,"x_max":0,"o":"m 889 418 l 889 -1 l 742 -1 l 742 504 b 660 672 742 617 714 672 b 549 419 593 672 549 585 l 549 -1 l 403 -1 l 403 781 l 546 781 l 546 729 b 688 799 576 772 628 799 b 856 689 765 799 824 764 b 1026 799 890 760 947 799 b 1228 499 1156 799 1228 692 l 1228 -1 l 1081 -1 l 1081 504 b 999 672 1081 617 1053 672 b 889 418 932 672 889 585 z m 272 -1 l 125 -1 l 125 1093 l 272 1093 z "},"㏓":{"ha":1333,"x_min":0,"x_max":0,"o":"m 333 0 l 179 0 l 179 1093 l 333 1093 z m 1168 0 l 1001 0 l 810 297 l 618 0 l 453 0 l 717 400 l 468 781 l 635 781 l 810 501 l 985 781 l 1153 781 l 904 400 z "},"㏃":{"ha":1333,"x_min":0,"x_max":0,"o":"m 244 631 l 381 631 b 506 792 464 631 506 675 b 381 953 506 908 464 953 l 244 953 z m 419 0 l 94 0 l 94 1093 l 403 1093 b 656 803 571 1093 656 992 b 528 567 656 682 606 599 l 526 567 b 678 307 622 538 678 440 b 419 0 678 104 592 0 z m 528 314 b 396 492 528 438 489 492 l 244 492 l 244 138 l 396 138 b 528 314 489 138 528 192 z m 1110 -339 l 1110 46 b 971 -18 1079 7 1029 -18 b 735 390 822 -18 735 114 b 971 800 735 668 822 800 b 1110 736 1033 800 1079 779 l 1110 781 l 1254 781 l 1254 -339 z m 1110 390 b 994 674 1110 568 1081 674 b 878 390 908 674 878 568 b 994 107 878 213 908 107 b 1110 390 1081 107 1110 213 z "},"㏉":{"ha":1333,"x_min":0,"x_max":0,"o":"m 65 546 b 381 1111 65 843 131 1111 b 689 728 569 1111 679 957 l 539 728 b 381 971 533 878 479 971 b 215 546 261 971 215 842 b 381 121 215 236 265 121 b 542 433 493 121 542 242 l 369 433 l 369 567 l 689 567 l 689 0 l 569 0 l 560 78 b 374 -19 522 18 457 -19 b 65 546 131 -19 65 251 z m 921 -126 l 953 -3 l 742 781 l 890 781 l 1024 251 l 1156 781 l 1304 781 l 1056 -164 b 869 -339 1018 -303 964 -339 b 806 -335 853 -339 832 -339 l 806 -214 l 858 -214 b 921 -126 883 -214 903 -194 z "},"㏜":{"ha":1333,"x_min":0,"x_max":0,"o":"m 674 301 b 383 -19 674 114 567 -19 b 93 300 200 -19 93 115 l 93 324 l 243 324 l 243 297 b 383 118 243 192 296 118 b 524 297 471 118 524 192 b 406 478 524 389 483 454 b 307 506 374 488 342 496 b 93 807 178 542 93 642 b 369 1111 93 975 188 1111 b 644 808 547 1111 644 972 l 644 790 l 493 790 l 493 808 b 369 972 493 906 450 972 b 243 808 288 972 243 906 b 354 643 243 715 282 665 b 453 614 381 635 425 622 b 674 301 594 571 674 469 z m 1071 -1 l 913 -1 l 706 781 l 853 781 l 992 232 l 1131 781 l 1278 781 z "},"㏆":{"ha":1333,"x_min":0,"x_max":0,"o":"m 718 0 l 600 0 l 600 574 l 718 574 l 719 274 l 808 424 l 938 424 l 811 219 l 954 0 l 822 0 l 719 165 z m 1160 -4 l 1160 18 b 1089 -10 1143 0 1117 -10 b 928 211 989 -10 928 63 b 1089 433 928 363 989 433 b 1161 407 1117 433 1142 424 l 1161 424 l 1279 424 l 1279 1 b 1111 -182 1279 -103 1228 -182 b 943 -28 1014 -182 954 -122 l 1063 -28 b 1111 -86 1068 -65 1085 -86 b 1160 -4 1143 -86 1160 -57 z m 1160 211 b 1103 336 1160 289 1146 336 b 1046 211 1061 336 1046 289 b 1103 88 1046 133 1061 88 b 1160 211 1146 88 1160 133 z m 261 536 b 50 836 89 536 50 681 b 261 1138 50 988 90 1138 b 467 910 388 1138 461 1046 l 350 910 b 260 1028 344 985 314 1028 b 169 836 192 1028 169 972 b 261 644 169 703 193 644 b 350 763 314 644 344 686 l 467 763 b 261 536 461 626 388 536 z m 115 -21 l 35 43 l 863 1100 l 943 1039 z "},"Æ":{"ha":1368,"x_min":0,"x_max":0,"o":"m 1308 0 l 651 0 l 651 240 l 286 240 l 163 0 l -17 0 l 554 1093 l 1300 1093 l 1300 953 l 814 953 l 814 628 l 1244 628 l 1244 489 l 814 489 l 814 139 l 1308 139 z m 651 379 l 651 949 l 357 379 z "},"Ð":{"ha":989,"x_min":0,"x_max":0,"o":"m 13 603 l 110 603 l 110 1093 l 501 1093 b 919 546 851 1093 919 826 b 501 -1 919 261 850 -1 l 110 -1 l 110 489 l 13 489 z m 757 546 b 489 953 757 832 686 953 l 272 953 l 272 603 l 468 603 l 468 489 l 272 489 l 272 139 l 489 139 b 757 546 685 139 757 257 z "},"ª":{"ha":624,"x_min":0,"x_max":0,"o":"m 417 581 b 257 506 394 532 336 506 b 54 686 139 506 54 567 b 256 868 54 806 139 868 b 417 792 336 868 394 842 l 417 907 b 315 1004 417 969 383 1004 b 218 919 256 1004 221 974 l 85 919 b 315 1106 92 1032 169 1106 b 549 906 467 1106 549 1024 l 549 599 b 561 519 549 569 556 538 l 426 519 b 417 581 419 535 417 557 z m 188 686 b 301 604 188 633 229 604 b 417 686 375 604 417 633 b 301 768 417 739 375 768 b 188 686 229 768 188 739 z m 44 317 l 44 421 l 581 421 l 581 317 z "},"Ħ":{"ha":982,"x_min":0,"x_max":0,"o":"m 13 929 l 111 929 l 111 1093 l 274 1093 l 274 929 l 708 929 l 708 1093 l 871 1093 l 871 929 l 969 929 l 969 815 l 871 815 l 871 0 l 708 0 l 708 489 l 274 489 l 274 0 l 111 0 l 111 815 l 13 815 z m 274 629 l 708 629 l 708 815 l 274 815 z "},"Ĳ":{"ha":1189,"x_min":0,"x_max":0,"o":"m 260 1093 l 260 -1 l 97 -1 l 97 1093 z m 750 -19 b 406 335 531 -19 406 107 l 406 344 l 568 344 b 751 119 571 188 636 119 b 935 356 867 119 935 189 l 935 1093 l 1097 1093 l 1097 335 b 750 -19 1097 107 969 -19 z "},"Ŀ":{"ha":775,"x_min":0,"x_max":0,"o":"m 97 -1 l 97 1093 l 260 1093 l 260 138 l 754 138 l 754 -1 z m 607 669 l 607 504 l 444 504 l 444 669 z "},"Ł":{"ha":789,"x_min":0,"x_max":0,"o":"m 15 338 l 15 465 l 110 514 l 110 1093 l 272 1093 l 272 600 l 551 747 l 551 619 l 272 472 l 272 139 l 767 139 l 767 0 l 110 0 l 110 386 z "},"Ø":{"ha":989,"x_min":0,"x_max":0,"o":"m 219 -50 l 96 -50 l 183 108 b 69 546 97 211 69 375 b 494 1111 69 844 156 1111 b 721 1054 586 1111 661 1092 l 769 1143 l 893 1143 l 803 983 b 919 546 894 883 919 707 b 494 -19 919 244 832 -19 b 268 36 401 -19 328 1 z m 231 546 b 272 261 231 419 242 328 l 647 925 b 494 971 608 956 557 971 b 231 546 303 971 231 840 z m 758 546 b 717 829 758 669 746 761 l 342 164 b 494 121 381 136 432 121 b 758 546 686 121 758 251 z "},"Œ":{"ha":1421,"x_min":0,"x_max":0,"o":"m 69 546 b 488 1093 69 825 138 1093 l 1353 1093 l 1353 953 l 867 953 l 867 628 l 1297 628 l 1297 489 l 867 489 l 867 139 l 1361 139 l 1361 -1 l 488 -1 b 69 546 138 -1 69 263 z m 231 546 b 501 139 231 257 303 139 l 704 139 l 704 953 l 501 953 b 231 546 304 953 231 832 z "},"º":{"ha":625,"x_min":0,"x_max":0,"o":"m 568 804 b 313 504 568 613 483 504 b 56 804 139 504 56 613 b 313 1106 56 996 139 1106 b 568 804 483 1106 568 996 z m 436 804 b 313 1001 436 944 400 1001 b 188 804 225 1001 188 946 b 313 607 188 661 225 607 b 436 804 400 607 436 664 z m 44 317 l 44 421 l 581 421 l 581 317 z "},"Þ":{"ha":911,"x_min":0,"x_max":0,"o":"m 260 1093 l 260 889 l 522 889 b 869 546 743 889 869 761 b 522 203 869 329 743 203 l 260 203 l 260 0 l 97 0 l 97 1093 z m 260 342 l 501 342 b 707 546 638 342 707 417 b 501 750 707 675 638 750 l 260 750 z "},"Ŧ":{"ha":821,"x_min":0,"x_max":0,"o":"m 165 500 l 165 615 l 329 615 l 329 953 l 21 953 l 21 1093 l 799 1093 l 799 953 l 490 953 l 490 615 l 656 615 l 656 500 l 490 500 l 490 0 l 329 0 l 329 500 z "},"Ŋ":{"ha":971,"x_min":0,"x_max":0,"o":"m 710 -94 l 710 -4 l 258 810 l 258 0 l 97 0 l 97 1093 l 263 1093 l 711 281 l 711 1093 l 872 1093 l 872 -104 b 631 -339 872 -258 794 -339 b 563 -336 610 -339 578 -337 l 563 -203 l 607 -203 b 710 -94 675 -203 710 -172 z "},"㉠":{"ha":1333,"x_min":0,"x_max":0,"o":"m 33 546 b 667 1176 33 903 313 1176 b 1299 546 1019 1176 1299 903 b 667 -83 1299 190 1019 -83 b 33 546 313 -83 33 190 z m 140 546 b 667 14 140 244 368 14 b 1193 546 965 14 1193 244 b 667 1079 1193 847 965 1079 b 140 546 368 1079 140 847 z m 338 811 l 976 811 l 976 282 l 832 282 l 832 688 l 338 688 z "},"㉡":{"ha":1333,"x_min":0,"x_max":0,"o":"m 33 546 b 667 1176 33 903 313 1176 b 1299 546 1019 1176 1299 903 b 667 -83 1299 190 1019 -83 b 33 546 313 -83 33 190 z m 140 546 b 667 14 140 244 368 14 b 1193 546 965 14 1193 244 b 667 1079 1193 847 965 1079 b 140 546 368 1079 140 847 z m 993 282 l 354 282 l 354 811 l 497 811 l 497 407 l 993 407 z "},"㉢":{"ha":1333,"x_min":0,"x_max":0,"o":"m 33 546 b 667 1176 33 903 313 1176 b 1299 546 1019 1176 1299 903 b 667 -83 1299 190 1019 -83 b 33 546 313 -83 33 190 z m 140 546 b 667 14 140 244 368 14 b 1193 546 965 14 1193 244 b 667 1079 1193 847 965 1079 b 140 546 368 1079 140 847 z m 494 407 l 989 407 l 989 282 l 350 282 l 350 811 l 979 811 l 979 688 l 494 688 z "},"㉣":{"ha":1333,"x_min":0,"x_max":0,"o":"m 33 546 b 667 1176 33 903 313 1176 b 1299 546 1019 1176 1299 903 b 667 -83 1299 190 1019 -83 b 33 546 313 -83 33 190 z m 140 546 b 667 14 140 244 368 14 b 1193 546 965 14 1193 244 b 667 1079 1193 847 965 1079 b 140 546 368 1079 140 847 z m 499 394 l 994 394 l 994 272 l 354 272 l 354 610 l 829 610 l 829 697 l 354 697 l 354 821 l 974 821 l 974 486 l 499 486 z "},"㉤":{"ha":1333,"x_min":0,"x_max":0,"o":"m 33 546 b 667 1176 33 903 313 1176 b 1299 546 1019 1176 1299 903 b 667 -83 1299 190 1019 -83 b 33 546 313 -83 33 190 z m 140 546 b 667 14 140 244 368 14 b 1193 546 965 14 1193 244 b 667 1079 1193 847 965 1079 b 140 546 368 1079 140 847 z m 350 811 l 979 811 l 979 282 l 350 282 z m 836 688 l 494 688 l 494 407 l 836 407 z "},"㉥":{"ha":1333,"x_min":0,"x_max":0,"o":"m 33 546 b 667 1176 33 903 313 1176 b 1299 546 1019 1176 1299 903 b 667 -83 1299 190 1019 -83 b 33 546 313 -83 33 190 z m 140 546 b 667 14 140 244 368 14 b 1193 546 965 14 1193 244 b 667 1079 1193 847 965 1079 b 140 546 368 1079 140 847 z m 494 649 l 836 649 l 836 811 l 979 811 l 979 282 l 350 282 l 350 811 l 494 811 z m 836 525 l 494 525 l 494 407 l 836 407 z "},"㉦":{"ha":1333,"x_min":0,"x_max":0,"o":"m 33 546 b 667 1176 33 903 313 1176 b 1299 546 1019 1176 1299 903 b 667 -83 1299 190 1019 -83 b 33 546 313 -83 33 190 z m 140 546 b 667 14 140 244 368 14 b 1193 546 965 14 1193 244 b 667 1079 1193 847 965 1079 b 140 546 368 1079 140 847 z m 1022 292 b 669 474 860 313 735 382 b 318 293 604 383 481 311 l 318 418 b 597 718 489 444 597 546 l 597 840 l 742 840 l 742 718 b 1022 418 742 546 849 443 z "}}}
